M48
;Layer_Color=9474304
;FILE_FORMAT=4:4
METRIC,LZ
;TYPE=PLATED
T1F00S00C0.6350
T2F00S00C0.7112
T3F00S00C0.8128
T4F00S00C0.9000
T5F00S00C1.0160
T6F00S00C1.0201
;TYPE=NON_PLATED
T7F00S00C3.0000
T8F00S00C3.2000
%
T01
X003937Y0005715
Y0008255
Y0010795
X004699
Y0008255
Y0005715
Y0013335
X003937
X004064Y00381
Y004064
Y004318
Y004572
X004826
Y004318
Y004064
Y00381
X001905Y0038735
Y0041275
Y0043815
Y0036195
Y0033655
Y0031115
Y0028575
Y0026035
X001143
Y0028575
Y0031115
Y0033655
Y0036195
Y0038735
Y0041275
Y0043815
X001397Y0080645
Y0088265
X001651
X001905
X002159
X002413
X002667
X002921
X003175
X00355691
X00381091
X00419191
X00444591
Y0080645
X00419191
X00381091
X00355691
X003175
X002921
X002667
X002413
X002159
X001905
X001651
X0055245Y00889
X0062865
Y009144
Y009398
Y009652
X0055245
Y009398
Y009144
T02
X006527Y00381
X0070485
X00630936Y00418846
X001397Y0065405
X002032
X004826Y007112
X0053975
X004953Y0078105
X004826Y0080645
X004699Y0083185
X006096Y008001
X001397Y009398
X000762Y0100965
T03
X005842Y010366
Y010716
T04
X000889Y0008255
X001143
X001905
X002159
X002413
X002667
Y0012065
Y0014605
X002413
Y0012065
X002159
Y0014605
X001905
Y0012065
X001651
Y0014605
Y0018415
Y0020955
X001905
Y0018415
X002159
Y0020955
X002413
Y0018415
X002667
Y0020955
X002921
Y0018415
X003175
Y0020955
X003429
Y0018415
X003683
Y0020955
X003937
Y0018415
X004191
Y0020955
X004445
Y0018415
X004699
Y0020955
X004953
Y0018415
X005207
Y0020955
Y0028575
Y0031115
Y0033655
Y0036195
Y0038735
Y0041275
Y0043815
Y0046355
X0046355Y0033655
Y0031115
Y0028575
Y0026035
X0040005
Y0028575
Y0031115
Y0033655
X0037465
Y0031115
Y0028575
Y0026035
X0026035Y00381
Y004064
Y004318
Y004572
X000381Y0046355
Y0048895
Y0041275
Y0038735
Y0036195
Y0033655
Y0031115
Y0028575
Y0026035
Y0023495
X000889Y0020955
Y0018415
X001143
Y0020955
X001397
Y0018415
Y0014605
Y0012065
X001143
Y0014605
X000889
Y0012065
X000381Y0051435
Y0053975
Y0056515
Y0059055
Y0061595
Y0064135
Y0069215
Y0071755
Y0074295
Y0076835
Y0079375
Y0081915
Y0084455
Y0086995
X001778Y0060325
X002032
X002286
X00254
X002794
X003048
X003302
X003556
Y0057785
X00381
Y0060325
X003302Y0057785
X003048
X002794
X00254
X002286
X002032
X001778
X005207Y0059055
Y0061595
Y0064135
Y0066675
Y0069215
Y0073025
Y0075565
Y0078105
Y0080645
Y0083185
Y0085725
Y0088265
Y0056515
Y0053975
Y0051435
X006604Y00889
Y009144
Y009398
Y009652
Y0103505
Y0106045
Y0108585
X005207Y0095885
Y0093345
Y0090805
X004064Y0099695
X00381
X003556
X003302
X003048
X002794
X00254
X002286
X002032
X001778
Y0102235
X002032
X002286
X00254
X002794
X003048
X003302
X003556
X00381
X004064
X001524
Y0099695
T05
X00043688Y00917194
Y00962406
X00108712
Y00917194
T06
X006527Y0010175
X006827
Y0013175
X006527
Y0016175
X006827
Y0026685
X006527
Y0029685
X006827
Y0032685
X006527
Y0043195
Y0046195
X006827
Y0043195
Y0049195
X006527
Y0059705
Y0062705
X006827
Y0059705
Y0065705
X006527
Y00764449
X006827
Y00794451
X006527
T07
X007259Y0013175
Y0029685
Y0046195
Y0062705
Y0077945
T08
X00035Y00035
X00745
X005207Y0024765
X003683Y0048895
X000889
X000381Y0018415
X00745Y01185
X005207Y0099695
X000381Y0100965
X00035Y01185
M30
