G04 Layer_Color=65535*
%FSLAX44Y44*%
%MOMM*%
G71*
G01*
G75*
%ADD13C,0.2540*%
%ADD31C,0.1524*%
%ADD32C,0.2000*%
D13*
X78740Y939800D02*
G03*
X78740Y939800I-2540J0D01*
G01*
X93980D02*
G03*
X93980Y939800I-17780J0D01*
G01*
X450850Y368300D02*
G03*
X438150Y368300I-6350J0D01*
G01*
Y44450D02*
G03*
X425450Y44450I-6350J0D01*
G01*
X584200Y977900D02*
G03*
X596900Y977900I6350J0D01*
G01*
X342991Y838200D02*
G03*
X342991Y850900I0J6350D01*
G01*
X406491Y838200D02*
G03*
X406491Y850900I0J6350D01*
G01*
X158750Y247650D02*
G03*
X146050Y247650I-6350J0D01*
G01*
X127000Y838200D02*
G03*
X127000Y850900I0J6350D01*
G01*
X198120Y687070D02*
Y697230D01*
X182880Y687070D02*
Y697230D01*
X177800Y666750D02*
X203200D01*
Y717550D01*
X177800D02*
X203200D01*
X177800Y666750D02*
Y717550D01*
X147320Y687070D02*
Y697230D01*
X132080Y687070D02*
Y697230D01*
X127000Y666750D02*
X152400D01*
Y717550D01*
X127000D02*
X152400D01*
X127000Y666750D02*
Y717550D01*
X299720Y687070D02*
Y697230D01*
X284480Y687070D02*
Y697230D01*
X279400Y666750D02*
X304800D01*
Y717550D01*
X279400D02*
X304800D01*
X279400Y666750D02*
Y717550D01*
X248920Y687070D02*
Y697230D01*
X233680Y687070D02*
Y697230D01*
X228600Y666750D02*
X254000D01*
Y717550D01*
X228600D02*
X254000D01*
X228600Y666750D02*
Y717550D01*
X363220Y687070D02*
Y697230D01*
X347980Y687070D02*
Y697230D01*
X342900Y666750D02*
X368300D01*
Y717550D01*
X342900D02*
X368300D01*
X342900Y666750D02*
Y717550D01*
X426720Y687070D02*
Y697230D01*
X411480Y687070D02*
Y697230D01*
X406400Y666750D02*
X431800D01*
Y717550D01*
X406400D02*
X431800D01*
X406400Y666750D02*
Y717550D01*
X306070Y293370D02*
X316230D01*
X306070Y278130D02*
X316230D01*
X336550Y273050D02*
Y298450D01*
X285750D02*
X336550D01*
X285750Y273050D02*
Y298450D01*
Y273050D02*
X336550D01*
X566420Y763270D02*
Y773430D01*
X551180Y763270D02*
Y773430D01*
X546100Y742950D02*
X571500D01*
Y793750D01*
X546100D02*
X571500D01*
X546100Y742950D02*
Y793750D01*
X306070Y318770D02*
X316230D01*
X306070Y303530D02*
X316230D01*
X336550Y298450D02*
Y323850D01*
X285750D02*
X336550D01*
X285750Y298450D02*
Y323850D01*
Y298450D02*
X336550D01*
X566420Y722630D02*
X576580D01*
X566420Y737870D02*
X576580D01*
X546100Y717550D02*
Y742950D01*
Y717550D02*
X596900D01*
Y742950D01*
X546100D02*
X596900D01*
X306070Y267970D02*
X316230D01*
X306070Y252730D02*
X316230D01*
X336550Y247650D02*
Y273050D01*
X285750D02*
X336550D01*
X285750Y247650D02*
Y273050D01*
Y247650D02*
X336550D01*
X306070Y344170D02*
X316230D01*
X306070Y328930D02*
X316230D01*
X336550Y323850D02*
Y349250D01*
X285750D02*
X336550D01*
X285750Y323850D02*
Y349250D01*
Y323850D02*
X336550D01*
X325120Y68580D02*
X335280D01*
X325120Y83820D02*
X335280D01*
X304800Y63500D02*
Y88900D01*
Y63500D02*
X355600D01*
Y88900D01*
X304800D02*
X355600D01*
X325120Y43180D02*
X335280D01*
X325120Y58420D02*
X335280D01*
X304800Y38100D02*
Y63500D01*
Y38100D02*
X355600D01*
Y63500D01*
X304800D02*
X355600D01*
X325120Y93980D02*
X335280D01*
X325120Y109220D02*
X335280D01*
X304800Y88900D02*
Y114300D01*
Y88900D02*
X355600D01*
Y114300D01*
X304800D02*
X355600D01*
X306070Y388620D02*
X316230D01*
X306070Y373380D02*
X316230D01*
X336550Y368300D02*
Y393700D01*
X285750D02*
X336550D01*
X285750Y368300D02*
Y393700D01*
Y368300D02*
X336550D01*
X306070Y411480D02*
X316230D01*
X306070Y426720D02*
X316230D01*
X285750Y406400D02*
Y431800D01*
Y406400D02*
X336550D01*
Y431800D01*
X285750D02*
X336550D01*
X306070Y464820D02*
X316230D01*
X306070Y449580D02*
X316230D01*
X336550Y444500D02*
Y469900D01*
X285750D02*
X336550D01*
X285750Y444500D02*
Y469900D01*
Y444500D02*
X336550D01*
X572770Y455930D02*
X582930D01*
X572770Y471170D02*
X582930D01*
X552450Y450850D02*
Y476250D01*
Y450850D02*
X603250D01*
Y476250D01*
X552450D02*
X603250D01*
X572770Y405130D02*
X582930D01*
X572770Y420370D02*
X582930D01*
X552450Y400050D02*
Y425450D01*
Y400050D02*
X603250D01*
Y425450D01*
X552450D02*
X603250D01*
X572770Y430530D02*
X582930D01*
X572770Y445770D02*
X582930D01*
X552450Y425450D02*
Y450850D01*
Y425450D02*
X603250D01*
Y450850D01*
X552450D02*
X603250D01*
X528320Y119380D02*
X538480D01*
X528320Y134620D02*
X538480D01*
X508000Y114300D02*
Y139700D01*
Y114300D02*
X558800D01*
Y139700D01*
X508000D02*
X558800D01*
X528320Y81280D02*
X538480D01*
X528320Y96520D02*
X538480D01*
X508000Y76200D02*
Y101600D01*
Y76200D02*
X558800D01*
Y101600D01*
X508000D02*
X558800D01*
X528320Y43180D02*
X538480D01*
X528320Y58420D02*
X538480D01*
X508000Y38100D02*
Y63500D01*
Y38100D02*
X558800D01*
Y63500D01*
X508000D02*
X558800D01*
X182880Y750570D02*
Y760730D01*
X198120Y750570D02*
Y760730D01*
X177800Y730250D02*
X203200D01*
Y781050D01*
X177800D02*
X203200D01*
X177800Y730250D02*
Y781050D01*
X132080Y750570D02*
Y760730D01*
X147320Y750570D02*
Y760730D01*
X127000Y730250D02*
X152400D01*
Y781050D01*
X127000D02*
X152400D01*
X127000Y730250D02*
Y781050D01*
X284480Y750570D02*
Y760730D01*
X299720Y750570D02*
Y760730D01*
X279400Y730250D02*
X304800D01*
Y781050D01*
X279400D02*
X304800D01*
X279400Y730250D02*
Y781050D01*
X233680Y750570D02*
Y760730D01*
X248920Y750570D02*
Y760730D01*
X228600Y730250D02*
X254000D01*
Y781050D01*
X228600D02*
X254000D01*
X228600Y730250D02*
Y781050D01*
X347980Y750570D02*
Y760730D01*
X363220Y750570D02*
Y760730D01*
X342900Y730250D02*
X368300D01*
Y781050D01*
X342900D02*
X368300D01*
X342900Y730250D02*
Y781050D01*
X411480Y750570D02*
Y760730D01*
X426720Y750570D02*
Y760730D01*
X406400Y730250D02*
X431800D01*
Y781050D01*
X406400D02*
X431800D01*
X406400Y730250D02*
Y781050D01*
X251220Y278130D02*
X261380D01*
X251220Y293370D02*
X261380D01*
X281700Y273050D02*
Y298450D01*
X230900D02*
X281700D01*
X230900Y273050D02*
Y298450D01*
Y273050D02*
X281700D01*
X551180Y820420D02*
Y830580D01*
X566420Y820420D02*
Y830580D01*
X546100Y800100D02*
X571500D01*
Y850900D01*
X546100D02*
X571500D01*
X546100Y800100D02*
Y850900D01*
X251220Y303530D02*
X261380D01*
X251220Y318770D02*
X261380D01*
X281700Y298450D02*
Y323850D01*
X230900D02*
X281700D01*
X230900Y298450D02*
Y323850D01*
Y298450D02*
X281700D01*
X576580Y763270D02*
Y773430D01*
X591820Y763270D02*
Y773430D01*
X571500Y742950D02*
X596900D01*
Y793750D01*
X571500D02*
X596900D01*
X571500Y742950D02*
Y793750D01*
X251220Y252730D02*
X261380D01*
X251220Y267970D02*
X261380D01*
X281700Y247650D02*
Y273050D01*
X230900D02*
X281700D01*
X230900Y247650D02*
Y273050D01*
Y247650D02*
X281700D01*
X251220Y328930D02*
X261380D01*
X251220Y344170D02*
X261380D01*
X281700Y323850D02*
Y349250D01*
X230900D02*
X281700D01*
X230900Y323850D02*
Y349250D01*
Y323850D02*
X281700D01*
X106680Y929640D02*
Y932180D01*
Y947420D02*
Y949960D01*
X45720Y929640D02*
Y932180D01*
Y947420D02*
Y949960D01*
X63500Y909320D02*
X88900D01*
X64770Y967740D02*
Y970280D01*
Y967740D02*
X88900D01*
X63500Y909320D02*
Y911860D01*
X88900D01*
Y909320D02*
Y911860D01*
X106680Y947420D02*
X109220D01*
Y932180D02*
Y947420D01*
X106680Y932180D02*
X109220D01*
X43180D02*
X45720D01*
X43180D02*
Y947420D01*
X45720D01*
X64770Y970280D02*
X88900D01*
Y967740D02*
Y970280D01*
X60960D02*
X92710D01*
X59690Y909320D02*
X92710D01*
X461010Y368300D02*
Y469900D01*
X427990D02*
X461010D01*
X427990Y368300D02*
Y469900D01*
Y368300D02*
X438150D01*
X450850D02*
X461010D01*
X448310Y44450D02*
Y146050D01*
X415290D02*
X448310D01*
X415290Y44450D02*
Y146050D01*
Y44450D02*
X425450D01*
X438150D02*
X448310D01*
X574040Y876300D02*
Y977900D01*
Y876300D02*
X607060D01*
Y977900D01*
X596900D02*
X607060D01*
X574040D02*
X584200D01*
X342991Y828040D02*
X393791D01*
Y861060D01*
X342991D02*
X393791D01*
X342991Y850900D02*
Y861060D01*
Y828040D02*
Y838200D01*
X406491Y828040D02*
X457291D01*
Y861060D01*
X406491D02*
X457291D01*
X406491Y850900D02*
Y861060D01*
Y828040D02*
Y838200D01*
X168910Y247650D02*
Y450850D01*
X135890D02*
X168910D01*
X135890Y247650D02*
Y450850D01*
Y247650D02*
X146050D01*
X158750D02*
X168910D01*
X127000Y828040D02*
X330200D01*
Y861060D01*
X127000D02*
X330200D01*
X127000Y850900D02*
Y861060D01*
Y828040D02*
Y838200D01*
X226065Y372107D02*
Y367028D01*
Y369567D01*
X238761D01*
X241300Y367028D01*
Y364489D01*
X238761Y361950D01*
X241300Y377185D02*
X226065D01*
Y384803D01*
X228604Y387342D01*
X233682D01*
X236222Y384803D01*
Y377185D01*
X241300Y392420D02*
X238761D01*
Y394959D01*
X241300D01*
Y392420D01*
Y412734D02*
X226065D01*
X233682Y405116D01*
Y415273D01*
X228604Y420351D02*
X226065Y422890D01*
Y427969D01*
X228604Y430508D01*
X231143D01*
X233682Y427969D01*
X236222Y430508D01*
X238761D01*
X241300Y427969D01*
Y422890D01*
X238761Y420351D01*
X236222D01*
X233682Y422890D01*
X231143Y420351D01*
X228604D01*
X233682Y422890D02*
Y427969D01*
X226065Y445743D02*
Y435586D01*
X233682D01*
X231143Y440664D01*
Y443204D01*
X233682Y445743D01*
X238761D01*
X241300Y443204D01*
Y438125D01*
X238761Y435586D01*
X241300Y450821D02*
X238761D01*
Y453360D01*
X241300D01*
Y450821D01*
Y473674D02*
Y463517D01*
X231143Y473674D01*
X228604D01*
X226065Y471135D01*
Y466056D01*
X228604Y463517D01*
X181607Y59685D02*
X176528D01*
X179067D01*
Y46989D01*
X176528Y44450D01*
X173989D01*
X171450Y46989D01*
X186685Y44450D02*
Y59685D01*
X194303D01*
X196842Y57146D01*
Y52067D01*
X194303Y49528D01*
X186685D01*
X201920Y44450D02*
Y46989D01*
X204459D01*
Y44450D01*
X201920D01*
X222234D02*
Y59685D01*
X214616Y52067D01*
X224773D01*
X229851Y57146D02*
X232390Y59685D01*
X237469D01*
X240008Y57146D01*
Y54607D01*
X237469Y52067D01*
X240008Y49528D01*
Y46989D01*
X237469Y44450D01*
X232390D01*
X229851Y46989D01*
Y49528D01*
X232390Y52067D01*
X229851Y54607D01*
Y57146D01*
X232390Y52067D02*
X237469D01*
X255243Y59685D02*
X245086D01*
Y52067D01*
X250165Y54607D01*
X252704D01*
X255243Y52067D01*
Y46989D01*
X252704Y44450D01*
X247625D01*
X245086Y46989D01*
X260321Y44450D02*
Y46989D01*
X262860D01*
Y44450D01*
X260321D01*
X273017D02*
X278095D01*
X275556D01*
Y59685D01*
X273017Y57146D01*
D31*
X624840Y1054100D02*
G03*
X624840Y1054100I-40640J0D01*
G01*
X601630Y1067290D02*
Y1074910D01*
X597820Y1071100D02*
X605440D01*
D32*
X165100Y565150D02*
Y615950D01*
X393700Y565150D02*
Y615950D01*
X165100Y565150D02*
X393700D01*
X165100Y615950D02*
X393700D01*
X76200Y158750D02*
X279400D01*
X76200Y107950D02*
X279400D01*
X76200D02*
Y158750D01*
X279400Y107950D02*
Y158750D01*
X76200Y222250D02*
X533400D01*
X76200Y171450D02*
X533400D01*
Y222250D01*
X76200Y171450D02*
Y222250D01*
X139700Y984250D02*
Y1035050D01*
X419100D01*
X139700Y984250D02*
X419100D01*
Y1035050D01*
X412750Y247650D02*
Y349250D01*
X361950Y247650D02*
Y349250D01*
Y247650D02*
X412750D01*
X361950Y349250D02*
X412750D01*
X508000Y971550D02*
X533400D01*
X508000Y717550D02*
X533400D01*
X508000D02*
Y971550D01*
X533400Y717550D02*
Y971550D01*
X508000Y704850D02*
X533400D01*
X508000Y501650D02*
Y704850D01*
X533400Y501650D02*
Y704850D01*
X508000Y501650D02*
X533400D01*
X25400Y882650D02*
X50800D01*
X25400Y679450D02*
Y882650D01*
X50800Y679450D02*
Y882650D01*
X25400Y679450D02*
X50800D01*
X508000Y476250D02*
X533400D01*
X508000Y273050D02*
Y476250D01*
X533400Y273050D02*
Y476250D01*
X508000Y273050D02*
X533400D01*
X25400Y654050D02*
X50800D01*
X25400Y450850D02*
Y654050D01*
X50800Y450850D02*
Y654050D01*
X25400Y450850D02*
X50800D01*
X25400Y425450D02*
X50800D01*
X25400Y222250D02*
Y425450D01*
X50800Y222250D02*
Y425450D01*
X25400Y222250D02*
X50800D01*
X177800Y69850D02*
Y95250D01*
X279400D01*
X177800Y69850D02*
X279400D01*
Y95250D01*
X247650Y469900D02*
X273050D01*
Y368300D02*
Y469900D01*
X247650Y368300D02*
Y469900D01*
Y368300D02*
X273050D01*
X450850Y247650D02*
X476250D01*
X450850D02*
Y349250D01*
X476250Y247650D02*
Y349250D01*
X450850D02*
X476250D01*
X685800Y1022350D02*
Y1098550D01*
X673100D02*
X685800D01*
X673100Y1022350D02*
X685800D01*
X673100D02*
Y1098550D01*
X685800Y1030817D02*
X719667D01*
X723900Y1035050D01*
X719667Y1039284D02*
X723900Y1035050D01*
X685800Y1039284D02*
X719667D01*
X685800Y1056217D02*
X719667D01*
X723900Y1060450D01*
X719667Y1064683D02*
X723900Y1060450D01*
X685800Y1064683D02*
X719667D01*
X685800Y1081617D02*
X719667D01*
X723900Y1085850D01*
X719667Y1090083D02*
X723900Y1085850D01*
X685800Y1090083D02*
X719667D01*
X685800Y876300D02*
Y977900D01*
X673100D02*
X685800D01*
X673100Y876300D02*
X685800D01*
Y884767D02*
X719667D01*
X723900Y889000D01*
X719667Y893234D02*
X723900Y889000D01*
X685800Y893234D02*
X719667D01*
X685800Y910167D02*
X719667D01*
X723900Y914400D01*
X719667Y918634D02*
X723900Y914400D01*
X685800Y918634D02*
X719667D01*
X685800Y935567D02*
X719667D01*
X723900Y939800D01*
X719667Y944033D02*
X723900Y939800D01*
X685800Y944033D02*
X719667D01*
X685800Y960967D02*
X719667D01*
X723900Y965200D01*
X719667Y969433D02*
X723900Y965200D01*
X685800Y969433D02*
X719667D01*
X673100Y876300D02*
Y977900D01*
X76200Y95250D02*
X127000D01*
X76200Y69850D02*
Y95250D01*
Y69850D02*
X127000D01*
Y95250D01*
M02*
