G04 Layer_Physical_Order=1*
G04 Layer_Color=255*
%FSLAX44Y44*%
%MOMM*%
G71*
G01*
G75*
%ADD10R,1.6000X1.0000*%
%ADD11R,1.0000X1.6000*%
%ADD12C,1.0160*%
%ADD13C,0.2540*%
%ADD14C,0.5080*%
%ADD15C,0.3810*%
%ADD16C,1.5000*%
%ADD17R,1.5000X1.5000*%
%ADD18R,1.5000X1.5000*%
%ADD19P,1.7321X8X292.5*%
%ADD20C,1.6002*%
%ADD21C,3.0000*%
%ADD22C,1.5301*%
%ADD23R,1.5301X1.5301*%
%ADD24O,3.0480X1.5240*%
%ADD25O,2.5400X1.2700*%
%ADD26R,2.5400X1.2700*%
%ADD27O,1.2700X2.5400*%
%ADD28R,1.2700X2.5400*%
%ADD29C,3.2000*%
%ADD30C,1.2700*%
G36*
X749874Y1215775D02*
X754629Y1214634D01*
X759146Y1212763D01*
X763315Y1210208D01*
X767033Y1207033D01*
X770208Y1203315D01*
X772763Y1199146D01*
X774634Y1194629D01*
X775776Y1189874D01*
X776147Y1185157D01*
X776115Y1185000D01*
Y35000D01*
X776147Y34843D01*
X775776Y30126D01*
X774634Y25371D01*
X772763Y20854D01*
X770208Y16685D01*
X767033Y12967D01*
X763315Y9792D01*
X759146Y7237D01*
X754629Y5366D01*
X749874Y4225D01*
X745157Y3853D01*
X745000Y3885D01*
X35000D01*
X34843Y3853D01*
X30126Y4225D01*
X25371Y5366D01*
X20854Y7237D01*
X16685Y9792D01*
X12967Y12967D01*
X9792Y16685D01*
X7237Y20854D01*
X5366Y25371D01*
X4225Y30126D01*
X3853Y34843D01*
X3885Y35000D01*
Y1185000D01*
X3853Y1185157D01*
X4225Y1189874D01*
X5366Y1194629D01*
X7237Y1199146D01*
X9792Y1203315D01*
X12967Y1207033D01*
X16685Y1210208D01*
X20854Y1212763D01*
X25371Y1214634D01*
X30126Y1215775D01*
X34843Y1216147D01*
X35000Y1216115D01*
X745000D01*
X745157Y1216147D01*
X749874Y1215775D01*
D02*
G37*
%LPC*%
G36*
X745000Y1203630D02*
X741366Y1203272D01*
X737871Y1202212D01*
X734650Y1200490D01*
X731827Y1198173D01*
X729510Y1195350D01*
X727788Y1192129D01*
X726728Y1188634D01*
X726370Y1185000D01*
X726728Y1181366D01*
X727788Y1177871D01*
X729510Y1174650D01*
X731827Y1171827D01*
X734650Y1169510D01*
X737871Y1167788D01*
X741366Y1166728D01*
X745000Y1166370D01*
X748634Y1166728D01*
X752129Y1167788D01*
X755350Y1169510D01*
X758173Y1171827D01*
X760490Y1174650D01*
X762212Y1177871D01*
X763272Y1181366D01*
X763630Y1185000D01*
X763272Y1188634D01*
X762212Y1192129D01*
X760490Y1195350D01*
X758173Y1198173D01*
X755350Y1200490D01*
X752129Y1202212D01*
X748634Y1203272D01*
X745000Y1203630D01*
D02*
G37*
G36*
X35000D02*
X31365Y1203272D01*
X27871Y1202212D01*
X24650Y1200490D01*
X21827Y1198173D01*
X19510Y1195350D01*
X17788Y1192129D01*
X16728Y1188634D01*
X16370Y1185000D01*
X16728Y1181366D01*
X17788Y1177871D01*
X19510Y1174650D01*
X21827Y1171827D01*
X24650Y1169510D01*
X27871Y1167788D01*
X31365Y1166728D01*
X35000Y1166370D01*
X38635Y1166728D01*
X42129Y1167788D01*
X45350Y1169510D01*
X48173Y1171827D01*
X50490Y1174650D01*
X52212Y1177871D01*
X53272Y1181366D01*
X53630Y1185000D01*
X53272Y1188634D01*
X52212Y1192129D01*
X50490Y1195350D01*
X48173Y1198173D01*
X45350Y1200490D01*
X42129Y1202212D01*
X38635Y1203272D01*
X35000Y1203630D01*
D02*
G37*
G36*
X584200Y1082232D02*
X581448Y1081870D01*
X578952Y1080836D01*
X444500D01*
X444500Y1080836D01*
X442511Y1080574D01*
X440657Y1079806D01*
X439065Y1078585D01*
X426365Y1065885D01*
X425144Y1064293D01*
X424376Y1062439D01*
X424114Y1060450D01*
Y987434D01*
X415916Y979236D01*
X396884D01*
X388686Y987434D01*
Y990474D01*
X389770Y991887D01*
X390782Y994329D01*
X391127Y996950D01*
X390782Y999571D01*
X389770Y1002013D01*
X388686Y1003426D01*
Y1015874D01*
X389770Y1017287D01*
X390782Y1019729D01*
X391127Y1022350D01*
X390782Y1024971D01*
X389770Y1027413D01*
X388161Y1029511D01*
X386063Y1031120D01*
X383621Y1032132D01*
X381000Y1032477D01*
X378379Y1032132D01*
X375937Y1031120D01*
X373839Y1029511D01*
X372230Y1027413D01*
X371218Y1024971D01*
X370873Y1022350D01*
X371218Y1019729D01*
X372230Y1017287D01*
X373314Y1015874D01*
Y1003426D01*
X372230Y1002013D01*
X371218Y999571D01*
X370873Y996950D01*
X371218Y994329D01*
X372230Y991887D01*
X373314Y990474D01*
Y987434D01*
X365116Y979236D01*
X320684D01*
X312486Y987434D01*
Y990474D01*
X313570Y991887D01*
X314582Y994329D01*
X314927Y996950D01*
X314582Y999571D01*
X313570Y1002013D01*
X312486Y1003426D01*
Y1015874D01*
X313570Y1017287D01*
X314582Y1019729D01*
X314927Y1022350D01*
X314582Y1024971D01*
X313570Y1027413D01*
X311961Y1029511D01*
X309863Y1031120D01*
X307421Y1032132D01*
X304800Y1032477D01*
X302179Y1032132D01*
X299737Y1031120D01*
X297639Y1029511D01*
X296030Y1027413D01*
X295018Y1024971D01*
X294673Y1022350D01*
X295018Y1019729D01*
X296030Y1017287D01*
X297114Y1015874D01*
Y1003426D01*
X296030Y1002013D01*
X295018Y999571D01*
X294673Y996950D01*
X295018Y994329D01*
X296030Y991887D01*
X297114Y990474D01*
Y984250D01*
X297376Y982261D01*
X298144Y980407D01*
X299365Y978815D01*
X312065Y966115D01*
X313657Y964894D01*
X315511Y964126D01*
X317500Y963864D01*
X317500Y963864D01*
X368300D01*
X370289Y964126D01*
X372143Y964894D01*
X373735Y966115D01*
X381000Y973381D01*
X388265Y966115D01*
X389857Y964894D01*
X391711Y964126D01*
X393700Y963864D01*
X393700Y963864D01*
X419100D01*
X421089Y964126D01*
X422943Y964894D01*
X424535Y966115D01*
X437235Y978815D01*
X438456Y980407D01*
X439224Y982261D01*
X439486Y984250D01*
X439486Y984250D01*
Y1057266D01*
X447684Y1065464D01*
X575621D01*
X576682Y1064082D01*
X578884Y1062392D01*
X581448Y1061330D01*
X584200Y1060968D01*
X586952Y1061330D01*
X589516Y1062392D01*
X591718Y1064082D01*
X592779Y1065464D01*
X612766D01*
X623215Y1055015D01*
X624807Y1053794D01*
X626661Y1053026D01*
X628650Y1052764D01*
X628650Y1052764D01*
X653924D01*
X655337Y1051680D01*
X657779Y1050668D01*
X660400Y1050323D01*
X663021Y1050668D01*
X665463Y1051680D01*
X666876Y1052764D01*
X733416D01*
X741614Y1044566D01*
Y789790D01*
X740344Y789498D01*
X738363Y791913D01*
X735692Y794105D01*
X732645Y795733D01*
X729338Y796736D01*
X725900Y797075D01*
X722462Y796736D01*
X719155Y795733D01*
X716108Y794105D01*
X713437Y791913D01*
X711245Y789242D01*
X709617Y786195D01*
X708614Y782888D01*
X708275Y779450D01*
X708614Y776012D01*
X709617Y772705D01*
X711245Y769658D01*
X713437Y766987D01*
X716108Y764796D01*
X719155Y763167D01*
X722462Y762164D01*
X725900Y761825D01*
X729338Y762164D01*
X732645Y763167D01*
X735692Y764796D01*
X738363Y766987D01*
X740344Y769402D01*
X741614Y769110D01*
Y688984D01*
X733416Y680786D01*
X695150D01*
X693160Y680524D01*
X691307Y679756D01*
X689715Y678535D01*
X678421Y667240D01*
X672509Y667240D01*
X672232Y668396D01*
Y696750D01*
X671887Y698484D01*
X670905Y699955D01*
X656455Y714405D01*
X654984Y715387D01*
X653250Y715732D01*
X547478D01*
X546090Y717540D01*
X544233Y718965D01*
X542071Y719861D01*
X539750Y720167D01*
X537429Y719861D01*
X535267Y718965D01*
X533410Y717540D01*
X531985Y715683D01*
X531089Y713521D01*
X530783Y711200D01*
X531089Y708879D01*
X531985Y706717D01*
X533410Y704860D01*
X535267Y703435D01*
X537429Y702539D01*
X539750Y702233D01*
X542071Y702539D01*
X544233Y703435D01*
X546090Y704860D01*
X547478Y706668D01*
X651373D01*
X663168Y694873D01*
Y661725D01*
X661898Y661473D01*
X661601Y662189D01*
X659968Y664318D01*
X657839Y665951D01*
X655360Y666978D01*
X652700Y667328D01*
X650040Y666978D01*
X647561Y665951D01*
X645432Y664318D01*
X643798Y662189D01*
X642772Y659710D01*
X642421Y657050D01*
X642772Y654390D01*
X643798Y651911D01*
X645432Y649782D01*
X647561Y648149D01*
X650040Y647122D01*
X652700Y646771D01*
X655360Y647122D01*
X657839Y648149D01*
X659968Y649782D01*
X661601Y651911D01*
X661898Y652627D01*
X663168Y652375D01*
Y631725D01*
X661898Y631473D01*
X661601Y632189D01*
X659968Y634318D01*
X657839Y635951D01*
X655360Y636978D01*
X652700Y637328D01*
X650040Y636978D01*
X647561Y635951D01*
X645432Y634318D01*
X643798Y632189D01*
X642772Y629710D01*
X642421Y627050D01*
X642772Y624390D01*
X643798Y621911D01*
X645432Y619782D01*
X647561Y618149D01*
X650040Y617122D01*
X652700Y616772D01*
X655360Y617122D01*
X657839Y618149D01*
X659968Y619782D01*
X661601Y621911D01*
X661898Y622627D01*
X663168Y622375D01*
Y613927D01*
X655967Y606727D01*
X655360Y606978D01*
X652700Y607328D01*
X650040Y606978D01*
X647561Y605951D01*
X645432Y604318D01*
X643798Y602189D01*
X642772Y599710D01*
X642421Y597050D01*
X642772Y594390D01*
X643798Y591911D01*
X645432Y589782D01*
X647561Y588149D01*
X650040Y587122D01*
X652700Y586772D01*
X655360Y587122D01*
X655755Y587285D01*
X663168Y579873D01*
Y496625D01*
X661898Y496373D01*
X661601Y497089D01*
X659968Y499218D01*
X657839Y500851D01*
X655360Y501878D01*
X652700Y502228D01*
X650040Y501878D01*
X647561Y500851D01*
X645432Y499218D01*
X643798Y497089D01*
X642772Y494610D01*
X642421Y491950D01*
X642772Y489290D01*
X643798Y486811D01*
X645432Y484682D01*
X647561Y483049D01*
X650040Y482022D01*
X652700Y481671D01*
X655360Y482022D01*
X657839Y483049D01*
X659968Y484682D01*
X661601Y486811D01*
X661898Y487527D01*
X663168Y487275D01*
Y466625D01*
X661898Y466373D01*
X661601Y467089D01*
X659968Y469218D01*
X657839Y470851D01*
X655360Y471878D01*
X652700Y472228D01*
X650040Y471878D01*
X647561Y470851D01*
X645432Y469218D01*
X643798Y467089D01*
X642772Y464610D01*
X642421Y461950D01*
X642772Y459290D01*
X643291Y458035D01*
X628189Y442933D01*
X627347Y441673D01*
X627051Y440186D01*
Y426859D01*
X626453Y426611D01*
X624596Y425186D01*
X623171Y423329D01*
X622275Y421167D01*
X621969Y418846D01*
X622275Y416525D01*
X623171Y414363D01*
X624596Y412506D01*
X626453Y411081D01*
X628615Y410185D01*
X630936Y409879D01*
X633257Y410185D01*
X635419Y411081D01*
X637276Y412506D01*
X638701Y414363D01*
X639597Y416525D01*
X639903Y418846D01*
X639597Y421167D01*
X638701Y423329D01*
X637276Y425186D01*
X635419Y426611D01*
X634821Y426859D01*
Y438577D01*
X648785Y452541D01*
X650040Y452022D01*
X652700Y451672D01*
X655360Y452022D01*
X657839Y453049D01*
X659968Y454682D01*
X661601Y456811D01*
X661898Y457527D01*
X663168Y457275D01*
Y448828D01*
X655967Y441627D01*
X655360Y441878D01*
X652700Y442229D01*
X650040Y441878D01*
X647561Y440851D01*
X645432Y439218D01*
X643798Y437089D01*
X642772Y434610D01*
X642421Y431950D01*
X642772Y429290D01*
X643798Y426811D01*
X645432Y424682D01*
X647561Y423049D01*
X650040Y422022D01*
X652700Y421672D01*
X655360Y422022D01*
X655967Y422273D01*
X663168Y415072D01*
Y331525D01*
X661898Y331273D01*
X661601Y331989D01*
X659968Y334118D01*
X657839Y335751D01*
X655360Y336778D01*
X652700Y337128D01*
X650040Y336778D01*
X647561Y335751D01*
X645432Y334118D01*
X643798Y331989D01*
X642772Y329510D01*
X642421Y326850D01*
X642772Y324190D01*
X643291Y322935D01*
X597709Y277353D01*
X596867Y276093D01*
X596571Y274606D01*
Y232495D01*
X564811Y200735D01*
X530740D01*
Y219590D01*
X510660D01*
Y200735D01*
X502390D01*
X501959Y202005D01*
X502461Y202389D01*
X504070Y204487D01*
X505082Y206929D01*
X505427Y209550D01*
X505082Y212171D01*
X504070Y214613D01*
X502461Y216711D01*
X500363Y218320D01*
X497921Y219332D01*
X495300Y219677D01*
X492679Y219332D01*
X490237Y218320D01*
X488139Y216711D01*
X486530Y214613D01*
X485518Y212171D01*
X485173Y209550D01*
X485518Y206929D01*
X486530Y204487D01*
X488139Y202389D01*
X488641Y202005D01*
X488210Y200735D01*
X482600D01*
X481113Y200439D01*
X479853Y199597D01*
X473700Y193443D01*
X472521Y193932D01*
X469900Y194277D01*
X467279Y193932D01*
X464837Y192920D01*
X462739Y191311D01*
X461130Y189213D01*
X460118Y186771D01*
X459773Y184150D01*
X460118Y181529D01*
X461130Y179087D01*
X462739Y176989D01*
X464837Y175380D01*
X467279Y174368D01*
X469900Y174023D01*
X472521Y174368D01*
X474963Y175380D01*
X477061Y176989D01*
X478670Y179087D01*
X479682Y181529D01*
X480027Y184150D01*
X479682Y186771D01*
X479193Y187950D01*
X484209Y192965D01*
X488210D01*
X488641Y191695D01*
X488139Y191311D01*
X486530Y189213D01*
X485518Y186771D01*
X485173Y184150D01*
X485518Y181529D01*
X486530Y179087D01*
X488139Y176989D01*
X490237Y175380D01*
X492679Y174368D01*
X495300Y174023D01*
X497921Y174368D01*
X500363Y175380D01*
X502461Y176989D01*
X504070Y179087D01*
X505082Y181529D01*
X505427Y184150D01*
X505082Y186771D01*
X504070Y189213D01*
X502461Y191311D01*
X501959Y191695D01*
X502390Y192965D01*
X513610D01*
X514041Y191695D01*
X513539Y191311D01*
X511930Y189213D01*
X510918Y186771D01*
X510573Y184150D01*
X510918Y181529D01*
X511930Y179087D01*
X513539Y176989D01*
X515637Y175380D01*
X518079Y174368D01*
X520700Y174023D01*
X523321Y174368D01*
X525763Y175380D01*
X527861Y176989D01*
X529470Y179087D01*
X530482Y181529D01*
X530827Y184150D01*
X530482Y186771D01*
X529470Y189213D01*
X527861Y191311D01*
X527359Y191695D01*
X527790Y192965D01*
X566420D01*
X567907Y193261D01*
X569167Y194103D01*
X603203Y228139D01*
X604045Y229399D01*
X604341Y230886D01*
Y272997D01*
X648785Y317441D01*
X650040Y316922D01*
X652700Y316572D01*
X655360Y316922D01*
X657839Y317949D01*
X659968Y319582D01*
X661601Y321711D01*
X661898Y322427D01*
X663168Y322175D01*
Y301525D01*
X661898Y301273D01*
X661601Y301989D01*
X659968Y304118D01*
X657839Y305751D01*
X655360Y306778D01*
X652700Y307128D01*
X650040Y306778D01*
X647561Y305751D01*
X645432Y304118D01*
X643798Y301989D01*
X642772Y299510D01*
X642421Y296850D01*
X642772Y294190D01*
X643798Y291711D01*
X645432Y289582D01*
X647561Y287949D01*
X650040Y286922D01*
X652700Y286572D01*
X655360Y286922D01*
X657839Y287949D01*
X659968Y289582D01*
X661601Y291711D01*
X661898Y292427D01*
X663168Y292175D01*
Y283728D01*
X655967Y276527D01*
X655360Y276778D01*
X652700Y277129D01*
X650040Y276778D01*
X647561Y275751D01*
X645432Y274118D01*
X643798Y271989D01*
X642772Y269510D01*
X642421Y266850D01*
X642772Y264190D01*
X643798Y261711D01*
X645432Y259582D01*
X647561Y257949D01*
X650040Y256922D01*
X652700Y256572D01*
X655360Y256922D01*
X655967Y257173D01*
X663168Y249972D01*
Y166425D01*
X661898Y166173D01*
X661601Y166889D01*
X659968Y169018D01*
X657839Y170651D01*
X655360Y171678D01*
X652700Y172028D01*
X650040Y171678D01*
X647561Y170651D01*
X645432Y169018D01*
X643798Y166889D01*
X642772Y164410D01*
X642421Y161750D01*
X642772Y159090D01*
X643798Y156611D01*
X645432Y154482D01*
X647561Y152849D01*
X650040Y151822D01*
X652700Y151472D01*
X655360Y151822D01*
X657839Y152849D01*
X659968Y154482D01*
X661601Y156611D01*
X661898Y157327D01*
X663168Y157075D01*
Y136425D01*
X661898Y136173D01*
X661601Y136889D01*
X659968Y139018D01*
X657839Y140651D01*
X655360Y141678D01*
X652700Y142028D01*
X650040Y141678D01*
X647561Y140651D01*
X645432Y139018D01*
X643798Y136889D01*
X642772Y134410D01*
X642421Y131750D01*
X642772Y129090D01*
X643798Y126611D01*
X645432Y124482D01*
X647561Y122849D01*
X650040Y121822D01*
X652700Y121472D01*
X655360Y121822D01*
X657839Y122849D01*
X659968Y124482D01*
X661601Y126611D01*
X661898Y127327D01*
X663168Y127075D01*
Y118628D01*
X655967Y111427D01*
X655360Y111678D01*
X652700Y112029D01*
X650040Y111678D01*
X647561Y110651D01*
X645432Y109018D01*
X643798Y106889D01*
X642772Y104410D01*
X642421Y101750D01*
X642772Y99090D01*
X643798Y96611D01*
X645432Y94482D01*
X647561Y92849D01*
X650040Y91822D01*
X652700Y91472D01*
X655360Y91822D01*
X657839Y92849D01*
X659968Y94482D01*
X661601Y96611D01*
X662628Y99090D01*
X662978Y101750D01*
X662628Y104410D01*
X662376Y105017D01*
X670905Y113546D01*
X671887Y115016D01*
X672232Y116751D01*
Y127073D01*
X673502Y127326D01*
X673798Y126611D01*
X675014Y125027D01*
Y108474D01*
X673798Y106889D01*
X672772Y104410D01*
X672421Y101750D01*
X672772Y99090D01*
X673798Y96611D01*
X675432Y94482D01*
X677520Y92880D01*
Y43495D01*
X670955Y36930D01*
X569596D01*
X555940Y50585D01*
Y61340D01*
X553580D01*
Y78360D01*
X555940D01*
Y99440D01*
X553580D01*
Y116460D01*
X555940D01*
Y137540D01*
X540860D01*
Y116460D01*
X543221D01*
Y99440D01*
X540860D01*
Y78360D01*
X543221D01*
Y61340D01*
X540860D01*
Y40260D01*
X551615D01*
X553772Y38103D01*
X553286Y36930D01*
X408545D01*
X398880Y46595D01*
Y48183D01*
X400050D01*
X402371Y48489D01*
X404533Y49385D01*
X406390Y50810D01*
X407815Y52667D01*
X408711Y54829D01*
X409017Y57150D01*
X408711Y59471D01*
X407815Y61633D01*
X406390Y63490D01*
X404533Y64915D01*
X402371Y65811D01*
X400050Y66117D01*
X387350D01*
X385029Y65811D01*
X382867Y64915D01*
X381010Y63490D01*
X380119Y62330D01*
X368300D01*
X366318Y61935D01*
X364637Y60813D01*
X359805Y55979D01*
X352740D01*
Y61340D01*
X337660D01*
Y40260D01*
X352740D01*
Y45620D01*
X361950D01*
X363932Y46015D01*
X365612Y47137D01*
X370445Y51971D01*
X380119D01*
X381010Y50810D01*
X382867Y49385D01*
X385029Y48489D01*
X387350Y48183D01*
X388521D01*
Y44450D01*
X388915Y42468D01*
X390037Y40788D01*
X402738Y28087D01*
X404418Y26965D01*
X406400Y26570D01*
X673100D01*
X675082Y26965D01*
X676762Y28087D01*
X686362Y37687D01*
X687485Y39368D01*
X687879Y41350D01*
Y92880D01*
X689968Y94482D01*
X691601Y96611D01*
X692628Y99090D01*
X692978Y101750D01*
X692628Y104410D01*
X691601Y106889D01*
X690385Y108474D01*
Y125027D01*
X691601Y126611D01*
X692628Y129090D01*
X692978Y131750D01*
X692628Y134410D01*
X691601Y136889D01*
X690385Y138473D01*
Y151559D01*
X692890D01*
Y171940D01*
X690385D01*
Y260127D01*
X691601Y261711D01*
X692628Y264190D01*
X692978Y266850D01*
X692628Y269510D01*
X691601Y271989D01*
X690385Y273573D01*
Y290127D01*
X691601Y291711D01*
X692628Y294190D01*
X692978Y296850D01*
X692628Y299510D01*
X691601Y301989D01*
X690385Y303573D01*
Y316660D01*
X692890D01*
Y337040D01*
X690385D01*
Y373314D01*
X700263D01*
X700367Y373235D01*
X702529Y372339D01*
X704850Y372033D01*
X707171Y372339D01*
X709333Y373235D01*
X711190Y374660D01*
X712615Y376517D01*
X713511Y378679D01*
X713817Y381000D01*
X713511Y383321D01*
X712615Y385483D01*
X711190Y387340D01*
X709333Y388765D01*
X707171Y389661D01*
X704850Y389967D01*
X702529Y389661D01*
X700367Y388765D01*
X700263Y388686D01*
X690385D01*
Y425227D01*
X691601Y426811D01*
X692628Y429290D01*
X692978Y431950D01*
X692628Y434610D01*
X691601Y437089D01*
X690385Y438674D01*
Y455227D01*
X691601Y456811D01*
X692628Y459290D01*
X692978Y461950D01*
X692628Y464610D01*
X691601Y467089D01*
X690385Y468673D01*
Y481759D01*
X692890D01*
Y502140D01*
X690385D01*
Y590327D01*
X691601Y591911D01*
X692628Y594390D01*
X692978Y597050D01*
X692628Y599710D01*
X691601Y602189D01*
X690385Y603773D01*
Y620327D01*
X691601Y621911D01*
X692628Y624390D01*
X692978Y627050D01*
X692628Y629710D01*
X691601Y632189D01*
X690385Y633773D01*
Y646860D01*
X692890D01*
Y659971D01*
X698333Y665414D01*
X736600D01*
X738589Y665676D01*
X740443Y666444D01*
X742035Y667665D01*
X754735Y680365D01*
X755956Y681957D01*
X756724Y683811D01*
X756986Y685800D01*
X756986Y685800D01*
Y1047750D01*
X756986Y1047750D01*
X756724Y1049739D01*
X755956Y1051593D01*
X754735Y1053185D01*
X742035Y1065885D01*
X740443Y1067106D01*
X738589Y1067874D01*
X736600Y1068136D01*
X666876D01*
X665463Y1069220D01*
X663021Y1070232D01*
X660400Y1070577D01*
X657779Y1070232D01*
X655337Y1069220D01*
X653924Y1068136D01*
X631834D01*
X621385Y1078585D01*
X619793Y1079806D01*
X617939Y1080574D01*
X615950Y1080836D01*
X589448D01*
X586952Y1081870D01*
X584200Y1082232D01*
D02*
G37*
G36*
X406400Y1106236D02*
X404411Y1105974D01*
X402557Y1105206D01*
X400965Y1103985D01*
X388265Y1091285D01*
X387044Y1089693D01*
X386276Y1087839D01*
X386014Y1085850D01*
Y1055436D01*
X342900D01*
X342900Y1055436D01*
X340911Y1055174D01*
X339057Y1054406D01*
X337465Y1053185D01*
X330200Y1045919D01*
X322935Y1053185D01*
X321343Y1054406D01*
X319489Y1055174D01*
X317500Y1055436D01*
X88900D01*
X88900Y1055436D01*
X86911Y1055174D01*
X85057Y1054406D01*
X83465Y1053185D01*
X70765Y1040485D01*
X69544Y1038893D01*
X68776Y1037039D01*
X68514Y1035050D01*
Y1014237D01*
X68435Y1014133D01*
X67539Y1011971D01*
X67233Y1009650D01*
X67539Y1007329D01*
X68435Y1005167D01*
X69860Y1003310D01*
X71717Y1001885D01*
X73879Y1000989D01*
X76200Y1000683D01*
X78521Y1000989D01*
X80683Y1001885D01*
X82540Y1003310D01*
X83965Y1005167D01*
X84861Y1007329D01*
X85167Y1009650D01*
X84861Y1011971D01*
X83965Y1014133D01*
X83886Y1014237D01*
Y1031866D01*
X92084Y1040064D01*
X314316D01*
X322514Y1031866D01*
Y1028826D01*
X321430Y1027413D01*
X320418Y1024971D01*
X320073Y1022350D01*
X320418Y1019729D01*
X321430Y1017287D01*
X322514Y1015874D01*
Y1003426D01*
X321430Y1002013D01*
X320418Y999571D01*
X320073Y996950D01*
X320418Y994329D01*
X321430Y991887D01*
X323039Y989789D01*
X325137Y988180D01*
X327579Y987168D01*
X330200Y986823D01*
X332821Y987168D01*
X335263Y988180D01*
X337361Y989789D01*
X338970Y991887D01*
X339982Y994329D01*
X340327Y996950D01*
X339982Y999571D01*
X338970Y1002013D01*
X337886Y1003426D01*
Y1015874D01*
X338970Y1017287D01*
X339982Y1019729D01*
X340327Y1022350D01*
X339982Y1024971D01*
X338970Y1027413D01*
X337886Y1028826D01*
Y1031866D01*
X346084Y1040064D01*
X390516D01*
X397017Y1033563D01*
X396531Y1032390D01*
X396360D01*
Y1012310D01*
X398714D01*
Y1003426D01*
X397630Y1002013D01*
X396618Y999571D01*
X396273Y996950D01*
X396618Y994329D01*
X397630Y991887D01*
X399239Y989789D01*
X401337Y988180D01*
X403779Y987168D01*
X406400Y986823D01*
X409021Y987168D01*
X411463Y988180D01*
X413561Y989789D01*
X415170Y991887D01*
X416182Y994329D01*
X416527Y996950D01*
X416182Y999571D01*
X415170Y1002013D01*
X414086Y1003426D01*
Y1012310D01*
X416440D01*
Y1032390D01*
X414086D01*
Y1035050D01*
X414086Y1035050D01*
X413824Y1037039D01*
X413056Y1038893D01*
X411835Y1040485D01*
X401386Y1050934D01*
Y1082666D01*
X409584Y1090864D01*
X625466D01*
X635915Y1080415D01*
X637507Y1079194D01*
X639361Y1078426D01*
X641350Y1078164D01*
X641350Y1078164D01*
X653924D01*
X655337Y1077080D01*
X657779Y1076068D01*
X660400Y1075723D01*
X663021Y1076068D01*
X665463Y1077080D01*
X667561Y1078689D01*
X669170Y1080787D01*
X670182Y1083229D01*
X670527Y1085850D01*
X670182Y1088471D01*
X669170Y1090913D01*
X667561Y1093011D01*
X665463Y1094620D01*
X663021Y1095632D01*
X660400Y1095977D01*
X657779Y1095632D01*
X655337Y1094620D01*
X653924Y1093536D01*
X644534D01*
X634085Y1103985D01*
X632493Y1105206D01*
X630639Y1105974D01*
X628650Y1106236D01*
X406400D01*
X406400Y1106236D01*
D02*
G37*
G36*
X589470Y1047141D02*
X585470D01*
Y1037870D01*
X594741D01*
Y1041870D01*
X589470Y1047141D01*
D02*
G37*
G36*
X582930D02*
X578929D01*
X573659Y1041870D01*
Y1037870D01*
X582930D01*
Y1047141D01*
D02*
G37*
G36*
X670440Y1045090D02*
X661670D01*
Y1036320D01*
X670440D01*
Y1045090D01*
D02*
G37*
G36*
X659130D02*
X650360D01*
Y1036320D01*
X659130D01*
Y1045090D01*
D02*
G37*
G36*
X594741Y1035330D02*
X585470D01*
Y1026059D01*
X589470D01*
X594741Y1031329D01*
Y1035330D01*
D02*
G37*
G36*
X582930D02*
X573659D01*
Y1031329D01*
X578929Y1026059D01*
X582930D01*
Y1035330D01*
D02*
G37*
G36*
X670440Y1033780D02*
X661670D01*
Y1025010D01*
X670440D01*
Y1033780D01*
D02*
G37*
G36*
X659130D02*
X650360D01*
Y1025010D01*
X659130D01*
Y1033780D01*
D02*
G37*
G36*
X356870Y1032309D02*
Y1023620D01*
X365559D01*
X365382Y1024971D01*
X364370Y1027413D01*
X362761Y1029511D01*
X360663Y1031120D01*
X358221Y1032132D01*
X356870Y1032309D01*
D02*
G37*
G36*
X280670D02*
Y1023620D01*
X289359D01*
X289182Y1024971D01*
X288170Y1027413D01*
X286561Y1029511D01*
X284463Y1031120D01*
X282021Y1032132D01*
X280670Y1032309D01*
D02*
G37*
G36*
X354330D02*
X352979Y1032132D01*
X350537Y1031120D01*
X348439Y1029511D01*
X346830Y1027413D01*
X345818Y1024971D01*
X345641Y1023620D01*
X354330D01*
Y1032309D01*
D02*
G37*
G36*
X278130D02*
X276779Y1032132D01*
X274337Y1031120D01*
X272239Y1029511D01*
X270630Y1027413D01*
X269618Y1024971D01*
X269441Y1023620D01*
X278130D01*
Y1032309D01*
D02*
G37*
G36*
X365559Y1021080D02*
X356870D01*
Y1012391D01*
X358221Y1012568D01*
X360663Y1013580D01*
X362761Y1015189D01*
X364370Y1017287D01*
X365382Y1019729D01*
X365559Y1021080D01*
D02*
G37*
G36*
X289359D02*
X280670D01*
Y1012391D01*
X282021Y1012568D01*
X284463Y1013580D01*
X286561Y1015189D01*
X288170Y1017287D01*
X289182Y1019729D01*
X289359Y1021080D01*
D02*
G37*
G36*
X354330D02*
X345641D01*
X345818Y1019729D01*
X346830Y1017287D01*
X348439Y1015189D01*
X350537Y1013580D01*
X352979Y1012568D01*
X354330Y1012391D01*
Y1021080D01*
D02*
G37*
G36*
X278130D02*
X269441D01*
X269618Y1019729D01*
X270630Y1017287D01*
X272239Y1015189D01*
X274337Y1013580D01*
X276779Y1012568D01*
X278130Y1012391D01*
Y1021080D01*
D02*
G37*
G36*
X356870Y1006909D02*
Y998220D01*
X365559D01*
X365382Y999571D01*
X364370Y1002013D01*
X362761Y1004111D01*
X360663Y1005720D01*
X358221Y1006732D01*
X356870Y1006909D01*
D02*
G37*
G36*
X280670D02*
Y998220D01*
X289359D01*
X289182Y999571D01*
X288170Y1002013D01*
X286561Y1004111D01*
X284463Y1005720D01*
X282021Y1006732D01*
X280670Y1006909D01*
D02*
G37*
G36*
X354330D02*
X352979Y1006732D01*
X350537Y1005720D01*
X348439Y1004111D01*
X346830Y1002013D01*
X345818Y999571D01*
X345641Y998220D01*
X354330D01*
Y1006909D01*
D02*
G37*
G36*
X278130D02*
X276779Y1006732D01*
X274337Y1005720D01*
X272239Y1004111D01*
X270630Y1002013D01*
X269618Y999571D01*
X269441Y998220D01*
X278130D01*
Y1006909D01*
D02*
G37*
G36*
X38100Y1028280D02*
X34465Y1027922D01*
X30971Y1026862D01*
X27750Y1025140D01*
X24927Y1022823D01*
X22610Y1020000D01*
X20888Y1016779D01*
X19828Y1013285D01*
X19470Y1009650D01*
X19828Y1006015D01*
X20888Y1002521D01*
X22610Y999300D01*
X24927Y996477D01*
X27750Y994160D01*
X30971Y992438D01*
X34465Y991378D01*
X38100Y991020D01*
X41734Y991378D01*
X45229Y992438D01*
X48450Y994160D01*
X51273Y996477D01*
X53590Y999300D01*
X55312Y1002521D01*
X56372Y1006015D01*
X56730Y1009650D01*
X56372Y1013285D01*
X55312Y1016779D01*
X53590Y1020000D01*
X51273Y1022823D01*
X48450Y1025140D01*
X45229Y1026862D01*
X41734Y1027922D01*
X38100Y1028280D01*
D02*
G37*
G36*
X365559Y995680D02*
X356870D01*
Y986991D01*
X358221Y987168D01*
X360663Y988180D01*
X362761Y989789D01*
X364370Y991887D01*
X365382Y994329D01*
X365559Y995680D01*
D02*
G37*
G36*
X289359D02*
X280670D01*
Y986991D01*
X282021Y987168D01*
X284463Y988180D01*
X286561Y989789D01*
X288170Y991887D01*
X289182Y994329D01*
X289359Y995680D01*
D02*
G37*
G36*
X354330D02*
X345641D01*
X345818Y994329D01*
X346830Y991887D01*
X348439Y989789D01*
X350537Y988180D01*
X352979Y987168D01*
X354330Y986991D01*
Y995680D01*
D02*
G37*
G36*
X278130D02*
X269441D01*
X269618Y994329D01*
X270630Y991887D01*
X272239Y989789D01*
X274337Y988180D01*
X276779Y987168D01*
X278130Y986991D01*
Y995680D01*
D02*
G37*
G36*
X254000Y1032477D02*
X251379Y1032132D01*
X248937Y1031120D01*
X246839Y1029511D01*
X245230Y1027413D01*
X244218Y1024971D01*
X243873Y1022350D01*
X244218Y1019729D01*
X245230Y1017287D01*
X246314Y1015874D01*
Y1003426D01*
X245230Y1002013D01*
X244218Y999571D01*
X243873Y996950D01*
X244218Y994329D01*
X245230Y991887D01*
X246839Y989789D01*
X248937Y988180D01*
X251379Y987168D01*
X254000Y986823D01*
X256621Y987168D01*
X259063Y988180D01*
X261161Y989789D01*
X262770Y991887D01*
X263782Y994329D01*
X264127Y996950D01*
X263782Y999571D01*
X262770Y1002013D01*
X261686Y1003426D01*
Y1015874D01*
X262770Y1017287D01*
X263782Y1019729D01*
X264127Y1022350D01*
X263782Y1024971D01*
X262770Y1027413D01*
X261161Y1029511D01*
X259063Y1031120D01*
X256621Y1032132D01*
X254000Y1032477D01*
D02*
G37*
G36*
X177800D02*
X175179Y1032132D01*
X172737Y1031120D01*
X170639Y1029511D01*
X169030Y1027413D01*
X168018Y1024971D01*
X167673Y1022350D01*
X168018Y1019729D01*
X169030Y1017287D01*
X170114Y1015874D01*
Y1003426D01*
X169030Y1002013D01*
X168018Y999571D01*
X167673Y996950D01*
X168018Y994329D01*
X169030Y991887D01*
X170639Y989789D01*
X172737Y988180D01*
X175179Y987168D01*
X177800Y986823D01*
X180421Y987168D01*
X182863Y988180D01*
X184961Y989789D01*
X186570Y991887D01*
X187582Y994329D01*
X187927Y996950D01*
X187582Y999571D01*
X186570Y1002013D01*
X185486Y1003426D01*
Y1015874D01*
X186570Y1017287D01*
X187582Y1019729D01*
X187927Y1022350D01*
X187582Y1024971D01*
X186570Y1027413D01*
X184961Y1029511D01*
X182863Y1031120D01*
X180421Y1032132D01*
X177800Y1032477D01*
D02*
G37*
G36*
X152400D02*
X149779Y1032132D01*
X147337Y1031120D01*
X145239Y1029511D01*
X143630Y1027413D01*
X142618Y1024971D01*
X142273Y1022350D01*
X142618Y1019729D01*
X143630Y1017287D01*
X144714Y1015874D01*
Y1003426D01*
X143630Y1002013D01*
X142618Y999571D01*
X142273Y996950D01*
X142618Y994329D01*
X143630Y991887D01*
X145239Y989789D01*
X147337Y988180D01*
X149779Y987168D01*
X152400Y986823D01*
X155021Y987168D01*
X157463Y988180D01*
X159561Y989789D01*
X161170Y991887D01*
X162182Y994329D01*
X162527Y996950D01*
X162182Y999571D01*
X161170Y1002013D01*
X160086Y1003426D01*
Y1015874D01*
X161170Y1017287D01*
X162182Y1019729D01*
X162527Y1022350D01*
X162182Y1024971D01*
X161170Y1027413D01*
X159561Y1029511D01*
X157463Y1031120D01*
X155021Y1032132D01*
X152400Y1032477D01*
D02*
G37*
G36*
X520700Y1015580D02*
X517066Y1015222D01*
X513571Y1014162D01*
X510350Y1012440D01*
X507527Y1010123D01*
X505210Y1007300D01*
X503488Y1004079D01*
X502428Y1000584D01*
X502070Y996950D01*
X502428Y993316D01*
X503488Y989821D01*
X505210Y986600D01*
X507527Y983777D01*
X510350Y981460D01*
X513571Y979738D01*
X517066Y978678D01*
X520700Y978320D01*
X524334Y978678D01*
X527829Y979738D01*
X531050Y981460D01*
X533873Y983777D01*
X536190Y986600D01*
X537912Y989821D01*
X538972Y993316D01*
X539330Y996950D01*
X538972Y1000584D01*
X537912Y1004079D01*
X536190Y1007300D01*
X533873Y1010123D01*
X531050Y1012440D01*
X527829Y1014162D01*
X524334Y1015222D01*
X520700Y1015580D01*
D02*
G37*
G36*
X116332Y972654D02*
X101092D01*
X98440Y972305D01*
X95968Y971281D01*
X93846Y969652D01*
X92217Y967530D01*
X91704Y966291D01*
X60696D01*
X60183Y967530D01*
X58554Y969652D01*
X56432Y971281D01*
X53960Y972305D01*
X51308Y972654D01*
X36068D01*
X33416Y972305D01*
X30944Y971281D01*
X28822Y969652D01*
X27193Y967530D01*
X26680Y966291D01*
X22606D01*
X21119Y965995D01*
X19859Y965153D01*
X16303Y961597D01*
X15461Y960337D01*
X15165Y958850D01*
Y825500D01*
X15461Y824013D01*
X16303Y822753D01*
X22653Y816403D01*
X23913Y815561D01*
X25400Y815265D01*
X28842D01*
X29330Y814087D01*
X30939Y811989D01*
X33037Y810380D01*
X35479Y809368D01*
X38100Y809023D01*
X40721Y809368D01*
X43163Y810380D01*
X45261Y811989D01*
X46870Y814087D01*
X47882Y816529D01*
X48227Y819150D01*
X47882Y821771D01*
X46870Y824213D01*
X45261Y826311D01*
X43163Y827920D01*
X40721Y828932D01*
X38100Y829277D01*
X35479Y828932D01*
X33037Y827920D01*
X30939Y826311D01*
X29330Y824213D01*
X28842Y823035D01*
X27009D01*
X22935Y827109D01*
Y957241D01*
X24215Y958521D01*
X26680D01*
X27193Y957282D01*
X28822Y955160D01*
X30944Y953531D01*
X33416Y952507D01*
X36068Y952158D01*
X51308D01*
X53960Y952507D01*
X56432Y953531D01*
X58554Y955160D01*
X60183Y957282D01*
X60696Y958521D01*
X91704D01*
X92217Y957282D01*
X93846Y955160D01*
X95968Y953531D01*
X98440Y952507D01*
X101092Y952158D01*
X116332D01*
X118984Y952507D01*
X121456Y953531D01*
X123578Y955160D01*
X125207Y957282D01*
X126230Y959754D01*
X126580Y962406D01*
X126230Y965058D01*
X125207Y967530D01*
X123578Y969652D01*
X121456Y971281D01*
X118984Y972305D01*
X116332Y972654D01*
D02*
G37*
G36*
X635000Y974167D02*
X622300D01*
X619979Y973861D01*
X617817Y972965D01*
X615960Y971540D01*
X614535Y969683D01*
X613639Y967521D01*
X613333Y965200D01*
X613639Y962879D01*
X614535Y960717D01*
X615960Y958860D01*
X617817Y957435D01*
X619979Y956539D01*
X622300Y956233D01*
X635000D01*
X637321Y956539D01*
X639483Y957435D01*
X641340Y958860D01*
X642765Y960717D01*
X643661Y962879D01*
X643967Y965200D01*
X643661Y967521D01*
X642765Y969683D01*
X641340Y971540D01*
X639483Y972965D01*
X637321Y973861D01*
X635000Y974167D01*
D02*
G37*
G36*
X660400Y975327D02*
X657779Y974982D01*
X655337Y973970D01*
X653239Y972361D01*
X651630Y970263D01*
X650618Y967821D01*
X650273Y965200D01*
X650618Y962579D01*
X651630Y960137D01*
X653239Y958039D01*
X655337Y956430D01*
X657779Y955418D01*
X660400Y955073D01*
X663021Y955418D01*
X665463Y956430D01*
X667561Y958039D01*
X669170Y960137D01*
X670182Y962579D01*
X670527Y965200D01*
X670182Y967821D01*
X669170Y970263D01*
X667561Y972361D01*
X665463Y973970D01*
X663021Y974982D01*
X660400Y975327D01*
D02*
G37*
G36*
X530740Y968890D02*
X510660D01*
Y948810D01*
X530740D01*
Y968890D01*
D02*
G37*
G36*
X203200Y1032477D02*
X200579Y1032132D01*
X198137Y1031120D01*
X196039Y1029511D01*
X194430Y1027413D01*
X193418Y1024971D01*
X193073Y1022350D01*
X193418Y1019729D01*
X194430Y1017287D01*
X195514Y1015874D01*
Y1003426D01*
X194430Y1002013D01*
X193418Y999571D01*
X193073Y996950D01*
X193418Y994329D01*
X194430Y991887D01*
X196039Y989789D01*
X198137Y988180D01*
X199315Y987692D01*
Y985859D01*
X187753Y974297D01*
X186911Y973037D01*
X186615Y971550D01*
Y943685D01*
X147713D01*
X147465Y944283D01*
X146040Y946140D01*
X144183Y947565D01*
X142021Y948461D01*
X139700Y948767D01*
X137379Y948461D01*
X135217Y947565D01*
X133360Y946140D01*
X131935Y944283D01*
X131039Y942121D01*
X130733Y939800D01*
X131039Y937479D01*
X131935Y935317D01*
X133360Y933460D01*
X135217Y932035D01*
X137379Y931139D01*
X139700Y930833D01*
X142021Y931139D01*
X144183Y932035D01*
X146040Y933460D01*
X147465Y935317D01*
X147713Y935915D01*
X186615D01*
Y897013D01*
X186017Y896765D01*
X184160Y895340D01*
X182735Y893483D01*
X181839Y891321D01*
X181533Y889000D01*
Y876300D01*
X181839Y873979D01*
X182735Y871817D01*
X184160Y869960D01*
X186017Y868535D01*
X188179Y867639D01*
X190500Y867333D01*
X192821Y867639D01*
X194983Y868535D01*
X196840Y869960D01*
X198265Y871817D01*
X199161Y873979D01*
X199467Y876300D01*
Y889000D01*
X199161Y891321D01*
X198265Y893483D01*
X196840Y895340D01*
X194983Y896765D01*
X194385Y897013D01*
Y969941D01*
X205947Y981503D01*
X206789Y982763D01*
X207085Y984250D01*
Y987692D01*
X208263Y988180D01*
X210361Y989789D01*
X211970Y991887D01*
X212982Y994329D01*
X213327Y996950D01*
X212982Y999571D01*
X211970Y1002013D01*
X210886Y1003426D01*
Y1015874D01*
X211970Y1017287D01*
X212982Y1019729D01*
X213327Y1022350D01*
X212982Y1024971D01*
X211970Y1027413D01*
X210361Y1029511D01*
X208263Y1031120D01*
X205821Y1032132D01*
X203200Y1032477D01*
D02*
G37*
G36*
X558800Y948767D02*
X553720D01*
Y941070D01*
X567599D01*
X567461Y942121D01*
X566565Y944283D01*
X565140Y946140D01*
X563283Y947565D01*
X561121Y948461D01*
X558800Y948767D01*
D02*
G37*
G36*
X551180D02*
X546100D01*
X543779Y948461D01*
X541617Y947565D01*
X539760Y946140D01*
X538335Y944283D01*
X537439Y942121D01*
X537300Y941070D01*
X551180D01*
Y948767D01*
D02*
G37*
G36*
X635000D02*
X622300D01*
X619979Y948461D01*
X617817Y947565D01*
X615960Y946140D01*
X614535Y944283D01*
X613639Y942121D01*
X613333Y939800D01*
X613639Y937479D01*
X614535Y935317D01*
X615960Y933460D01*
X617817Y932035D01*
X619979Y931139D01*
X622300Y930833D01*
X635000D01*
X637321Y931139D01*
X639483Y932035D01*
X641340Y933460D01*
X642765Y935317D01*
X643661Y937479D01*
X643967Y939800D01*
X643661Y942121D01*
X642765Y944283D01*
X641340Y946140D01*
X639483Y947565D01*
X637321Y948461D01*
X635000Y948767D01*
D02*
G37*
G36*
X567599Y938530D02*
X553720D01*
Y930833D01*
X558800D01*
X561121Y931139D01*
X563283Y932035D01*
X565140Y933460D01*
X566565Y935317D01*
X567461Y937479D01*
X567599Y938530D01*
D02*
G37*
G36*
X551180D02*
X537300D01*
X537439Y937479D01*
X538335Y935317D01*
X539760Y933460D01*
X541617Y932035D01*
X543779Y931139D01*
X546100Y930833D01*
X551180D01*
Y938530D01*
D02*
G37*
G36*
X660400Y949927D02*
X657779Y949582D01*
X655337Y948570D01*
X653239Y946961D01*
X651630Y944863D01*
X650618Y942421D01*
X650273Y939800D01*
X650618Y937179D01*
X651630Y934737D01*
X653239Y932639D01*
X655337Y931030D01*
X657779Y930018D01*
X660400Y929673D01*
X663021Y930018D01*
X665463Y931030D01*
X667561Y932639D01*
X669170Y934737D01*
X670182Y937179D01*
X670527Y939800D01*
X670182Y942421D01*
X669170Y944863D01*
X667561Y946961D01*
X665463Y948570D01*
X663021Y949582D01*
X660400Y949927D01*
D02*
G37*
G36*
X520700Y943577D02*
X518079Y943232D01*
X515637Y942220D01*
X513539Y940611D01*
X511930Y938513D01*
X510918Y936071D01*
X510573Y933450D01*
X510918Y930829D01*
X511930Y928387D01*
X513539Y926289D01*
X515637Y924680D01*
X518079Y923668D01*
X520700Y923323D01*
X523321Y923668D01*
X525763Y924680D01*
X527861Y926289D01*
X529470Y928387D01*
X530482Y930829D01*
X530827Y933450D01*
X530482Y936071D01*
X529470Y938513D01*
X527861Y940611D01*
X525763Y942220D01*
X523321Y943232D01*
X520700Y943577D01*
D02*
G37*
G36*
X116332Y927442D02*
X109982D01*
Y918464D01*
X126412D01*
X126230Y919846D01*
X125207Y922318D01*
X123578Y924440D01*
X121456Y926069D01*
X118984Y927093D01*
X116332Y927442D01*
D02*
G37*
G36*
X51308D02*
X44958D01*
Y918464D01*
X61389D01*
X61206Y919846D01*
X60183Y922318D01*
X58554Y924440D01*
X56432Y926069D01*
X53960Y927093D01*
X51308Y927442D01*
D02*
G37*
G36*
X107442D02*
X101092D01*
X98440Y927093D01*
X95968Y926069D01*
X93846Y924440D01*
X92217Y922318D01*
X91194Y919846D01*
X91011Y918464D01*
X107442D01*
Y927442D01*
D02*
G37*
G36*
X42418D02*
X36068D01*
X33416Y927093D01*
X30944Y926069D01*
X28822Y924440D01*
X27193Y922318D01*
X26170Y919846D01*
X25988Y918464D01*
X42418D01*
Y927442D01*
D02*
G37*
G36*
X126412Y915924D02*
X109982D01*
Y906946D01*
X116332D01*
X118984Y907296D01*
X121456Y908319D01*
X123578Y909948D01*
X125207Y912070D01*
X126230Y914542D01*
X126412Y915924D01*
D02*
G37*
G36*
X107442D02*
X91011D01*
X91194Y914542D01*
X92217Y912070D01*
X93846Y909948D01*
X95968Y908319D01*
X98440Y907296D01*
X101092Y906946D01*
X107442D01*
Y915924D01*
D02*
G37*
G36*
X61389D02*
X44958D01*
Y906946D01*
X51308D01*
X53960Y907296D01*
X56432Y908319D01*
X58554Y909948D01*
X60183Y912070D01*
X61206Y914542D01*
X61389Y915924D01*
D02*
G37*
G36*
X42418D02*
X25988D01*
X26170Y914542D01*
X27193Y912070D01*
X28822Y909948D01*
X30944Y908319D01*
X33416Y907296D01*
X36068Y906946D01*
X42418D01*
Y915924D01*
D02*
G37*
G36*
X635000Y923367D02*
X622300D01*
X619979Y923061D01*
X617817Y922165D01*
X615960Y920740D01*
X614535Y918883D01*
X613639Y916721D01*
X613333Y914400D01*
X613639Y912079D01*
X614535Y909917D01*
X615960Y908060D01*
X617817Y906635D01*
X619979Y905739D01*
X622300Y905433D01*
X635000D01*
X637321Y905739D01*
X639483Y906635D01*
X641340Y908060D01*
X642765Y909917D01*
X643661Y912079D01*
X643967Y914400D01*
X643661Y916721D01*
X642765Y918883D01*
X641340Y920740D01*
X639483Y922165D01*
X637321Y923061D01*
X635000Y923367D01*
D02*
G37*
G36*
X660400Y924527D02*
X657779Y924182D01*
X655337Y923170D01*
X653239Y921561D01*
X651630Y919463D01*
X650618Y917021D01*
X650273Y914400D01*
X650618Y911779D01*
X651630Y909337D01*
X653239Y907239D01*
X655337Y905630D01*
X657779Y904618D01*
X660400Y904273D01*
X663021Y904618D01*
X665463Y905630D01*
X667561Y907239D01*
X669170Y909337D01*
X670182Y911779D01*
X670527Y914400D01*
X670182Y917021D01*
X669170Y919463D01*
X667561Y921561D01*
X665463Y923170D01*
X663021Y924182D01*
X660400Y924527D01*
D02*
G37*
G36*
X520700Y918177D02*
X518079Y917832D01*
X515637Y916820D01*
X513539Y915211D01*
X511930Y913113D01*
X510918Y910671D01*
X510573Y908050D01*
X510918Y905429D01*
X511930Y902987D01*
X513539Y900889D01*
X515637Y899280D01*
X518079Y898268D01*
X520700Y897923D01*
X523321Y898268D01*
X525763Y899280D01*
X527861Y900889D01*
X529470Y902987D01*
X530482Y905429D01*
X530827Y908050D01*
X530482Y910671D01*
X529470Y913113D01*
X527861Y915211D01*
X525763Y916820D01*
X523321Y917832D01*
X520700Y918177D01*
D02*
G37*
G36*
X558800Y897967D02*
X553720D01*
Y890270D01*
X567599D01*
X567461Y891321D01*
X566565Y893483D01*
X565140Y895340D01*
X563283Y896765D01*
X561121Y897661D01*
X558800Y897967D01*
D02*
G37*
G36*
X551180D02*
X546100D01*
X543779Y897661D01*
X541617Y896765D01*
X539760Y895340D01*
X538335Y893483D01*
X537439Y891321D01*
X537300Y890270D01*
X551180D01*
Y897967D01*
D02*
G37*
G36*
X445861Y897800D02*
Y883920D01*
X453558D01*
Y889000D01*
X453252Y891321D01*
X452356Y893483D01*
X450931Y895340D01*
X449074Y896765D01*
X446912Y897661D01*
X445861Y897800D01*
D02*
G37*
G36*
X382361D02*
Y883920D01*
X390058D01*
Y889000D01*
X389752Y891321D01*
X388856Y893483D01*
X387431Y895340D01*
X385574Y896765D01*
X383412Y897661D01*
X382361Y897800D01*
D02*
G37*
G36*
X318770D02*
Y883920D01*
X326467D01*
Y889000D01*
X326161Y891321D01*
X325265Y893483D01*
X323840Y895340D01*
X321983Y896765D01*
X319821Y897661D01*
X318770Y897800D01*
D02*
G37*
G36*
X267970D02*
Y883920D01*
X275667D01*
Y889000D01*
X275361Y891321D01*
X274465Y893483D01*
X273040Y895340D01*
X271183Y896765D01*
X269021Y897661D01*
X267970Y897800D01*
D02*
G37*
G36*
X217170D02*
Y883920D01*
X224867D01*
Y889000D01*
X224561Y891321D01*
X223665Y893483D01*
X222240Y895340D01*
X220383Y896765D01*
X218221Y897661D01*
X217170Y897800D01*
D02*
G37*
G36*
X166370D02*
Y883920D01*
X174067D01*
Y889000D01*
X173761Y891321D01*
X172865Y893483D01*
X171440Y895340D01*
X169583Y896765D01*
X167421Y897661D01*
X166370Y897800D01*
D02*
G37*
G36*
X443321D02*
X442270Y897661D01*
X440108Y896765D01*
X438251Y895340D01*
X436825Y893483D01*
X435930Y891321D01*
X435624Y889000D01*
Y883920D01*
X443321D01*
Y897800D01*
D02*
G37*
G36*
X379821D02*
X378770Y897661D01*
X376608Y896765D01*
X374751Y895340D01*
X373326Y893483D01*
X372430Y891321D01*
X372124Y889000D01*
Y883920D01*
X379821D01*
Y897800D01*
D02*
G37*
G36*
X316230D02*
X315179Y897661D01*
X313017Y896765D01*
X311160Y895340D01*
X309735Y893483D01*
X308839Y891321D01*
X308533Y889000D01*
Y883920D01*
X316230D01*
Y897800D01*
D02*
G37*
G36*
X265430D02*
X264379Y897661D01*
X262217Y896765D01*
X260360Y895340D01*
X258935Y893483D01*
X258039Y891321D01*
X257733Y889000D01*
Y883920D01*
X265430D01*
Y897800D01*
D02*
G37*
G36*
X214630D02*
X213579Y897661D01*
X211417Y896765D01*
X209560Y895340D01*
X208135Y893483D01*
X207239Y891321D01*
X206933Y889000D01*
Y883920D01*
X214630D01*
Y897800D01*
D02*
G37*
G36*
X163830D02*
X162779Y897661D01*
X160617Y896765D01*
X158760Y895340D01*
X157335Y893483D01*
X156439Y891321D01*
X156133Y889000D01*
Y883920D01*
X163830D01*
Y897800D01*
D02*
G37*
G36*
X635000Y897967D02*
X622300D01*
X619979Y897661D01*
X617817Y896765D01*
X615960Y895340D01*
X614535Y893483D01*
X613639Y891321D01*
X613333Y889000D01*
X613639Y886679D01*
X614535Y884517D01*
X615960Y882660D01*
X617817Y881235D01*
X619979Y880339D01*
X622300Y880033D01*
X635000D01*
X637321Y880339D01*
X639483Y881235D01*
X641340Y882660D01*
X642765Y884517D01*
X643661Y886679D01*
X643967Y889000D01*
X643661Y891321D01*
X642765Y893483D01*
X641340Y895340D01*
X639483Y896765D01*
X637321Y897661D01*
X635000Y897967D01*
D02*
G37*
G36*
X567599Y887730D02*
X553720D01*
Y880033D01*
X558800D01*
X561121Y880339D01*
X563283Y881235D01*
X565140Y882660D01*
X566565Y884517D01*
X567461Y886679D01*
X567599Y887730D01*
D02*
G37*
G36*
X551180D02*
X537300D01*
X537439Y886679D01*
X538335Y884517D01*
X539760Y882660D01*
X541617Y881235D01*
X543779Y880339D01*
X546100Y880033D01*
X551180D01*
Y887730D01*
D02*
G37*
G36*
X670440Y899040D02*
X650360D01*
Y878960D01*
X670440D01*
Y899040D01*
D02*
G37*
G36*
X520700Y892777D02*
X518079Y892432D01*
X515637Y891420D01*
X513539Y889811D01*
X511930Y887713D01*
X510918Y885271D01*
X510573Y882650D01*
X510918Y880029D01*
X511930Y877587D01*
X513539Y875489D01*
X515637Y873880D01*
X518079Y872868D01*
X520700Y872523D01*
X523321Y872868D01*
X525763Y873880D01*
X527861Y875489D01*
X529470Y877587D01*
X530482Y880029D01*
X530827Y882650D01*
X530482Y885271D01*
X529470Y887713D01*
X527861Y889811D01*
X525763Y891420D01*
X523321Y892432D01*
X520700Y892777D01*
D02*
G37*
G36*
X453558Y881380D02*
X445861D01*
Y867501D01*
X446912Y867639D01*
X449074Y868535D01*
X450931Y869960D01*
X452356Y871817D01*
X453252Y873979D01*
X453558Y876300D01*
Y881380D01*
D02*
G37*
G36*
X390058D02*
X382361D01*
Y867501D01*
X383412Y867639D01*
X385574Y868535D01*
X387431Y869960D01*
X388856Y871817D01*
X389752Y873979D01*
X390058Y876300D01*
Y881380D01*
D02*
G37*
G36*
X326467D02*
X318770D01*
Y867501D01*
X319821Y867639D01*
X321983Y868535D01*
X323840Y869960D01*
X325265Y871817D01*
X326161Y873979D01*
X326467Y876300D01*
Y881380D01*
D02*
G37*
G36*
X275667D02*
X267970D01*
Y867501D01*
X269021Y867639D01*
X271183Y868535D01*
X273040Y869960D01*
X274465Y871817D01*
X275361Y873979D01*
X275667Y876300D01*
Y881380D01*
D02*
G37*
G36*
X224867D02*
X217170D01*
Y867501D01*
X218221Y867639D01*
X220383Y868535D01*
X222240Y869960D01*
X223665Y871817D01*
X224561Y873979D01*
X224867Y876300D01*
Y881380D01*
D02*
G37*
G36*
X174067D02*
X166370D01*
Y867501D01*
X167421Y867639D01*
X169583Y868535D01*
X171440Y869960D01*
X172865Y871817D01*
X173761Y873979D01*
X174067Y876300D01*
Y881380D01*
D02*
G37*
G36*
X443321D02*
X435624D01*
Y876300D01*
X435930Y873979D01*
X436825Y871817D01*
X438251Y869960D01*
X440108Y868535D01*
X442270Y867639D01*
X443321Y867501D01*
Y881380D01*
D02*
G37*
G36*
X379821D02*
X372124D01*
Y876300D01*
X372430Y873979D01*
X373326Y871817D01*
X374751Y869960D01*
X376608Y868535D01*
X378770Y867639D01*
X379821Y867501D01*
Y881380D01*
D02*
G37*
G36*
X265430D02*
X257733D01*
Y876300D01*
X258039Y873979D01*
X258935Y871817D01*
X260360Y869960D01*
X262217Y868535D01*
X264379Y867639D01*
X265430Y867501D01*
Y881380D01*
D02*
G37*
G36*
X214630D02*
X206933D01*
Y876300D01*
X207239Y873979D01*
X208135Y871817D01*
X209560Y869960D01*
X211417Y868535D01*
X213579Y867639D01*
X214630Y867501D01*
Y881380D01*
D02*
G37*
G36*
X316230D02*
X308533D01*
Y876300D01*
X308839Y873979D01*
X309735Y871817D01*
X311160Y869960D01*
X313017Y868535D01*
X315179Y867639D01*
X316230Y867501D01*
Y881380D01*
D02*
G37*
G36*
X163830D02*
X156133D01*
Y876300D01*
X156439Y873979D01*
X157335Y871817D01*
X158760Y869960D01*
X160617Y868535D01*
X162779Y867639D01*
X163830Y867501D01*
Y881380D01*
D02*
G37*
G36*
X419191Y897967D02*
X416870Y897661D01*
X414708Y896765D01*
X412850Y895340D01*
X411426Y893483D01*
X410530Y891321D01*
X410224Y889000D01*
Y876300D01*
X410530Y873979D01*
X411426Y871817D01*
X412850Y869960D01*
X414708Y868535D01*
X416870Y867639D01*
X419191Y867333D01*
X421512Y867639D01*
X423674Y868535D01*
X425531Y869960D01*
X426956Y871817D01*
X427852Y873979D01*
X428158Y876300D01*
Y889000D01*
X427852Y891321D01*
X426956Y893483D01*
X425531Y895340D01*
X423674Y896765D01*
X421512Y897661D01*
X419191Y897967D01*
D02*
G37*
G36*
X355691D02*
X353370Y897661D01*
X351208Y896765D01*
X349351Y895340D01*
X347925Y893483D01*
X347030Y891321D01*
X346724Y889000D01*
Y876300D01*
X347030Y873979D01*
X347925Y871817D01*
X349351Y869960D01*
X351208Y868535D01*
X353370Y867639D01*
X355691Y867333D01*
X358012Y867639D01*
X360174Y868535D01*
X362031Y869960D01*
X363456Y871817D01*
X364352Y873979D01*
X364658Y876300D01*
Y889000D01*
X364352Y891321D01*
X363456Y893483D01*
X362031Y895340D01*
X360174Y896765D01*
X358012Y897661D01*
X355691Y897967D01*
D02*
G37*
G36*
X292100D02*
X289779Y897661D01*
X287617Y896765D01*
X285760Y895340D01*
X284335Y893483D01*
X283439Y891321D01*
X283133Y889000D01*
Y876300D01*
X283439Y873979D01*
X284335Y871817D01*
X285760Y869960D01*
X287617Y868535D01*
X289779Y867639D01*
X292100Y867333D01*
X294421Y867639D01*
X296583Y868535D01*
X298440Y869960D01*
X299865Y871817D01*
X300761Y873979D01*
X301067Y876300D01*
Y889000D01*
X300761Y891321D01*
X299865Y893483D01*
X298440Y895340D01*
X296583Y896765D01*
X294421Y897661D01*
X292100Y897967D01*
D02*
G37*
G36*
X228600Y1032477D02*
X225979Y1032132D01*
X223537Y1031120D01*
X221439Y1029511D01*
X219830Y1027413D01*
X218818Y1024971D01*
X218473Y1022350D01*
X218818Y1019729D01*
X219830Y1017287D01*
X220914Y1015874D01*
Y1003426D01*
X219830Y1002013D01*
X218818Y999571D01*
X218473Y996950D01*
X218818Y994329D01*
X219830Y991887D01*
X221439Y989789D01*
X223537Y988180D01*
X224715Y987692D01*
Y984250D01*
X225011Y982763D01*
X225853Y981503D01*
X237415Y969941D01*
Y897013D01*
X236817Y896765D01*
X234960Y895340D01*
X233535Y893483D01*
X232639Y891321D01*
X232333Y889000D01*
Y876300D01*
X232639Y873979D01*
X233535Y871817D01*
X234960Y869960D01*
X236817Y868535D01*
X238979Y867639D01*
X241300Y867333D01*
X243621Y867639D01*
X245783Y868535D01*
X247640Y869960D01*
X249065Y871817D01*
X249961Y873979D01*
X250267Y876300D01*
Y889000D01*
X249961Y891321D01*
X249065Y893483D01*
X247640Y895340D01*
X245783Y896765D01*
X245185Y897013D01*
Y971550D01*
X244889Y973037D01*
X244047Y974297D01*
X232485Y985859D01*
Y987692D01*
X233663Y988180D01*
X235761Y989789D01*
X237370Y991887D01*
X238382Y994329D01*
X238727Y996950D01*
X238382Y999571D01*
X237370Y1002013D01*
X236286Y1003426D01*
Y1015874D01*
X237370Y1017287D01*
X238382Y1019729D01*
X238727Y1022350D01*
X238382Y1024971D01*
X237370Y1027413D01*
X235761Y1029511D01*
X233663Y1031120D01*
X231221Y1032132D01*
X228600Y1032477D01*
D02*
G37*
G36*
X139700Y897967D02*
X137379Y897661D01*
X135217Y896765D01*
X133360Y895340D01*
X131935Y893483D01*
X131039Y891321D01*
X130733Y889000D01*
Y876300D01*
X131039Y873979D01*
X131935Y871817D01*
X133360Y869960D01*
X135217Y868535D01*
X137379Y867639D01*
X139700Y867333D01*
X142021Y867639D01*
X144183Y868535D01*
X146040Y869960D01*
X147465Y871817D01*
X148361Y873979D01*
X148667Y876300D01*
Y889000D01*
X148361Y891321D01*
X147465Y893483D01*
X146040Y895340D01*
X144183Y896765D01*
X142021Y897661D01*
X139700Y897967D01*
D02*
G37*
G36*
X48140Y879990D02*
X28060D01*
Y859910D01*
X48140D01*
Y879990D01*
D02*
G37*
G36*
X520700Y867377D02*
X518079Y867032D01*
X515637Y866020D01*
X513539Y864411D01*
X511930Y862313D01*
X510918Y859871D01*
X510573Y857250D01*
X510918Y854629D01*
X511930Y852187D01*
X513539Y850089D01*
X515637Y848480D01*
X518079Y847468D01*
X520700Y847123D01*
X523321Y847468D01*
X525763Y848480D01*
X527861Y850089D01*
X529470Y852187D01*
X530482Y854629D01*
X530629Y855749D01*
X530639Y855763D01*
X530935Y857250D01*
X530639Y858737D01*
X530629Y858752D01*
X530482Y859871D01*
X529470Y862313D01*
X527861Y864411D01*
X525763Y866020D01*
X523321Y867032D01*
X520700Y867377D01*
D02*
G37*
G36*
Y841977D02*
X518079Y841632D01*
X515637Y840620D01*
X513539Y839011D01*
X511930Y836913D01*
X511442Y835735D01*
X477913D01*
X477665Y836333D01*
X476240Y838190D01*
X474383Y839615D01*
X472221Y840511D01*
X469900Y840817D01*
X467579Y840511D01*
X465417Y839615D01*
X463560Y838190D01*
X462135Y836333D01*
X461239Y834171D01*
X460933Y831850D01*
X461239Y829529D01*
X462135Y827367D01*
X463560Y825510D01*
X465417Y824085D01*
X467579Y823189D01*
X469900Y822883D01*
X472221Y823189D01*
X474383Y824085D01*
X476240Y825510D01*
X477665Y827367D01*
X477913Y827965D01*
X511442D01*
X511930Y826787D01*
X513539Y824689D01*
X515637Y823080D01*
X518079Y822068D01*
X520700Y821723D01*
X523321Y822068D01*
X525763Y823080D01*
X527861Y824689D01*
X529470Y826787D01*
X530482Y829229D01*
X530827Y831850D01*
X530482Y834471D01*
X529470Y836913D01*
X527861Y839011D01*
X525763Y840620D01*
X523321Y841632D01*
X520700Y841977D01*
D02*
G37*
G36*
X38100Y854677D02*
X35479Y854332D01*
X33037Y853320D01*
X30939Y851711D01*
X29330Y849613D01*
X28318Y847171D01*
X27973Y844550D01*
X28318Y841929D01*
X29330Y839487D01*
X30939Y837389D01*
X33037Y835780D01*
X35479Y834768D01*
X38100Y834423D01*
X40721Y834768D01*
X43163Y835780D01*
X45261Y837389D01*
X46870Y839487D01*
X47882Y841929D01*
X48227Y844550D01*
X47882Y847171D01*
X46870Y849613D01*
X45261Y851711D01*
X43163Y853320D01*
X40721Y854332D01*
X38100Y854677D01*
D02*
G37*
G36*
X558800Y923367D02*
X546100D01*
X543779Y923061D01*
X541617Y922165D01*
X539760Y920740D01*
X538335Y918883D01*
X537439Y916721D01*
X537133Y914400D01*
X537439Y912079D01*
X538335Y909917D01*
X539760Y908060D01*
X541617Y906635D01*
X543779Y905739D01*
X546100Y905433D01*
X558800D01*
X561121Y905739D01*
X563283Y906635D01*
X565140Y908060D01*
X566565Y909917D01*
X566776Y910424D01*
X569982D01*
X580315Y900091D01*
Y865209D01*
X563146Y848040D01*
X548260D01*
Y832960D01*
X569340D01*
Y843246D01*
X586947Y860853D01*
X587789Y862113D01*
X588085Y863600D01*
Y901700D01*
X587789Y903187D01*
X586947Y904447D01*
X574338Y917056D01*
X573078Y917898D01*
X571591Y918194D01*
X566851D01*
X566565Y918883D01*
X565140Y920740D01*
X563283Y922165D01*
X561121Y923061D01*
X558800Y923367D01*
D02*
G37*
G36*
X520700Y816577D02*
X518079Y816232D01*
X515637Y815220D01*
X513539Y813611D01*
X511930Y811513D01*
X511442Y810335D01*
X490613D01*
X490365Y810933D01*
X488940Y812790D01*
X487083Y814215D01*
X484921Y815111D01*
X482600Y815417D01*
X480279Y815111D01*
X478117Y814215D01*
X476260Y812790D01*
X474835Y810933D01*
X473939Y808771D01*
X473633Y806450D01*
X473939Y804129D01*
X474835Y801967D01*
X476260Y800110D01*
X478117Y798685D01*
X480279Y797789D01*
X482600Y797483D01*
X484921Y797789D01*
X487083Y798685D01*
X488940Y800110D01*
X490365Y801967D01*
X490613Y802565D01*
X511442D01*
X511930Y801387D01*
X513539Y799289D01*
X515637Y797680D01*
X518079Y796668D01*
X520700Y796323D01*
X523321Y796668D01*
X525763Y797680D01*
X527861Y799289D01*
X529470Y801387D01*
X530482Y803829D01*
X530827Y806450D01*
X530482Y809071D01*
X529470Y811513D01*
X527861Y813611D01*
X525763Y815220D01*
X523321Y816232D01*
X520700Y816577D01*
D02*
G37*
G36*
X445861Y821600D02*
Y807720D01*
X453558D01*
Y812800D01*
X453252Y815121D01*
X452356Y817283D01*
X450931Y819140D01*
X449074Y820565D01*
X446912Y821461D01*
X445861Y821600D01*
D02*
G37*
G36*
X382361D02*
Y807720D01*
X390058D01*
Y812800D01*
X389752Y815121D01*
X388856Y817283D01*
X387431Y819140D01*
X385574Y820565D01*
X383412Y821461D01*
X382361Y821600D01*
D02*
G37*
G36*
X318770D02*
Y807720D01*
X326467D01*
Y812800D01*
X326161Y815121D01*
X325265Y817283D01*
X323840Y819140D01*
X321983Y820565D01*
X319821Y821461D01*
X318770Y821600D01*
D02*
G37*
G36*
X267970D02*
Y807720D01*
X275667D01*
Y812800D01*
X275361Y815121D01*
X274465Y817283D01*
X273040Y819140D01*
X271183Y820565D01*
X269021Y821461D01*
X267970Y821600D01*
D02*
G37*
G36*
X217170D02*
Y807720D01*
X224867D01*
Y812800D01*
X224561Y815121D01*
X223665Y817283D01*
X222240Y819140D01*
X220383Y820565D01*
X218221Y821461D01*
X217170Y821600D01*
D02*
G37*
G36*
X166370D02*
Y807720D01*
X174067D01*
Y812800D01*
X173761Y815121D01*
X172865Y817283D01*
X171440Y819140D01*
X169583Y820565D01*
X167421Y821461D01*
X166370Y821600D01*
D02*
G37*
G36*
X443321D02*
X442270Y821461D01*
X440108Y820565D01*
X438251Y819140D01*
X436825Y817283D01*
X435930Y815121D01*
X435624Y812800D01*
Y807720D01*
X443321D01*
Y821600D01*
D02*
G37*
G36*
X379821D02*
X378770Y821461D01*
X376608Y820565D01*
X374751Y819140D01*
X373326Y817283D01*
X372430Y815121D01*
X372124Y812800D01*
Y807720D01*
X379821D01*
Y821600D01*
D02*
G37*
G36*
X316230D02*
X315179Y821461D01*
X313017Y820565D01*
X311160Y819140D01*
X309735Y817283D01*
X308839Y815121D01*
X308533Y812800D01*
Y807720D01*
X316230D01*
Y821600D01*
D02*
G37*
G36*
X265430D02*
X264379Y821461D01*
X262217Y820565D01*
X260360Y819140D01*
X258935Y817283D01*
X258039Y815121D01*
X257733Y812800D01*
Y807720D01*
X265430D01*
Y821600D01*
D02*
G37*
G36*
X214630D02*
X213579Y821461D01*
X211417Y820565D01*
X209560Y819140D01*
X208135Y817283D01*
X207239Y815121D01*
X206933Y812800D01*
Y807720D01*
X214630D01*
Y821600D01*
D02*
G37*
G36*
X163830D02*
X162779Y821461D01*
X160617Y820565D01*
X158760Y819140D01*
X157335Y817283D01*
X156439Y815121D01*
X156133Y812800D01*
Y807720D01*
X163830D01*
Y821600D01*
D02*
G37*
G36*
X453558Y805180D02*
X445861D01*
Y791301D01*
X446912Y791439D01*
X449074Y792335D01*
X450931Y793760D01*
X452356Y795617D01*
X453252Y797779D01*
X453558Y800100D01*
Y805180D01*
D02*
G37*
G36*
X390058D02*
X382361D01*
Y791301D01*
X383412Y791439D01*
X385574Y792335D01*
X387431Y793760D01*
X388856Y795617D01*
X389752Y797779D01*
X390058Y800100D01*
Y805180D01*
D02*
G37*
G36*
X326467D02*
X318770D01*
Y791301D01*
X319821Y791439D01*
X321983Y792335D01*
X323840Y793760D01*
X325265Y795617D01*
X326161Y797779D01*
X326467Y800100D01*
Y805180D01*
D02*
G37*
G36*
X275667D02*
X267970D01*
Y791301D01*
X269021Y791439D01*
X271183Y792335D01*
X273040Y793760D01*
X274465Y795617D01*
X275361Y797779D01*
X275667Y800100D01*
Y805180D01*
D02*
G37*
G36*
X224867D02*
X217170D01*
Y791301D01*
X218221Y791439D01*
X220383Y792335D01*
X222240Y793760D01*
X223665Y795617D01*
X224561Y797779D01*
X224867Y800100D01*
Y805180D01*
D02*
G37*
G36*
X174067D02*
X166370D01*
Y791301D01*
X167421Y791439D01*
X169583Y792335D01*
X171440Y793760D01*
X172865Y795617D01*
X173761Y797779D01*
X174067Y800100D01*
Y805180D01*
D02*
G37*
G36*
X443321D02*
X435624D01*
Y800100D01*
X435930Y797779D01*
X436825Y795617D01*
X438251Y793760D01*
X440108Y792335D01*
X442270Y791439D01*
X443321Y791301D01*
Y805180D01*
D02*
G37*
G36*
X379821D02*
X372124D01*
Y800100D01*
X372430Y797779D01*
X373326Y795617D01*
X374751Y793760D01*
X376608Y792335D01*
X378770Y791439D01*
X379821Y791301D01*
Y805180D01*
D02*
G37*
G36*
X265430D02*
X257733D01*
Y800100D01*
X258039Y797779D01*
X258935Y795617D01*
X260360Y793760D01*
X262217Y792335D01*
X264379Y791439D01*
X265430Y791301D01*
Y805180D01*
D02*
G37*
G36*
X316230D02*
X308533D01*
Y800100D01*
X308839Y797779D01*
X309735Y795617D01*
X311160Y793760D01*
X313017Y792335D01*
X315179Y791439D01*
X316230Y791301D01*
Y805180D01*
D02*
G37*
G36*
X214630D02*
X206933D01*
Y800100D01*
X207239Y797779D01*
X208135Y795617D01*
X209560Y793760D01*
X211417Y792335D01*
X213579Y791439D01*
X214630Y791301D01*
Y805180D01*
D02*
G37*
G36*
X163830D02*
X156133D01*
Y800100D01*
X156439Y797779D01*
X157335Y795617D01*
X158760Y793760D01*
X160617Y792335D01*
X162779Y791439D01*
X163830Y791301D01*
Y805180D01*
D02*
G37*
G36*
X520700Y791177D02*
X518079Y790832D01*
X515637Y789820D01*
X513539Y788211D01*
X511930Y786113D01*
X511442Y784935D01*
X503313D01*
X503065Y785533D01*
X501640Y787390D01*
X499783Y788815D01*
X497621Y789711D01*
X495300Y790017D01*
X492979Y789711D01*
X490817Y788815D01*
X488960Y787390D01*
X487535Y785533D01*
X486639Y783371D01*
X486333Y781050D01*
X486639Y778729D01*
X487535Y776567D01*
X488960Y774710D01*
X490817Y773285D01*
X492979Y772389D01*
X495300Y772083D01*
X497621Y772389D01*
X499783Y773285D01*
X501640Y774710D01*
X503065Y776567D01*
X503313Y777165D01*
X511442D01*
X511930Y775987D01*
X513539Y773889D01*
X515637Y772280D01*
X518079Y771268D01*
X520700Y770923D01*
X523321Y771268D01*
X525763Y772280D01*
X527861Y773889D01*
X529470Y775987D01*
X530482Y778429D01*
X530827Y781050D01*
X530482Y783671D01*
X529470Y786113D01*
X527861Y788211D01*
X525763Y789820D01*
X523321Y790832D01*
X520700Y791177D01*
D02*
G37*
G36*
X567690Y974090D02*
X537210D01*
Y956310D01*
X567690D01*
Y961315D01*
X582591D01*
X593015Y950891D01*
Y797659D01*
X586246Y790890D01*
X573660D01*
Y775810D01*
X594740D01*
Y788397D01*
X599647Y793303D01*
X600489Y794564D01*
X600621Y795228D01*
X601316Y795451D01*
X601961Y795452D01*
X603260Y793760D01*
X605117Y792335D01*
X607279Y791439D01*
X609600Y791133D01*
X611921Y791439D01*
X614083Y792335D01*
X615940Y793760D01*
X617365Y795617D01*
X618261Y797779D01*
X618567Y800100D01*
X618269Y802360D01*
X624177Y808268D01*
X662474D01*
X672509Y798232D01*
Y784261D01*
X692890D01*
Y804642D01*
X678918D01*
X667555Y816005D01*
X666085Y816987D01*
X664351Y817332D01*
X622300D01*
X622300Y817332D01*
X620566Y816987D01*
X619095Y816005D01*
X619095Y816005D01*
X611860Y808769D01*
X609600Y809067D01*
X607279Y808761D01*
X605117Y807865D01*
X603260Y806440D01*
X602055Y804870D01*
X600785Y805198D01*
Y952500D01*
X600489Y953987D01*
X599647Y955247D01*
X586947Y967947D01*
X585687Y968789D01*
X584200Y969085D01*
X567690D01*
Y974090D01*
D02*
G37*
G36*
X652700Y804730D02*
X650040Y804379D01*
X647561Y803353D01*
X645432Y801719D01*
X643798Y799591D01*
X642772Y797112D01*
X642421Y794451D01*
X642772Y791791D01*
X643798Y789312D01*
X645432Y787183D01*
X647561Y785550D01*
X650040Y784523D01*
X652700Y784173D01*
X655360Y784523D01*
X657839Y785550D01*
X659968Y787183D01*
X661601Y789312D01*
X662628Y791791D01*
X662978Y794451D01*
X662628Y797112D01*
X661601Y799591D01*
X659968Y801719D01*
X657839Y803353D01*
X655360Y804379D01*
X652700Y804730D01*
D02*
G37*
G36*
X38100Y803877D02*
X35479Y803532D01*
X33037Y802520D01*
X30939Y800911D01*
X29330Y798813D01*
X28318Y796371D01*
X27973Y793750D01*
X28318Y791129D01*
X29330Y788687D01*
X30939Y786589D01*
X33037Y784980D01*
X35479Y783968D01*
X38100Y783623D01*
X40721Y783968D01*
X43163Y784980D01*
X45261Y786589D01*
X46870Y788687D01*
X47882Y791129D01*
X48227Y793750D01*
X47882Y796371D01*
X46870Y798813D01*
X45261Y800911D01*
X43163Y802520D01*
X40721Y803532D01*
X38100Y803877D01*
D02*
G37*
G36*
X569340Y818040D02*
X548260D01*
Y802960D01*
X554915D01*
Y790890D01*
X548260D01*
Y775810D01*
X569340D01*
Y790890D01*
X562685D01*
Y802960D01*
X569340D01*
Y818040D01*
D02*
G37*
G36*
X653970Y774560D02*
Y765719D01*
X662811D01*
X662628Y767109D01*
X661601Y769588D01*
X659968Y771717D01*
X657839Y773350D01*
X655360Y774377D01*
X653970Y774560D01*
D02*
G37*
G36*
X651430D02*
X650040Y774377D01*
X647561Y773350D01*
X645432Y771717D01*
X643798Y769588D01*
X642772Y767109D01*
X642589Y765719D01*
X651430D01*
Y774560D01*
D02*
G37*
G36*
X428081Y821690D02*
X410301D01*
Y791210D01*
X413921D01*
Y778190D01*
X408560D01*
Y763110D01*
X429640D01*
Y778190D01*
X424280D01*
Y791210D01*
X428081D01*
Y821690D01*
D02*
G37*
G36*
X364581D02*
X346801D01*
Y791210D01*
X350420D01*
Y778190D01*
X345060D01*
Y763110D01*
X366140D01*
Y778190D01*
X360779D01*
Y791210D01*
X364581D01*
Y821690D01*
D02*
G37*
G36*
X292100Y821767D02*
X289779Y821461D01*
X287617Y820565D01*
X285760Y819140D01*
X284335Y817283D01*
X283439Y815121D01*
X283133Y812800D01*
Y800100D01*
X283439Y797779D01*
X284335Y795617D01*
X285760Y793760D01*
X286921Y792869D01*
Y778190D01*
X281560D01*
Y763110D01*
X302640D01*
Y778190D01*
X297279D01*
Y792869D01*
X298440Y793760D01*
X299865Y795617D01*
X300761Y797779D01*
X301067Y800100D01*
Y812800D01*
X300761Y815121D01*
X299865Y817283D01*
X298440Y819140D01*
X296583Y820565D01*
X294421Y821461D01*
X292100Y821767D01*
D02*
G37*
G36*
X241300D02*
X238979Y821461D01*
X236817Y820565D01*
X234960Y819140D01*
X233535Y817283D01*
X232639Y815121D01*
X232333Y812800D01*
Y800100D01*
X232639Y797779D01*
X233535Y795617D01*
X234960Y793760D01*
X236120Y792869D01*
Y778190D01*
X230760D01*
Y763110D01*
X251840D01*
Y778190D01*
X246479D01*
Y792869D01*
X247640Y793760D01*
X249065Y795617D01*
X249961Y797779D01*
X250267Y800100D01*
Y812800D01*
X249961Y815121D01*
X249065Y817283D01*
X247640Y819140D01*
X245783Y820565D01*
X243621Y821461D01*
X241300Y821767D01*
D02*
G37*
G36*
X190500D02*
X188179Y821461D01*
X186017Y820565D01*
X184160Y819140D01*
X182735Y817283D01*
X181839Y815121D01*
X181533Y812800D01*
Y800100D01*
X181839Y797779D01*
X182735Y795617D01*
X184160Y793760D01*
X185320Y792869D01*
Y778190D01*
X179960D01*
Y763110D01*
X201040D01*
Y778190D01*
X195679D01*
Y792869D01*
X196840Y793760D01*
X198265Y795617D01*
X199161Y797779D01*
X199467Y800100D01*
Y812800D01*
X199161Y815121D01*
X198265Y817283D01*
X196840Y819140D01*
X194983Y820565D01*
X192821Y821461D01*
X190500Y821767D01*
D02*
G37*
G36*
X148590Y821690D02*
X130810D01*
Y791210D01*
X134521D01*
Y778190D01*
X129160D01*
Y763110D01*
X150240D01*
Y778190D01*
X144880D01*
Y791210D01*
X148590D01*
Y821690D01*
D02*
G37*
G36*
X38100Y778477D02*
X35479Y778132D01*
X33037Y777120D01*
X30939Y775511D01*
X29330Y773413D01*
X28318Y770971D01*
X27973Y768350D01*
X28318Y765729D01*
X29330Y763287D01*
X30939Y761189D01*
X33037Y759580D01*
X35479Y758568D01*
X38100Y758223D01*
X40721Y758568D01*
X43163Y759580D01*
X45261Y761189D01*
X46870Y763287D01*
X47882Y765729D01*
X48227Y768350D01*
X47882Y770971D01*
X46870Y773413D01*
X45261Y775511D01*
X43163Y777120D01*
X40721Y778132D01*
X38100Y778477D01*
D02*
G37*
G36*
X662811Y763179D02*
X653970D01*
Y754338D01*
X655360Y754521D01*
X657839Y755547D01*
X659968Y757181D01*
X661601Y759310D01*
X662628Y761788D01*
X662811Y763179D01*
D02*
G37*
G36*
X651430D02*
X642589D01*
X642772Y761788D01*
X643798Y759310D01*
X645432Y757181D01*
X647561Y755547D01*
X650040Y754521D01*
X651430Y754338D01*
Y763179D01*
D02*
G37*
G36*
X682700Y774727D02*
X680039Y774377D01*
X677561Y773350D01*
X675432Y771717D01*
X673798Y769588D01*
X672772Y767109D01*
X672421Y764449D01*
X672772Y761788D01*
X673798Y759310D01*
X675432Y757181D01*
X677561Y755547D01*
X680039Y754521D01*
X682700Y754170D01*
X685360Y754521D01*
X687839Y755547D01*
X689968Y757181D01*
X691601Y759310D01*
X692628Y761788D01*
X692978Y764449D01*
X692628Y767109D01*
X691601Y769588D01*
X689968Y771717D01*
X687839Y773350D01*
X685360Y774377D01*
X682700Y774727D01*
D02*
G37*
G36*
X520700Y765777D02*
X518079Y765432D01*
X515637Y764420D01*
X513539Y762811D01*
X511930Y760713D01*
X510918Y758271D01*
X510573Y755650D01*
X510918Y753029D01*
X511930Y750587D01*
X513539Y748489D01*
X515637Y746880D01*
X518079Y745868D01*
X520700Y745523D01*
X523321Y745868D01*
X525763Y746880D01*
X527861Y748489D01*
X529470Y750587D01*
X529958Y751765D01*
X548260D01*
Y745810D01*
X569340D01*
Y760890D01*
X548260D01*
Y759535D01*
X529958D01*
X529470Y760713D01*
X527861Y762811D01*
X525763Y764420D01*
X523321Y765432D01*
X520700Y765777D01*
D02*
G37*
G36*
X39370Y752909D02*
Y744220D01*
X48059D01*
X47882Y745571D01*
X46870Y748013D01*
X45261Y750111D01*
X43163Y751720D01*
X40721Y752732D01*
X39370Y752909D01*
D02*
G37*
G36*
X36830D02*
X35479Y752732D01*
X33037Y751720D01*
X30939Y750111D01*
X29330Y748013D01*
X28318Y745571D01*
X28141Y744220D01*
X36830D01*
Y752909D01*
D02*
G37*
G36*
X564040Y740790D02*
X548960D01*
Y734135D01*
X529958D01*
X529470Y735313D01*
X527861Y737411D01*
X525763Y739020D01*
X523321Y740032D01*
X520700Y740377D01*
X518079Y740032D01*
X515637Y739020D01*
X513539Y737411D01*
X511930Y735313D01*
X510918Y732871D01*
X510573Y730250D01*
X510918Y727629D01*
X511930Y725187D01*
X513539Y723089D01*
X515637Y721480D01*
X518079Y720468D01*
X520700Y720123D01*
X523321Y720468D01*
X525763Y721480D01*
X527861Y723089D01*
X529470Y725187D01*
X529958Y726365D01*
X548960D01*
Y719710D01*
X564040D01*
Y740790D01*
D02*
G37*
G36*
X48059Y741680D02*
X39370D01*
Y732991D01*
X40721Y733168D01*
X43163Y734180D01*
X45261Y735789D01*
X46870Y737887D01*
X47882Y740329D01*
X48059Y741680D01*
D02*
G37*
G36*
X36830D02*
X28141D01*
X28318Y740329D01*
X29330Y737887D01*
X30939Y735789D01*
X33037Y734180D01*
X35479Y733168D01*
X36830Y732991D01*
Y741680D01*
D02*
G37*
G36*
X594740Y760890D02*
X573660D01*
Y745810D01*
X580315D01*
Y740790D01*
X578960D01*
Y719710D01*
X594040D01*
Y740790D01*
X588085D01*
Y745810D01*
X594740D01*
Y760890D01*
D02*
G37*
G36*
X39370Y727509D02*
Y718820D01*
X48059D01*
X47882Y720171D01*
X46870Y722613D01*
X45261Y724711D01*
X43163Y726320D01*
X40721Y727332D01*
X39370Y727509D01*
D02*
G37*
G36*
X36830D02*
X35479Y727332D01*
X33037Y726320D01*
X30939Y724711D01*
X29330Y722613D01*
X28318Y720171D01*
X28141Y718820D01*
X36830D01*
Y727509D01*
D02*
G37*
G36*
X48059Y716280D02*
X39370D01*
Y707591D01*
X40721Y707768D01*
X43163Y708780D01*
X45261Y710389D01*
X46870Y712487D01*
X47882Y714929D01*
X48059Y716280D01*
D02*
G37*
G36*
X36830D02*
X28141D01*
X28318Y714929D01*
X29330Y712487D01*
X30939Y710389D01*
X33037Y708780D01*
X35479Y707768D01*
X36830Y707591D01*
Y716280D01*
D02*
G37*
G36*
X429640Y748190D02*
X408560D01*
Y733110D01*
X413921D01*
Y714690D01*
X408560D01*
Y699610D01*
X429640D01*
Y714690D01*
X424280D01*
Y733110D01*
X429640D01*
Y748190D01*
D02*
G37*
G36*
X366140D02*
X345060D01*
Y733110D01*
X350420D01*
Y714690D01*
X345060D01*
Y699610D01*
X366140D01*
Y714690D01*
X360779D01*
Y733110D01*
X366140D01*
Y748190D01*
D02*
G37*
G36*
X302640D02*
X281560D01*
Y733110D01*
X286921D01*
Y714690D01*
X281560D01*
Y699610D01*
X302640D01*
Y714690D01*
X297279D01*
Y733110D01*
X302640D01*
Y748190D01*
D02*
G37*
G36*
X251840D02*
X230760D01*
Y733110D01*
X236120D01*
Y714690D01*
X230760D01*
Y699610D01*
X251840D01*
Y714690D01*
X246479D01*
Y733110D01*
X251840D01*
Y748190D01*
D02*
G37*
G36*
X201040D02*
X179960D01*
Y733110D01*
X185320D01*
Y714690D01*
X179960D01*
Y699610D01*
X201040D01*
Y714690D01*
X195679D01*
Y733110D01*
X201040D01*
Y748190D01*
D02*
G37*
G36*
X150240D02*
X129160D01*
Y733110D01*
X134521D01*
Y714690D01*
X129160D01*
Y699610D01*
X150240D01*
Y714690D01*
X144880D01*
Y733110D01*
X150240D01*
Y748190D01*
D02*
G37*
G36*
X530740Y702190D02*
X510660D01*
Y682110D01*
X530740D01*
Y702190D01*
D02*
G37*
G36*
X38100Y702277D02*
X35479Y701932D01*
X33037Y700920D01*
X30939Y699311D01*
X29330Y697213D01*
X28318Y694771D01*
X27973Y692150D01*
X28318Y689529D01*
X29330Y687087D01*
X30939Y684989D01*
X33037Y683380D01*
X35479Y682368D01*
X38100Y682023D01*
X40721Y682368D01*
X43163Y683380D01*
X45261Y684989D01*
X46870Y687087D01*
X47882Y689529D01*
X48227Y692150D01*
X47882Y694771D01*
X46870Y697213D01*
X45261Y699311D01*
X43163Y700920D01*
X40721Y701932D01*
X38100Y702277D01*
D02*
G37*
G36*
X520700Y676877D02*
X518079Y676532D01*
X515637Y675520D01*
X513539Y673911D01*
X511930Y671813D01*
X510918Y669371D01*
X510573Y666750D01*
X510918Y664129D01*
X511930Y661687D01*
X513539Y659589D01*
X515637Y657980D01*
X518079Y656968D01*
X520700Y656623D01*
X523321Y656968D01*
X525763Y657980D01*
X527861Y659589D01*
X529470Y661687D01*
X530482Y664129D01*
X530827Y666750D01*
X530482Y669371D01*
X529470Y671813D01*
X527861Y673911D01*
X525763Y675520D01*
X523321Y676532D01*
X520700Y676877D01*
D02*
G37*
G36*
X150240Y684690D02*
X129160D01*
Y669610D01*
X135815D01*
Y662063D01*
X135217Y661815D01*
X133360Y660390D01*
X131935Y658533D01*
X131039Y656371D01*
X130733Y654050D01*
X131039Y651729D01*
X131935Y649567D01*
X133360Y647710D01*
X135217Y646285D01*
X137379Y645389D01*
X139700Y645083D01*
X142021Y645389D01*
X144183Y646285D01*
X146040Y647710D01*
X147465Y649567D01*
X148361Y651729D01*
X148667Y654050D01*
X148361Y656371D01*
X147465Y658533D01*
X146040Y660390D01*
X144183Y661815D01*
X143585Y662063D01*
Y669610D01*
X150240D01*
Y684690D01*
D02*
G37*
G36*
X48140Y651390D02*
X28060D01*
Y631310D01*
X48140D01*
Y651390D01*
D02*
G37*
G36*
X520700Y651477D02*
X518079Y651132D01*
X515637Y650120D01*
X513539Y648511D01*
X511930Y646413D01*
X510918Y643971D01*
X510573Y641350D01*
X510918Y638729D01*
X511930Y636287D01*
X513539Y634189D01*
X515637Y632580D01*
X518079Y631568D01*
X520700Y631223D01*
X523321Y631568D01*
X525763Y632580D01*
X527861Y634189D01*
X529470Y636287D01*
X530482Y638729D01*
X530827Y641350D01*
X530482Y643971D01*
X529470Y646413D01*
X527861Y648511D01*
X525763Y650120D01*
X523321Y651132D01*
X520700Y651477D01*
D02*
G37*
G36*
X429640Y684690D02*
X408560D01*
Y669610D01*
X415169D01*
X415196Y668340D01*
X404791Y657935D01*
X368300D01*
X366813Y657639D01*
X365553Y656797D01*
X352853Y644097D01*
X352011Y642837D01*
X351715Y641350D01*
Y612508D01*
X350537Y612020D01*
X348439Y610411D01*
X348055Y609909D01*
X346785Y610340D01*
Y652441D01*
X358347Y664003D01*
X359189Y665263D01*
X359485Y666750D01*
Y669610D01*
X366140D01*
Y684690D01*
X345060D01*
Y669610D01*
X351669D01*
X351696Y668340D01*
X340153Y656797D01*
X339311Y655537D01*
X339015Y654050D01*
Y610340D01*
X337745Y609909D01*
X337361Y610411D01*
X335263Y612020D01*
X332821Y613032D01*
X331470Y613209D01*
Y603250D01*
Y593291D01*
X332821Y593468D01*
X335263Y594480D01*
X337361Y596089D01*
X337745Y596591D01*
X339015Y596160D01*
Y590550D01*
X339311Y589063D01*
X340153Y587803D01*
X346307Y581650D01*
X345818Y580471D01*
X345473Y577850D01*
X345818Y575229D01*
X346830Y572787D01*
X348439Y570689D01*
X350537Y569080D01*
X352979Y568068D01*
X355600Y567723D01*
X358221Y568068D01*
X360663Y569080D01*
X362761Y570689D01*
X364370Y572787D01*
X365382Y575229D01*
X365727Y577850D01*
X365382Y580471D01*
X364370Y582913D01*
X362761Y585011D01*
X360663Y586620D01*
X358221Y587632D01*
X355600Y587977D01*
X352979Y587632D01*
X351800Y587143D01*
X346785Y592159D01*
Y596160D01*
X348055Y596591D01*
X348439Y596089D01*
X350537Y594480D01*
X352979Y593468D01*
X355600Y593123D01*
X358221Y593468D01*
X360663Y594480D01*
X362761Y596089D01*
X364370Y598187D01*
X365382Y600629D01*
X365727Y603250D01*
X365382Y605871D01*
X364370Y608313D01*
X362761Y610411D01*
X360663Y612020D01*
X359485Y612508D01*
Y639741D01*
X369909Y650165D01*
X406400D01*
X407887Y650461D01*
X409147Y651303D01*
X421847Y664003D01*
X422689Y665263D01*
X422985Y666750D01*
Y669610D01*
X429640D01*
Y684690D01*
D02*
G37*
G36*
X302640D02*
X281560D01*
Y669610D01*
X288215D01*
Y610340D01*
X286945Y609909D01*
X286561Y610411D01*
X284463Y612020D01*
X283285Y612508D01*
Y641350D01*
X282989Y642837D01*
X282147Y644097D01*
X269447Y656797D01*
X268187Y657639D01*
X266700Y657935D01*
X255609D01*
X245204Y668340D01*
X245231Y669610D01*
X251840D01*
Y684690D01*
X230760D01*
Y669610D01*
X237415D01*
Y666750D01*
X237711Y665263D01*
X238553Y664003D01*
X251253Y651303D01*
X252513Y650461D01*
X254000Y650165D01*
X265091D01*
X275515Y639741D01*
Y612508D01*
X274337Y612020D01*
X272239Y610411D01*
X270630Y608313D01*
X269618Y605871D01*
X269273Y603250D01*
X269618Y600629D01*
X270630Y598187D01*
X272239Y596089D01*
X274337Y594480D01*
X276779Y593468D01*
X279400Y593123D01*
X282021Y593468D01*
X284463Y594480D01*
X286561Y596089D01*
X286945Y596591D01*
X288215Y596160D01*
Y592159D01*
X283200Y587143D01*
X282021Y587632D01*
X279400Y587977D01*
X276779Y587632D01*
X274337Y586620D01*
X272239Y585011D01*
X270630Y582913D01*
X269618Y580471D01*
X269273Y577850D01*
X269618Y575229D01*
X270630Y572787D01*
X272239Y570689D01*
X274337Y569080D01*
X276779Y568068D01*
X279400Y567723D01*
X282021Y568068D01*
X284463Y569080D01*
X286561Y570689D01*
X288170Y572787D01*
X289182Y575229D01*
X289527Y577850D01*
X289182Y580471D01*
X288693Y581650D01*
X294847Y587803D01*
X295689Y589063D01*
X295844Y589844D01*
X297114Y589719D01*
Y584326D01*
X296030Y582913D01*
X295018Y580471D01*
X294673Y577850D01*
X295018Y575229D01*
X296030Y572787D01*
X297639Y570689D01*
X299737Y569080D01*
X302179Y568068D01*
X304800Y567723D01*
X307421Y568068D01*
X309863Y569080D01*
X311961Y570689D01*
X313570Y572787D01*
X314582Y575229D01*
X314927Y577850D01*
X314582Y580471D01*
X313570Y582913D01*
X312486Y584326D01*
Y596774D01*
X313570Y598187D01*
X314582Y600629D01*
X314927Y603250D01*
X314582Y605871D01*
X313570Y608313D01*
X311961Y610411D01*
X309863Y612020D01*
X307421Y613032D01*
X304800Y613377D01*
X302179Y613032D01*
X299737Y612020D01*
X297639Y610411D01*
X297255Y609909D01*
X295985Y610340D01*
Y669610D01*
X302640D01*
Y684690D01*
D02*
G37*
G36*
X201040D02*
X179960D01*
Y669610D01*
X186615D01*
Y610340D01*
X185345Y609909D01*
X184961Y610411D01*
X182863Y612020D01*
X180421Y613032D01*
X179070Y613209D01*
Y603250D01*
Y593291D01*
X180421Y593468D01*
X182863Y594480D01*
X184961Y596089D01*
X185345Y596591D01*
X186615Y596160D01*
Y590550D01*
X186911Y589063D01*
X187753Y587803D01*
X193907Y581650D01*
X193418Y580471D01*
X193073Y577850D01*
X193418Y575229D01*
X194430Y572787D01*
X196039Y570689D01*
X198137Y569080D01*
X200579Y568068D01*
X203200Y567723D01*
X205821Y568068D01*
X208263Y569080D01*
X210361Y570689D01*
X211970Y572787D01*
X212982Y575229D01*
X213327Y577850D01*
X212982Y580471D01*
X211970Y582913D01*
X210361Y585011D01*
X208263Y586620D01*
X205821Y587632D01*
X203200Y587977D01*
X200579Y587632D01*
X199400Y587143D01*
X194385Y592159D01*
Y596160D01*
X195655Y596591D01*
X196039Y596089D01*
X198137Y594480D01*
X200579Y593468D01*
X203200Y593123D01*
X205821Y593468D01*
X208263Y594480D01*
X210361Y596089D01*
X211970Y598187D01*
X212982Y600629D01*
X213327Y603250D01*
X212982Y605871D01*
X211970Y608313D01*
X210361Y610411D01*
X208263Y612020D01*
X207085Y612508D01*
Y646037D01*
X207683Y646285D01*
X209540Y647710D01*
X210965Y649567D01*
X211861Y651729D01*
X212167Y654050D01*
X211861Y656371D01*
X210965Y658533D01*
X209540Y660390D01*
X207683Y661815D01*
X205521Y662711D01*
X203200Y663017D01*
X200879Y662711D01*
X198717Y661815D01*
X196860Y660390D01*
X195655Y658820D01*
X194385Y659148D01*
Y669610D01*
X201040D01*
Y684690D01*
D02*
G37*
G36*
X725900Y644675D02*
X722462Y644336D01*
X719155Y643333D01*
X716108Y641704D01*
X713437Y639513D01*
X711245Y636842D01*
X709617Y633795D01*
X708614Y630488D01*
X708275Y627050D01*
X708614Y623612D01*
X709617Y620305D01*
X711245Y617258D01*
X713437Y614587D01*
X716108Y612396D01*
X719155Y610767D01*
X722462Y609764D01*
X725900Y609425D01*
X729338Y609764D01*
X732645Y610767D01*
X735692Y612396D01*
X738363Y614587D01*
X740555Y617258D01*
X742183Y620305D01*
X743186Y623612D01*
X743525Y627050D01*
X743186Y630488D01*
X742183Y633795D01*
X740555Y636842D01*
X738363Y639513D01*
X735692Y641704D01*
X732645Y643333D01*
X729338Y644336D01*
X725900Y644675D01*
D02*
G37*
G36*
X520700Y626077D02*
X518079Y625732D01*
X515637Y624720D01*
X513539Y623111D01*
X511930Y621013D01*
X510918Y618571D01*
X510573Y615950D01*
X510918Y613329D01*
X511930Y610887D01*
X513539Y608789D01*
X515637Y607180D01*
X518079Y606168D01*
X520700Y605823D01*
X523321Y606168D01*
X525763Y607180D01*
X527861Y608789D01*
X529470Y610887D01*
X530482Y613329D01*
X530827Y615950D01*
X530482Y618571D01*
X529470Y621013D01*
X527861Y623111D01*
X525763Y624720D01*
X523321Y625732D01*
X520700Y626077D01*
D02*
G37*
G36*
X38100D02*
X35479Y625732D01*
X33037Y624720D01*
X30939Y623111D01*
X29330Y621013D01*
X28318Y618571D01*
X27973Y615950D01*
X28318Y613329D01*
X29330Y610887D01*
X30939Y608789D01*
X33037Y607180D01*
X35479Y606168D01*
X38100Y605823D01*
X40721Y606168D01*
X43163Y607180D01*
X45261Y608789D01*
X46870Y610887D01*
X47882Y613329D01*
X48227Y615950D01*
X47882Y618571D01*
X46870Y621013D01*
X45261Y623111D01*
X43163Y624720D01*
X40721Y625732D01*
X38100Y626077D01*
D02*
G37*
G36*
X255270Y613209D02*
Y604520D01*
X263959D01*
X263782Y605871D01*
X262770Y608313D01*
X261161Y610411D01*
X259063Y612020D01*
X256621Y613032D01*
X255270Y613209D01*
D02*
G37*
G36*
X252730D02*
X251379Y613032D01*
X248937Y612020D01*
X246839Y610411D01*
X245230Y608313D01*
X244218Y605871D01*
X244041Y604520D01*
X252730D01*
Y613209D01*
D02*
G37*
G36*
X176530D02*
X175179Y613032D01*
X172737Y612020D01*
X170639Y610411D01*
X169030Y608313D01*
X168018Y605871D01*
X167841Y604520D01*
X176530D01*
Y613209D01*
D02*
G37*
G36*
X328930D02*
X327579Y613032D01*
X325137Y612020D01*
X323039Y610411D01*
X321430Y608313D01*
X320418Y605871D01*
X320241Y604520D01*
X328930D01*
Y613209D01*
D02*
G37*
G36*
X263959Y601980D02*
X255270D01*
Y593291D01*
X256621Y593468D01*
X259063Y594480D01*
X261161Y596089D01*
X262770Y598187D01*
X263782Y600629D01*
X263959Y601980D01*
D02*
G37*
G36*
X328930D02*
X320241D01*
X320418Y600629D01*
X321430Y598187D01*
X323039Y596089D01*
X325137Y594480D01*
X327579Y593468D01*
X328930Y593291D01*
Y601980D01*
D02*
G37*
G36*
X252730D02*
X244041D01*
X244218Y600629D01*
X245230Y598187D01*
X246839Y596089D01*
X248937Y594480D01*
X251379Y593468D01*
X252730Y593291D01*
Y601980D01*
D02*
G37*
G36*
X176530D02*
X167841D01*
X168018Y600629D01*
X169030Y598187D01*
X170639Y596089D01*
X172737Y594480D01*
X175179Y593468D01*
X176530Y593291D01*
Y601980D01*
D02*
G37*
G36*
X520700Y600677D02*
X518079Y600332D01*
X515637Y599320D01*
X513539Y597711D01*
X511930Y595613D01*
X510918Y593171D01*
X510573Y590550D01*
X510918Y587929D01*
X511930Y585487D01*
X513539Y583389D01*
X515637Y581780D01*
X518079Y580768D01*
X520700Y580423D01*
X523321Y580768D01*
X525763Y581780D01*
X527861Y583389D01*
X529470Y585487D01*
X530482Y587929D01*
X530827Y590550D01*
X530482Y593171D01*
X529470Y595613D01*
X527861Y597711D01*
X525763Y599320D01*
X523321Y600332D01*
X520700Y600677D01*
D02*
G37*
G36*
X38100D02*
X35479Y600332D01*
X33037Y599320D01*
X30939Y597711D01*
X29330Y595613D01*
X28318Y593171D01*
X27973Y590550D01*
X28318Y587929D01*
X29330Y585487D01*
X30939Y583389D01*
X33037Y581780D01*
X35479Y580768D01*
X38100Y580423D01*
X40721Y580768D01*
X43163Y581780D01*
X45261Y583389D01*
X46870Y585487D01*
X47882Y587929D01*
X48227Y590550D01*
X47882Y593171D01*
X46870Y595613D01*
X45261Y597711D01*
X43163Y599320D01*
X40721Y600332D01*
X38100Y600677D01*
D02*
G37*
G36*
X255270Y587809D02*
Y579120D01*
X263959D01*
X263782Y580471D01*
X262770Y582913D01*
X261161Y585011D01*
X259063Y586620D01*
X256621Y587632D01*
X255270Y587809D01*
D02*
G37*
G36*
X179070D02*
Y579120D01*
X187759D01*
X187582Y580471D01*
X186570Y582913D01*
X184961Y585011D01*
X182863Y586620D01*
X180421Y587632D01*
X179070Y587809D01*
D02*
G37*
G36*
X331470D02*
Y579120D01*
X340159D01*
X339982Y580471D01*
X338970Y582913D01*
X337361Y585011D01*
X335263Y586620D01*
X332821Y587632D01*
X331470Y587809D01*
D02*
G37*
G36*
X252730D02*
X251379Y587632D01*
X248937Y586620D01*
X246839Y585011D01*
X245230Y582913D01*
X244218Y580471D01*
X244041Y579120D01*
X252730D01*
Y587809D01*
D02*
G37*
G36*
X176530D02*
X175179Y587632D01*
X172737Y586620D01*
X170639Y585011D01*
X169030Y582913D01*
X168018Y580471D01*
X167841Y579120D01*
X176530D01*
Y587809D01*
D02*
G37*
G36*
X328930D02*
X327579Y587632D01*
X325137Y586620D01*
X323039Y585011D01*
X321430Y582913D01*
X320418Y580471D01*
X320241Y579120D01*
X328930D01*
Y587809D01*
D02*
G37*
G36*
X340159Y576580D02*
X331470D01*
Y567891D01*
X332821Y568068D01*
X335263Y569080D01*
X337361Y570689D01*
X338970Y572787D01*
X339982Y575229D01*
X340159Y576580D01*
D02*
G37*
G36*
X263959D02*
X255270D01*
Y567891D01*
X256621Y568068D01*
X259063Y569080D01*
X261161Y570689D01*
X262770Y572787D01*
X263782Y575229D01*
X263959Y576580D01*
D02*
G37*
G36*
X187759D02*
X179070D01*
Y567891D01*
X180421Y568068D01*
X182863Y569080D01*
X184961Y570689D01*
X186570Y572787D01*
X187582Y575229D01*
X187759Y576580D01*
D02*
G37*
G36*
X328930D02*
X320241D01*
X320418Y575229D01*
X321430Y572787D01*
X323039Y570689D01*
X325137Y569080D01*
X327579Y568068D01*
X328930Y567891D01*
Y576580D01*
D02*
G37*
G36*
X252730D02*
X244041D01*
X244218Y575229D01*
X245230Y572787D01*
X246839Y570689D01*
X248937Y569080D01*
X251379Y568068D01*
X252730Y567891D01*
Y576580D01*
D02*
G37*
G36*
X176530D02*
X167841D01*
X168018Y575229D01*
X169030Y572787D01*
X170639Y570689D01*
X172737Y569080D01*
X175179Y568068D01*
X176530Y567891D01*
Y576580D01*
D02*
G37*
G36*
X391040Y613290D02*
X370960D01*
Y593210D01*
X373314D01*
Y584326D01*
X372230Y582913D01*
X371218Y580471D01*
X370873Y577850D01*
X371218Y575229D01*
X372230Y572787D01*
X373839Y570689D01*
X375937Y569080D01*
X378379Y568068D01*
X381000Y567723D01*
X383621Y568068D01*
X386063Y569080D01*
X388161Y570689D01*
X389770Y572787D01*
X390782Y575229D01*
X391127Y577850D01*
X390782Y580471D01*
X389770Y582913D01*
X388686Y584326D01*
Y593210D01*
X391040D01*
Y613290D01*
D02*
G37*
G36*
X228600Y613377D02*
X225979Y613032D01*
X223537Y612020D01*
X221439Y610411D01*
X219830Y608313D01*
X218818Y605871D01*
X218473Y603250D01*
X218818Y600629D01*
X219830Y598187D01*
X220914Y596774D01*
Y584326D01*
X219830Y582913D01*
X218818Y580471D01*
X218473Y577850D01*
X218818Y575229D01*
X219830Y572787D01*
X221439Y570689D01*
X223537Y569080D01*
X225979Y568068D01*
X228600Y567723D01*
X231221Y568068D01*
X233663Y569080D01*
X235761Y570689D01*
X237370Y572787D01*
X238382Y575229D01*
X238727Y577850D01*
X238382Y580471D01*
X237370Y582913D01*
X236286Y584326D01*
Y596774D01*
X237370Y598187D01*
X238382Y600629D01*
X238727Y603250D01*
X238382Y605871D01*
X237370Y608313D01*
X235761Y610411D01*
X233663Y612020D01*
X231221Y613032D01*
X228600Y613377D01*
D02*
G37*
G36*
X520700Y575277D02*
X518079Y574932D01*
X515637Y573920D01*
X513539Y572311D01*
X511930Y570213D01*
X510918Y567771D01*
X510573Y565150D01*
X510918Y562529D01*
X511930Y560087D01*
X513539Y557989D01*
X515637Y556380D01*
X518079Y555368D01*
X520700Y555023D01*
X523321Y555368D01*
X525763Y556380D01*
X527861Y557989D01*
X529470Y560087D01*
X530482Y562529D01*
X530827Y565150D01*
X530482Y567771D01*
X529470Y570213D01*
X527861Y572311D01*
X525763Y573920D01*
X523321Y574932D01*
X520700Y575277D01*
D02*
G37*
G36*
X38100D02*
X35479Y574932D01*
X33037Y573920D01*
X30939Y572311D01*
X29330Y570213D01*
X28318Y567771D01*
X27973Y565150D01*
X28318Y562529D01*
X29330Y560087D01*
X30939Y557989D01*
X33037Y556380D01*
X35479Y555368D01*
X38100Y555023D01*
X40721Y555368D01*
X43163Y556380D01*
X45261Y557989D01*
X46870Y560087D01*
X47882Y562529D01*
X48227Y565150D01*
X47882Y567771D01*
X46870Y570213D01*
X45261Y572311D01*
X43163Y573920D01*
X40721Y574932D01*
X38100Y575277D01*
D02*
G37*
G36*
X482600Y720167D02*
X480279Y719861D01*
X478117Y718965D01*
X476260Y717540D01*
X474835Y715683D01*
X473939Y713521D01*
X473633Y711200D01*
X473939Y708879D01*
X474835Y706717D01*
X476260Y704860D01*
X478117Y703435D01*
X478715Y703187D01*
Y552450D01*
X479011Y550963D01*
X479853Y549703D01*
X492553Y537003D01*
X493813Y536161D01*
X495300Y535865D01*
X511442D01*
X511930Y534687D01*
X513539Y532589D01*
X515637Y530980D01*
X518079Y529968D01*
X520700Y529623D01*
X523321Y529968D01*
X525763Y530980D01*
X527861Y532589D01*
X529470Y534687D01*
X530482Y537129D01*
X530827Y539750D01*
X530482Y542371D01*
X529470Y544813D01*
X527861Y546911D01*
X525763Y548520D01*
X523321Y549532D01*
X520700Y549877D01*
X518079Y549532D01*
X515637Y548520D01*
X513539Y546911D01*
X511930Y544813D01*
X511442Y543635D01*
X496909D01*
X486485Y554059D01*
Y703187D01*
X487083Y703435D01*
X488940Y704860D01*
X490365Y706717D01*
X491261Y708879D01*
X491567Y711200D01*
X491261Y713521D01*
X490365Y715683D01*
X488940Y717540D01*
X487083Y718965D01*
X484921Y719861D01*
X482600Y720167D01*
D02*
G37*
G36*
X38100Y549877D02*
X35479Y549532D01*
X33037Y548520D01*
X30939Y546911D01*
X29330Y544813D01*
X28318Y542371D01*
X27973Y539750D01*
X28318Y537129D01*
X29330Y534687D01*
X30939Y532589D01*
X33037Y530980D01*
X35479Y529968D01*
X38100Y529623D01*
X40721Y529968D01*
X43163Y530980D01*
X45261Y532589D01*
X46870Y534687D01*
X47882Y537129D01*
X48227Y539750D01*
X47882Y542371D01*
X46870Y544813D01*
X45261Y546911D01*
X43163Y548520D01*
X40721Y549532D01*
X38100Y549877D01*
D02*
G37*
G36*
X520700Y524477D02*
X518079Y524132D01*
X515637Y523120D01*
X513539Y521511D01*
X511930Y519413D01*
X510918Y516971D01*
X510573Y514350D01*
X510918Y511729D01*
X511930Y509287D01*
X513539Y507189D01*
X515637Y505580D01*
X518079Y504568D01*
X520700Y504223D01*
X523321Y504568D01*
X525763Y505580D01*
X527861Y507189D01*
X529470Y509287D01*
X530482Y511729D01*
X530827Y514350D01*
X530482Y516971D01*
X529470Y519413D01*
X527861Y521511D01*
X525763Y523120D01*
X523321Y524132D01*
X520700Y524477D01*
D02*
G37*
G36*
X38100D02*
X35479Y524132D01*
X33037Y523120D01*
X30939Y521511D01*
X29330Y519413D01*
X28318Y516971D01*
X27973Y514350D01*
X28318Y511729D01*
X29330Y509287D01*
X30939Y507189D01*
X33037Y505580D01*
X35479Y504568D01*
X38100Y504223D01*
X40721Y504568D01*
X43163Y505580D01*
X45261Y507189D01*
X46870Y509287D01*
X47882Y511729D01*
X48227Y514350D01*
X47882Y516971D01*
X46870Y519413D01*
X45261Y521511D01*
X43163Y523120D01*
X40721Y524132D01*
X38100Y524477D01*
D02*
G37*
G36*
Y499077D02*
X35479Y498732D01*
X33037Y497720D01*
X30939Y496111D01*
X29330Y494013D01*
X28318Y491571D01*
X27973Y488950D01*
X28318Y486329D01*
X29330Y483887D01*
X30939Y481789D01*
X33037Y480180D01*
X35479Y479168D01*
X38100Y478823D01*
X40721Y479168D01*
X43163Y480180D01*
X45261Y481789D01*
X46870Y483887D01*
X47882Y486329D01*
X48227Y488950D01*
X47882Y491571D01*
X46870Y494013D01*
X45261Y496111D01*
X43163Y497720D01*
X40721Y498732D01*
X38100Y499077D01*
D02*
G37*
G36*
X368300Y507580D02*
X364665Y507222D01*
X361171Y506162D01*
X357950Y504440D01*
X355127Y502123D01*
X352810Y499300D01*
X351088Y496079D01*
X350028Y492584D01*
X349670Y488950D01*
X350028Y485316D01*
X351088Y481821D01*
X352810Y478600D01*
X355127Y475777D01*
X357950Y473460D01*
X361171Y471738D01*
X364665Y470678D01*
X368300Y470320D01*
X371935Y470678D01*
X375429Y471738D01*
X378650Y473460D01*
X381473Y475777D01*
X383790Y478600D01*
X385512Y481821D01*
X386572Y485316D01*
X386930Y488950D01*
X386572Y492584D01*
X385512Y496079D01*
X383790Y499300D01*
X381473Y502123D01*
X378650Y504440D01*
X375429Y506162D01*
X371935Y507222D01*
X368300Y507580D01*
D02*
G37*
G36*
X88900D02*
X85266Y507222D01*
X81771Y506162D01*
X78550Y504440D01*
X75727Y502123D01*
X73410Y499300D01*
X71688Y496079D01*
X70628Y492584D01*
X70270Y488950D01*
X70628Y485316D01*
X71688Y481821D01*
X73410Y478600D01*
X75727Y475777D01*
X78550Y473460D01*
X81771Y471738D01*
X85266Y470678D01*
X88900Y470320D01*
X92535Y470678D01*
X96029Y471738D01*
X99250Y473460D01*
X102073Y475777D01*
X104390Y478600D01*
X106112Y481821D01*
X107172Y485316D01*
X107530Y488950D01*
X107172Y492584D01*
X106112Y496079D01*
X104390Y499300D01*
X102073Y502123D01*
X99250Y504440D01*
X96029Y506162D01*
X92535Y507222D01*
X88900Y507580D01*
D02*
G37*
G36*
X570390Y474090D02*
X555310D01*
Y468730D01*
X530740D01*
Y473590D01*
X510660D01*
Y468730D01*
X488950D01*
X486968Y468335D01*
X485288Y467212D01*
X484242Y466167D01*
X476250D01*
X473929Y465861D01*
X471767Y464965D01*
X469910Y463540D01*
X468485Y461683D01*
X467589Y459521D01*
X467283Y457200D01*
X467589Y454879D01*
X468485Y452717D01*
X469910Y450860D01*
X471767Y449435D01*
X473929Y448539D01*
X476250Y448233D01*
X488950D01*
X491271Y448539D01*
X493433Y449435D01*
X495290Y450860D01*
X496715Y452717D01*
X497611Y454879D01*
X497917Y457200D01*
X497888Y457416D01*
X498726Y458371D01*
X510660D01*
Y453510D01*
X530740D01*
Y458371D01*
X555310D01*
Y453010D01*
X570390D01*
Y474090D01*
D02*
G37*
G36*
X333690Y467740D02*
X327420D01*
Y458470D01*
X333690D01*
Y467740D01*
D02*
G37*
G36*
X412750Y466167D02*
X407670D01*
Y458470D01*
X421549D01*
X421411Y459521D01*
X420515Y461683D01*
X419090Y463540D01*
X417233Y464965D01*
X415071Y465861D01*
X412750Y466167D01*
D02*
G37*
G36*
X261620Y467159D02*
Y458470D01*
X270309D01*
X270132Y459821D01*
X269120Y462263D01*
X267511Y464361D01*
X265413Y465970D01*
X262971Y466982D01*
X261620Y467159D01*
D02*
G37*
G36*
X259080D02*
X257729Y466982D01*
X255287Y465970D01*
X253189Y464361D01*
X251580Y462263D01*
X250568Y459821D01*
X250391Y458470D01*
X259080D01*
Y467159D01*
D02*
G37*
G36*
X324880Y467740D02*
X318610D01*
Y458470D01*
X324880D01*
Y467740D01*
D02*
G37*
G36*
X405130Y466167D02*
X400050D01*
X397729Y465861D01*
X395567Y464965D01*
X393710Y463540D01*
X392285Y461683D01*
X391389Y459521D01*
X391250Y458470D01*
X405130D01*
Y466167D01*
D02*
G37*
G36*
X38100Y473677D02*
X35479Y473332D01*
X33037Y472320D01*
X30939Y470711D01*
X29330Y468613D01*
X28318Y466171D01*
X27973Y463550D01*
X28318Y460929D01*
X29330Y458487D01*
X30939Y456389D01*
X33037Y454780D01*
X35479Y453768D01*
X38100Y453423D01*
X40721Y453768D01*
X43163Y454780D01*
X45261Y456389D01*
X46870Y458487D01*
X47882Y460929D01*
X48227Y463550D01*
X47882Y466171D01*
X46870Y468613D01*
X45261Y470711D01*
X43163Y472320D01*
X40721Y473332D01*
X38100Y473677D01*
D02*
G37*
G36*
X421549Y455930D02*
X407670D01*
Y448233D01*
X412750D01*
X415071Y448539D01*
X417233Y449435D01*
X419090Y450860D01*
X420515Y452717D01*
X421411Y454879D01*
X421549Y455930D01*
D02*
G37*
G36*
X405130D02*
X391250D01*
X391389Y454879D01*
X392285Y452717D01*
X393710Y450860D01*
X395567Y449435D01*
X397729Y448539D01*
X400050Y448233D01*
X405130D01*
Y455930D01*
D02*
G37*
G36*
X270309D02*
X261620D01*
Y447241D01*
X262971Y447418D01*
X265413Y448430D01*
X267511Y450039D01*
X269120Y452137D01*
X270132Y454579D01*
X270309Y455930D01*
D02*
G37*
G36*
X259080D02*
X250391D01*
X250568Y454579D01*
X251580Y452137D01*
X253189Y450039D01*
X255287Y448430D01*
X257729Y447418D01*
X259080Y447241D01*
Y455930D01*
D02*
G37*
G36*
X333690D02*
X327420D01*
Y446660D01*
X333690D01*
Y455930D01*
D02*
G37*
G36*
X324880D02*
X318610D01*
Y446660D01*
X324880D01*
Y455930D01*
D02*
G37*
G36*
X725900Y479575D02*
X722462Y479236D01*
X719155Y478233D01*
X716108Y476604D01*
X713437Y474413D01*
X711245Y471742D01*
X709617Y468695D01*
X708614Y465388D01*
X708275Y461950D01*
X708614Y458512D01*
X709617Y455205D01*
X711245Y452158D01*
X713437Y449487D01*
X716108Y447295D01*
X719155Y445667D01*
X722462Y444664D01*
X725900Y444325D01*
X729338Y444664D01*
X732645Y445667D01*
X735692Y447295D01*
X738363Y449487D01*
X740555Y452158D01*
X742183Y455205D01*
X743186Y458512D01*
X743525Y461950D01*
X743186Y465388D01*
X742183Y468695D01*
X740555Y471742D01*
X738363Y474413D01*
X735692Y476604D01*
X732645Y478233D01*
X729338Y479236D01*
X725900Y479575D01*
D02*
G37*
G36*
X196850Y447117D02*
X191770D01*
Y439420D01*
X205650D01*
X205511Y440471D01*
X204615Y442633D01*
X203190Y444490D01*
X201333Y445915D01*
X199171Y446811D01*
X196850Y447117D01*
D02*
G37*
G36*
X120650D02*
X115570D01*
Y439420D01*
X129450D01*
X129311Y440471D01*
X128415Y442633D01*
X126990Y444490D01*
X125133Y445915D01*
X122971Y446811D01*
X120650Y447117D01*
D02*
G37*
G36*
X189230D02*
X184150D01*
X181829Y446811D01*
X179667Y445915D01*
X177810Y444490D01*
X176385Y442633D01*
X175489Y440471D01*
X175350Y439420D01*
X189230D01*
Y447117D01*
D02*
G37*
G36*
X113030D02*
X107950D01*
X105629Y446811D01*
X103467Y445915D01*
X101610Y444490D01*
X100185Y442633D01*
X99289Y440471D01*
X99150Y439420D01*
X113030D01*
Y447117D01*
D02*
G37*
G36*
X303690Y467740D02*
X288610D01*
Y446660D01*
X290970D01*
Y438150D01*
Y433264D01*
X289797Y432778D01*
X287112Y435462D01*
X285432Y436585D01*
X283450Y436979D01*
X269031D01*
X267511Y438961D01*
X265413Y440570D01*
X262971Y441582D01*
X260350Y441927D01*
X257729Y441582D01*
X255287Y440570D01*
X253189Y438961D01*
X251580Y436863D01*
X250568Y434421D01*
X250223Y431800D01*
X250568Y429179D01*
X251580Y426737D01*
X253189Y424639D01*
X255287Y423030D01*
X257729Y422018D01*
X260350Y421673D01*
X262971Y422018D01*
X265413Y423030D01*
X267511Y424639D01*
X269031Y426620D01*
X281304D01*
X288610Y419315D01*
Y408560D01*
X303690D01*
Y429640D01*
X301329D01*
Y432971D01*
X385205D01*
X390037Y428138D01*
X391718Y427015D01*
X392660Y426827D01*
X393710Y425460D01*
X395567Y424035D01*
X397729Y423139D01*
X400050Y422833D01*
X412750D01*
X415071Y423139D01*
X417233Y424035D01*
X419090Y425460D01*
X420515Y427317D01*
X421411Y429479D01*
X421717Y431800D01*
X421411Y434121D01*
X420515Y436283D01*
X419090Y438140D01*
X417233Y439565D01*
X415071Y440461D01*
X412750Y440767D01*
X400050D01*
X397729Y440461D01*
X395567Y439565D01*
X394261Y438564D01*
X391012Y441813D01*
X389332Y442935D01*
X387350Y443330D01*
X301329D01*
Y446660D01*
X303690D01*
Y467740D01*
D02*
G37*
G36*
X205650Y436880D02*
X191770D01*
Y429183D01*
X196850D01*
X199171Y429489D01*
X201333Y430385D01*
X203190Y431810D01*
X204615Y433667D01*
X205511Y435829D01*
X205650Y436880D01*
D02*
G37*
G36*
X189230D02*
X175350D01*
X175489Y435829D01*
X176385Y433667D01*
X177810Y431810D01*
X179667Y430385D01*
X181829Y429489D01*
X184150Y429183D01*
X189230D01*
Y436880D01*
D02*
G37*
G36*
X129450D02*
X115570D01*
Y429183D01*
X120650D01*
X122971Y429489D01*
X125133Y430385D01*
X126990Y431810D01*
X128415Y433667D01*
X129311Y435829D01*
X129450Y436880D01*
D02*
G37*
G36*
X113030D02*
X99150D01*
X99289Y435829D01*
X100185Y433667D01*
X101610Y431810D01*
X103467Y430385D01*
X105629Y429489D01*
X107950Y429183D01*
X113030D01*
Y436880D01*
D02*
G37*
G36*
X333690Y429640D02*
X318610D01*
Y408560D01*
X320971D01*
Y405229D01*
X271286D01*
X270448Y406184D01*
X270477Y406400D01*
X270132Y409021D01*
X269120Y411463D01*
X267511Y413561D01*
X265413Y415170D01*
X262971Y416182D01*
X260350Y416527D01*
X257729Y416182D01*
X255287Y415170D01*
X253189Y413561D01*
X251580Y411463D01*
X250568Y409021D01*
X250223Y406400D01*
X250568Y403779D01*
X251580Y401337D01*
X253189Y399239D01*
X255287Y397630D01*
X257729Y396618D01*
X260350Y396273D01*
X262826Y396599D01*
X263037Y396387D01*
X264718Y395265D01*
X266700Y394870D01*
X320971D01*
Y391540D01*
X318610D01*
Y370460D01*
X333690D01*
Y391540D01*
X331330D01*
Y394870D01*
X387350D01*
X389332Y395265D01*
X391012Y396387D01*
X394261Y399636D01*
X395567Y398635D01*
X397729Y397739D01*
X400050Y397433D01*
X412750D01*
X415071Y397739D01*
X417233Y398635D01*
X419090Y400060D01*
X420515Y401917D01*
X421411Y404079D01*
X421717Y406400D01*
X421411Y408721D01*
X420515Y410883D01*
X419090Y412740D01*
X417233Y414165D01*
X415071Y415061D01*
X412750Y415367D01*
X400050D01*
X397729Y415061D01*
X395567Y414165D01*
X393710Y412740D01*
X392660Y411373D01*
X391718Y411185D01*
X390037Y410062D01*
X385205Y405229D01*
X331330D01*
Y408560D01*
X333690D01*
Y429640D01*
D02*
G37*
G36*
X48140Y422790D02*
X28060D01*
Y402710D01*
X48140D01*
Y407570D01*
X100719D01*
X101610Y406410D01*
X103467Y404985D01*
X105629Y404089D01*
X107950Y403783D01*
X120650D01*
X122971Y404089D01*
X125133Y404985D01*
X126990Y406410D01*
X128415Y408267D01*
X129311Y410429D01*
X129617Y412750D01*
X129311Y415071D01*
X128415Y417233D01*
X126990Y419090D01*
X125133Y420515D01*
X122971Y421411D01*
X120650Y421717D01*
X107950D01*
X105629Y421411D01*
X103467Y420515D01*
X101610Y419090D01*
X100719Y417929D01*
X48140D01*
Y422790D01*
D02*
G37*
G36*
X196850Y396317D02*
X191770D01*
Y388620D01*
X205650D01*
X205511Y389671D01*
X204615Y391833D01*
X203190Y393690D01*
X201333Y395115D01*
X199171Y396011D01*
X196850Y396317D01*
D02*
G37*
G36*
X120650D02*
X115570D01*
Y388620D01*
X129450D01*
X129311Y389671D01*
X128415Y391833D01*
X126990Y393690D01*
X125133Y395115D01*
X122971Y396011D01*
X120650Y396317D01*
D02*
G37*
G36*
X189230D02*
X184150D01*
X181829Y396011D01*
X179667Y395115D01*
X177810Y393690D01*
X176385Y391833D01*
X175489Y389671D01*
X175350Y388620D01*
X189230D01*
Y396317D01*
D02*
G37*
G36*
X113030D02*
X107950D01*
X105629Y396011D01*
X103467Y395115D01*
X101610Y393690D01*
X100185Y391833D01*
X99289Y389671D01*
X99150Y388620D01*
X113030D01*
Y396317D01*
D02*
G37*
G36*
X205650Y386080D02*
X191770D01*
Y378383D01*
X196850D01*
X199171Y378689D01*
X201333Y379585D01*
X203190Y381010D01*
X204615Y382867D01*
X205511Y385029D01*
X205650Y386080D01*
D02*
G37*
G36*
X189230D02*
X175350D01*
X175489Y385029D01*
X176385Y382867D01*
X177810Y381010D01*
X179667Y379585D01*
X181829Y378689D01*
X184150Y378383D01*
X189230D01*
Y386080D01*
D02*
G37*
G36*
X129450D02*
X115570D01*
Y378383D01*
X120650D01*
X122971Y378689D01*
X125133Y379585D01*
X126990Y381010D01*
X128415Y382867D01*
X129311Y385029D01*
X129450Y386080D01*
D02*
G37*
G36*
X113030D02*
X99150D01*
X99289Y385029D01*
X100185Y382867D01*
X101610Y381010D01*
X103467Y379585D01*
X105629Y378689D01*
X107950Y378383D01*
X113030D01*
Y386080D01*
D02*
G37*
G36*
X600390Y474090D02*
X585310D01*
Y453010D01*
X587671D01*
Y448690D01*
X585310D01*
Y427610D01*
X587671D01*
Y423290D01*
X585310D01*
Y402210D01*
X587671D01*
Y366396D01*
X575705Y354430D01*
X529185D01*
X528559Y355700D01*
X529470Y356887D01*
X530482Y359329D01*
X530827Y361950D01*
X530482Y364571D01*
X529470Y367013D01*
X527861Y369111D01*
X527359Y369495D01*
X527790Y370765D01*
X571500D01*
X572987Y371061D01*
X574247Y371903D01*
X580597Y378253D01*
X581439Y379513D01*
X581735Y381000D01*
Y431800D01*
X581439Y433287D01*
X580597Y434547D01*
X574247Y440897D01*
X572987Y441739D01*
X571500Y442035D01*
X570390D01*
Y448690D01*
X555310D01*
Y443330D01*
X529381D01*
X527861Y445311D01*
X525763Y446920D01*
X523321Y447932D01*
X520700Y448277D01*
X518079Y447932D01*
X515637Y446920D01*
X513539Y445311D01*
X511930Y443213D01*
X510918Y440771D01*
X510573Y438150D01*
X510918Y435529D01*
X511930Y433087D01*
X513539Y430989D01*
X515637Y429380D01*
X518079Y428368D01*
X520700Y428023D01*
X523321Y428368D01*
X525763Y429380D01*
X527861Y430989D01*
X529381Y432971D01*
X555310D01*
Y427610D01*
X570390D01*
Y432107D01*
X571563Y432593D01*
X573965Y430191D01*
Y382609D01*
X569891Y378535D01*
X527790D01*
X527359Y379805D01*
X527861Y380189D01*
X529470Y382287D01*
X530482Y384729D01*
X530827Y387350D01*
X530482Y389971D01*
X529470Y392413D01*
X528559Y393601D01*
X529185Y394870D01*
X550150D01*
X552132Y395265D01*
X553812Y396387D01*
X559635Y402210D01*
X570390D01*
Y423290D01*
X555310D01*
Y412535D01*
X548004Y405229D01*
X529185D01*
X528559Y406499D01*
X529470Y407687D01*
X530482Y410129D01*
X530827Y412750D01*
X530482Y415371D01*
X529470Y417813D01*
X527861Y419911D01*
X525763Y421520D01*
X523321Y422532D01*
X520700Y422877D01*
X518079Y422532D01*
X515637Y421520D01*
X513539Y419911D01*
X511930Y417813D01*
X510918Y415371D01*
X510573Y412750D01*
X510918Y410129D01*
X511930Y407687D01*
X512841Y406499D01*
X512215Y405229D01*
X498726D01*
X497888Y406184D01*
X497917Y406400D01*
X497611Y408721D01*
X496715Y410883D01*
X495290Y412740D01*
X493433Y414165D01*
X491271Y415061D01*
X488950Y415367D01*
X487780D01*
Y422833D01*
X488950D01*
X491271Y423139D01*
X493433Y424035D01*
X495290Y425460D01*
X496715Y427317D01*
X497611Y429479D01*
X497917Y431800D01*
X497611Y434121D01*
X496715Y436283D01*
X495290Y438140D01*
X493433Y439565D01*
X491271Y440461D01*
X488950Y440767D01*
X476250D01*
X473929Y440461D01*
X471767Y439565D01*
X469910Y438140D01*
X468485Y436283D01*
X467589Y434121D01*
X467283Y431800D01*
X467589Y429479D01*
X468485Y427317D01*
X469910Y425460D01*
X471767Y424035D01*
X473929Y423139D01*
X476250Y422833D01*
X477421D01*
Y415367D01*
X476250D01*
X473929Y415061D01*
X471767Y414165D01*
X469910Y412740D01*
X468485Y410883D01*
X467589Y408721D01*
X467283Y406400D01*
X467589Y404079D01*
X468485Y401917D01*
X469910Y400060D01*
X471767Y398635D01*
X473929Y397739D01*
X476250Y397433D01*
X484242D01*
X485288Y396387D01*
X486968Y395265D01*
X488950Y394870D01*
X512215D01*
X512841Y393601D01*
X511930Y392413D01*
X510918Y389971D01*
X510573Y387350D01*
X510918Y384729D01*
X511930Y382287D01*
X513539Y380189D01*
X514041Y379805D01*
X513610Y378535D01*
X497840D01*
Y389890D01*
X467360D01*
Y372110D01*
X485996D01*
X486203Y371903D01*
X487463Y371061D01*
X488950Y370765D01*
X513610D01*
X514041Y369495D01*
X513539Y369111D01*
X511930Y367013D01*
X510918Y364571D01*
X510573Y361950D01*
X510918Y359329D01*
X511930Y356887D01*
X512841Y355700D01*
X512215Y354430D01*
X501650D01*
X499668Y354035D01*
X497988Y352912D01*
X486805Y341730D01*
X473590D01*
Y346590D01*
X453510D01*
Y344236D01*
X407736D01*
Y352416D01*
X411835Y356515D01*
X411835Y356515D01*
X413056Y358107D01*
X413824Y359961D01*
X414086Y361950D01*
Y372209D01*
X415071Y372339D01*
X417233Y373235D01*
X419090Y374660D01*
X420515Y376517D01*
X421411Y378679D01*
X421717Y381000D01*
X421411Y383321D01*
X420515Y385483D01*
X419090Y387340D01*
X417233Y388765D01*
X415071Y389661D01*
X412750Y389967D01*
X400050D01*
X397729Y389661D01*
X395567Y388765D01*
X393710Y387340D01*
X392285Y385483D01*
X391389Y383321D01*
X391083Y381000D01*
X391389Y378679D01*
X392285Y376517D01*
X393710Y374660D01*
X395567Y373235D01*
X397729Y372339D01*
X398714Y372209D01*
Y367130D01*
X301329D01*
Y370460D01*
X303690D01*
Y391540D01*
X288610D01*
Y386180D01*
X270390D01*
Y391040D01*
X250310D01*
Y370960D01*
X270390D01*
Y375821D01*
X288610D01*
Y370460D01*
X290970D01*
Y364250D01*
X291364Y362268D01*
X292487Y360588D01*
X294788Y358288D01*
X296468Y357165D01*
X298450Y356771D01*
X391555D01*
X392393Y355816D01*
X392364Y355600D01*
Y343026D01*
X391280Y341613D01*
X390268Y339171D01*
X389923Y336550D01*
X390268Y333929D01*
X391280Y331487D01*
X392364Y330074D01*
Y317626D01*
X391280Y316213D01*
X390268Y313771D01*
X389923Y311150D01*
X390268Y308529D01*
X391280Y306087D01*
X392364Y304674D01*
Y292226D01*
X391280Y290813D01*
X390268Y288371D01*
X389923Y285750D01*
X390268Y283129D01*
X391280Y280687D01*
X392364Y279274D01*
Y270390D01*
X390010D01*
Y250310D01*
X410090D01*
Y270390D01*
X407736D01*
Y279274D01*
X408820Y280687D01*
X409832Y283129D01*
X410177Y285750D01*
X409832Y288371D01*
X408820Y290813D01*
X407736Y292226D01*
Y304674D01*
X408820Y306087D01*
X409832Y308529D01*
X410177Y311150D01*
X409832Y313771D01*
X408820Y316213D01*
X407736Y317626D01*
Y328864D01*
X453510D01*
Y326510D01*
X473590D01*
Y331371D01*
X488950D01*
X490932Y331765D01*
X492612Y332887D01*
X503795Y344071D01*
X512215D01*
X512841Y342800D01*
X511930Y341613D01*
X510918Y339171D01*
X510573Y336550D01*
X510918Y333929D01*
X511930Y331487D01*
X513539Y329389D01*
X515637Y327780D01*
X518079Y326768D01*
X520700Y326423D01*
X523321Y326768D01*
X525763Y327780D01*
X527861Y329389D01*
X529470Y331487D01*
X530482Y333929D01*
X530827Y336550D01*
X530482Y339171D01*
X529470Y341613D01*
X528559Y342800D01*
X529185Y344071D01*
X577850D01*
X579832Y344465D01*
X581512Y345588D01*
X596513Y360588D01*
X597635Y362268D01*
X598030Y364250D01*
Y402210D01*
X600390D01*
Y406489D01*
X601660Y407015D01*
X631338Y377337D01*
X633018Y376215D01*
X635000Y375821D01*
X645469D01*
X646360Y374660D01*
X648217Y373235D01*
X650379Y372339D01*
X652700Y372033D01*
X655021Y372339D01*
X657184Y373235D01*
X659041Y374660D01*
X660466Y376517D01*
X661361Y378679D01*
X661667Y381000D01*
X661361Y383321D01*
X660466Y385483D01*
X659041Y387340D01*
X657184Y388765D01*
X655021Y389661D01*
X652700Y389967D01*
X650379Y389661D01*
X648217Y388765D01*
X646360Y387340D01*
X645469Y386180D01*
X637145D01*
X606912Y416413D01*
X605232Y417535D01*
X603250Y417929D01*
X600390D01*
Y423290D01*
X598030D01*
Y427610D01*
X600390D01*
Y448690D01*
X598030D01*
Y453010D01*
X600390D01*
Y474090D01*
D02*
G37*
G36*
X38100Y397477D02*
X35479Y397132D01*
X33037Y396120D01*
X30939Y394511D01*
X29330Y392413D01*
X28318Y389971D01*
X27973Y387350D01*
X28318Y384729D01*
X29330Y382287D01*
X30939Y380189D01*
X33037Y378580D01*
X35479Y377568D01*
X38100Y377223D01*
X40721Y377568D01*
X43163Y378580D01*
X45261Y380189D01*
X46781Y382170D01*
X74055D01*
X97937Y358288D01*
X97937Y358288D01*
X99618Y357165D01*
X100560Y356977D01*
X101610Y355610D01*
X103467Y354185D01*
X105629Y353289D01*
X107950Y352983D01*
X120650D01*
X122971Y353289D01*
X125133Y354185D01*
X126990Y355610D01*
X128415Y357467D01*
X129311Y359629D01*
X129617Y361950D01*
X129311Y364271D01*
X128415Y366433D01*
X126990Y368290D01*
X125133Y369715D01*
X122971Y370611D01*
X120650Y370917D01*
X107950D01*
X105629Y370611D01*
X103467Y369715D01*
X102161Y368714D01*
X79862Y391012D01*
X78182Y392135D01*
X76200Y392529D01*
X46781D01*
X45261Y394511D01*
X43163Y396120D01*
X40721Y397132D01*
X38100Y397477D01*
D02*
G37*
G36*
X303690Y347090D02*
X288610D01*
Y341730D01*
X278840D01*
Y347090D01*
X263760D01*
Y326010D01*
X278840D01*
Y331371D01*
X288610D01*
Y326010D01*
X303690D01*
Y347090D01*
D02*
G37*
G36*
X196850Y345517D02*
X191770D01*
Y337820D01*
X205650D01*
X205511Y338871D01*
X204615Y341033D01*
X203190Y342890D01*
X201333Y344315D01*
X199171Y345211D01*
X196850Y345517D01*
D02*
G37*
G36*
X120650D02*
X115570D01*
Y337820D01*
X129450D01*
X129311Y338871D01*
X128415Y341033D01*
X126990Y342890D01*
X125133Y344315D01*
X122971Y345211D01*
X120650Y345517D01*
D02*
G37*
G36*
X189230D02*
X184150D01*
X181829Y345211D01*
X179667Y344315D01*
X177810Y342890D01*
X176385Y341033D01*
X175489Y338871D01*
X175350Y337820D01*
X189230D01*
Y345517D01*
D02*
G37*
G36*
X113030D02*
X107950D01*
X105629Y345211D01*
X103467Y344315D01*
X101610Y342890D01*
X100185Y341033D01*
X99289Y338871D01*
X99150Y337820D01*
X113030D01*
Y345517D01*
D02*
G37*
G36*
X205650Y335280D02*
X191770D01*
Y327583D01*
X196850D01*
X199171Y327889D01*
X201333Y328785D01*
X203190Y330210D01*
X204615Y332067D01*
X205511Y334229D01*
X205650Y335280D01*
D02*
G37*
G36*
X189230D02*
X175350D01*
X175489Y334229D01*
X176385Y332067D01*
X177810Y330210D01*
X179667Y328785D01*
X181829Y327889D01*
X184150Y327583D01*
X189230D01*
Y335280D01*
D02*
G37*
G36*
X129450D02*
X115570D01*
Y327583D01*
X120650D01*
X122971Y327889D01*
X125133Y328785D01*
X126990Y330210D01*
X128415Y332067D01*
X129311Y334229D01*
X129450Y335280D01*
D02*
G37*
G36*
X113030D02*
X99150D01*
X99289Y334229D01*
X100185Y332067D01*
X101610Y330210D01*
X103467Y328785D01*
X105629Y327889D01*
X107950Y327583D01*
X113030D01*
Y335280D01*
D02*
G37*
G36*
X333690Y347090D02*
X318610D01*
Y326010D01*
X333690D01*
Y331371D01*
X365969D01*
X367489Y329389D01*
X369587Y327780D01*
X372029Y326768D01*
X374650Y326423D01*
X377271Y326768D01*
X379713Y327780D01*
X381811Y329389D01*
X383420Y331487D01*
X384432Y333929D01*
X384777Y336550D01*
X384432Y339171D01*
X383420Y341613D01*
X381811Y343711D01*
X379713Y345320D01*
X377271Y346332D01*
X374650Y346677D01*
X372029Y346332D01*
X369587Y345320D01*
X367489Y343711D01*
X365969Y341730D01*
X333690D01*
Y347090D01*
D02*
G37*
G36*
X196850Y421717D02*
X184150D01*
X181829Y421411D01*
X179667Y420515D01*
X177810Y419090D01*
X176385Y417233D01*
X175489Y415071D01*
X175183Y412750D01*
X175489Y410429D01*
X176385Y408267D01*
X177810Y406410D01*
X179667Y404985D01*
X181829Y404089D01*
X184150Y403783D01*
X196850D01*
X199171Y404089D01*
X201333Y404985D01*
X202639Y405986D01*
X223421Y385205D01*
Y349250D01*
X223815Y347268D01*
X224937Y345588D01*
X233760Y336765D01*
Y326010D01*
X248840D01*
Y347090D01*
X238085D01*
X233780Y351395D01*
Y387350D01*
X233780Y387350D01*
X233385Y389332D01*
X232262Y391012D01*
X232262Y391012D01*
X206863Y416413D01*
X205182Y417535D01*
X204240Y417723D01*
X203190Y419090D01*
X201333Y420515D01*
X199171Y421411D01*
X196850Y421717D01*
D02*
G37*
G36*
X520700Y321277D02*
X518079Y320932D01*
X515637Y319920D01*
X513539Y318311D01*
X512019Y316329D01*
X472231D01*
X470711Y318311D01*
X468613Y319920D01*
X466171Y320932D01*
X463550Y321277D01*
X460929Y320932D01*
X458487Y319920D01*
X456389Y318311D01*
X454780Y316213D01*
X453768Y313771D01*
X453423Y311150D01*
X453768Y308529D01*
X454780Y306087D01*
X456389Y303989D01*
X458487Y302380D01*
X460929Y301368D01*
X463550Y301023D01*
X466171Y301368D01*
X468613Y302380D01*
X470711Y303989D01*
X472231Y305970D01*
X512019D01*
X513539Y303989D01*
X515637Y302380D01*
X518079Y301368D01*
X520700Y301023D01*
X523321Y301368D01*
X525763Y302380D01*
X527861Y303989D01*
X529470Y306087D01*
X530482Y308529D01*
X530827Y311150D01*
X530482Y313771D01*
X529470Y316213D01*
X527861Y318311D01*
X525763Y319920D01*
X523321Y320932D01*
X520700Y321277D01*
D02*
G37*
G36*
X303690Y321690D02*
X288610D01*
Y316329D01*
X278840D01*
Y321690D01*
X263760D01*
Y300610D01*
X278840D01*
Y305970D01*
X288610D01*
Y300610D01*
X303690D01*
Y321690D01*
D02*
G37*
G36*
X38100Y372077D02*
X35479Y371732D01*
X33037Y370720D01*
X30939Y369111D01*
X29330Y367013D01*
X28318Y364571D01*
X27973Y361950D01*
X28318Y359329D01*
X29330Y356887D01*
X30939Y354789D01*
X33037Y353180D01*
X35479Y352168D01*
X38100Y351823D01*
X40721Y352168D01*
X43163Y353180D01*
X45261Y354789D01*
X46781Y356771D01*
X61355D01*
X71020Y347105D01*
Y323850D01*
X71415Y321868D01*
X72537Y320187D01*
X85238Y307488D01*
X86918Y306365D01*
X88900Y305970D01*
X100719D01*
X101610Y304810D01*
X103467Y303385D01*
X105629Y302489D01*
X107950Y302183D01*
X120650D01*
X122971Y302489D01*
X125133Y303385D01*
X126990Y304810D01*
X128415Y306667D01*
X129311Y308829D01*
X129617Y311150D01*
X129311Y313471D01*
X128415Y315633D01*
X126990Y317490D01*
X125133Y318915D01*
X122971Y319811D01*
X120650Y320117D01*
X107950D01*
X105629Y319811D01*
X103467Y318915D01*
X101610Y317490D01*
X100719Y316329D01*
X91045D01*
X81379Y325995D01*
Y349250D01*
X80985Y351232D01*
X79862Y352912D01*
X67162Y365612D01*
X65482Y366735D01*
X63500Y367130D01*
X46781D01*
X45261Y369111D01*
X43163Y370720D01*
X40721Y371732D01*
X38100Y372077D01*
D02*
G37*
G36*
X333690Y321690D02*
X318610D01*
Y300610D01*
X333690D01*
Y305970D01*
X365969D01*
X367489Y303989D01*
X369587Y302380D01*
X372029Y301368D01*
X374650Y301023D01*
X377271Y301368D01*
X379713Y302380D01*
X381811Y303989D01*
X383420Y306087D01*
X384432Y308529D01*
X384777Y311150D01*
X384432Y313771D01*
X383420Y316213D01*
X381811Y318311D01*
X379713Y319920D01*
X377271Y320932D01*
X374650Y321277D01*
X372029Y320932D01*
X369587Y319920D01*
X367489Y318311D01*
X365969Y316329D01*
X333690D01*
Y321690D01*
D02*
G37*
G36*
X38100Y321277D02*
X35479Y320932D01*
X33037Y319920D01*
X30939Y318311D01*
X29330Y316213D01*
X28318Y313771D01*
X27973Y311150D01*
X28318Y308529D01*
X29330Y306087D01*
X30939Y303989D01*
X33037Y302380D01*
X35479Y301368D01*
X38100Y301023D01*
X40721Y301368D01*
X43163Y302380D01*
X45261Y303989D01*
X46870Y306087D01*
X47882Y308529D01*
X48227Y311150D01*
X47882Y313771D01*
X46870Y316213D01*
X45261Y318311D01*
X43163Y319920D01*
X40721Y320932D01*
X38100Y321277D01*
D02*
G37*
G36*
X196850Y370917D02*
X184150D01*
X181829Y370611D01*
X179667Y369715D01*
X177810Y368290D01*
X176385Y366433D01*
X175489Y364271D01*
X175183Y361950D01*
X175489Y359629D01*
X176385Y357467D01*
X177810Y355610D01*
X179667Y354185D01*
X181829Y353289D01*
X184150Y352983D01*
X196850D01*
X199171Y353289D01*
X201333Y354185D01*
X202639Y355186D01*
X210721Y347105D01*
Y323850D01*
X211115Y321868D01*
X212237Y320187D01*
X224937Y307488D01*
X226618Y306365D01*
X228600Y305970D01*
X233760D01*
Y300610D01*
X248840D01*
Y321690D01*
X233760D01*
Y316329D01*
X230745D01*
X221080Y325995D01*
Y349250D01*
X220685Y351232D01*
X219562Y352912D01*
X206863Y365612D01*
X205182Y366735D01*
X204240Y366923D01*
X203190Y368290D01*
X201333Y369715D01*
X199171Y370611D01*
X196850Y370917D01*
D02*
G37*
G36*
X520700Y295877D02*
X518079Y295532D01*
X515637Y294520D01*
X513539Y292911D01*
X512019Y290930D01*
X472231D01*
X470711Y292911D01*
X468613Y294520D01*
X466171Y295532D01*
X463550Y295877D01*
X460929Y295532D01*
X458487Y294520D01*
X456389Y292911D01*
X454780Y290813D01*
X453768Y288371D01*
X453423Y285750D01*
X453768Y283129D01*
X454780Y280687D01*
X456389Y278589D01*
X458487Y276980D01*
X460929Y275968D01*
X463550Y275623D01*
X466171Y275968D01*
X468613Y276980D01*
X470711Y278589D01*
X472231Y280571D01*
X512019D01*
X513539Y278589D01*
X515637Y276980D01*
X518079Y275968D01*
X520700Y275623D01*
X523321Y275968D01*
X525763Y276980D01*
X527861Y278589D01*
X529470Y280687D01*
X530482Y283129D01*
X530827Y285750D01*
X530482Y288371D01*
X529470Y290813D01*
X527861Y292911D01*
X525763Y294520D01*
X523321Y295532D01*
X520700Y295877D01*
D02*
G37*
G36*
X303690Y296290D02*
X288610D01*
Y290930D01*
X278840D01*
Y296290D01*
X263760D01*
Y275210D01*
X278840D01*
Y280571D01*
X288610D01*
Y275210D01*
X303690D01*
Y296290D01*
D02*
G37*
G36*
X196850Y294717D02*
X191770D01*
Y287020D01*
X205650D01*
X205511Y288071D01*
X204615Y290233D01*
X203190Y292090D01*
X201333Y293515D01*
X199171Y294411D01*
X196850Y294717D01*
D02*
G37*
G36*
X120650D02*
X115570D01*
Y287020D01*
X129450D01*
X129311Y288071D01*
X128415Y290233D01*
X126990Y292090D01*
X125133Y293515D01*
X122971Y294411D01*
X120650Y294717D01*
D02*
G37*
G36*
X189230D02*
X184150D01*
X181829Y294411D01*
X179667Y293515D01*
X177810Y292090D01*
X176385Y290233D01*
X175489Y288071D01*
X175350Y287020D01*
X189230D01*
Y294717D01*
D02*
G37*
G36*
X113030D02*
X107950D01*
X105629Y294411D01*
X103467Y293515D01*
X101610Y292090D01*
X100185Y290233D01*
X99289Y288071D01*
X99150Y287020D01*
X113030D01*
Y294717D01*
D02*
G37*
G36*
X725900Y314475D02*
X722462Y314136D01*
X719155Y313133D01*
X716108Y311504D01*
X713437Y309313D01*
X711245Y306642D01*
X709617Y303595D01*
X708614Y300288D01*
X708275Y296850D01*
X708614Y293412D01*
X709617Y290105D01*
X711245Y287058D01*
X713437Y284387D01*
X716108Y282195D01*
X719155Y280567D01*
X722462Y279564D01*
X725900Y279225D01*
X729338Y279564D01*
X732645Y280567D01*
X735692Y282195D01*
X738363Y284387D01*
X740555Y287058D01*
X742183Y290105D01*
X743186Y293412D01*
X743525Y296850D01*
X743186Y300288D01*
X742183Y303595D01*
X740555Y306642D01*
X738363Y309313D01*
X735692Y311504D01*
X732645Y313133D01*
X729338Y314136D01*
X725900Y314475D01*
D02*
G37*
G36*
X205650Y284480D02*
X191770D01*
Y276783D01*
X196850D01*
X199171Y277089D01*
X201333Y277985D01*
X203190Y279410D01*
X204615Y281267D01*
X205511Y283429D01*
X205650Y284480D01*
D02*
G37*
G36*
X189230D02*
X175350D01*
X175489Y283429D01*
X176385Y281267D01*
X177810Y279410D01*
X179667Y277985D01*
X181829Y277089D01*
X184150Y276783D01*
X189230D01*
Y284480D01*
D02*
G37*
G36*
X129450D02*
X115570D01*
Y276783D01*
X120650D01*
X122971Y277089D01*
X125133Y277985D01*
X126990Y279410D01*
X128415Y281267D01*
X129311Y283429D01*
X129450Y284480D01*
D02*
G37*
G36*
X113030D02*
X99150D01*
X99289Y283429D01*
X100185Y281267D01*
X101610Y279410D01*
X103467Y277985D01*
X105629Y277089D01*
X107950Y276783D01*
X113030D01*
Y284480D01*
D02*
G37*
G36*
X333690Y296290D02*
X318610D01*
Y275210D01*
X333690D01*
Y280571D01*
X365969D01*
X367489Y278589D01*
X369587Y276980D01*
X372029Y275968D01*
X374650Y275623D01*
X377271Y275968D01*
X379713Y276980D01*
X381811Y278589D01*
X383420Y280687D01*
X384432Y283129D01*
X384777Y285750D01*
X384432Y288371D01*
X383420Y290813D01*
X381811Y292911D01*
X379713Y294520D01*
X377271Y295532D01*
X374650Y295877D01*
X372029Y295532D01*
X369587Y294520D01*
X367489Y292911D01*
X365969Y290930D01*
X333690D01*
Y296290D01*
D02*
G37*
G36*
X38100Y295877D02*
X35479Y295532D01*
X33037Y294520D01*
X30939Y292911D01*
X29330Y290813D01*
X28318Y288371D01*
X27973Y285750D01*
X28318Y283129D01*
X29330Y280687D01*
X30939Y278589D01*
X33037Y276980D01*
X35479Y275968D01*
X38100Y275623D01*
X40721Y275968D01*
X43163Y276980D01*
X45261Y278589D01*
X46870Y280687D01*
X47882Y283129D01*
X48227Y285750D01*
X47882Y288371D01*
X46870Y290813D01*
X45261Y292911D01*
X43163Y294520D01*
X40721Y295532D01*
X38100Y295877D01*
D02*
G37*
G36*
X196850Y320117D02*
X184150D01*
X181829Y319811D01*
X179667Y318915D01*
X177810Y317490D01*
X176385Y315633D01*
X175489Y313471D01*
X175183Y311150D01*
X175489Y308829D01*
X176385Y306667D01*
X177810Y304810D01*
X179667Y303385D01*
X181829Y302489D01*
X184150Y302183D01*
X196850D01*
X199171Y302489D01*
X201333Y303385D01*
X202639Y304386D01*
X224937Y282088D01*
X224937Y282087D01*
X226618Y280965D01*
X228600Y280571D01*
X228600Y280571D01*
X233760D01*
Y275210D01*
X248840D01*
Y296290D01*
X233760D01*
Y290930D01*
X230745D01*
X206863Y314813D01*
X205182Y315935D01*
X204240Y316123D01*
X203190Y317490D01*
X201333Y318915D01*
X199171Y319811D01*
X196850Y320117D01*
D02*
G37*
G36*
X303690Y270890D02*
X288610D01*
Y265529D01*
X278840D01*
Y270890D01*
X263760D01*
Y249810D01*
X278840D01*
Y255170D01*
X288610D01*
Y249810D01*
X303690D01*
Y270890D01*
D02*
G37*
G36*
X248840D02*
X233760D01*
Y265529D01*
X205740D01*
Y269240D01*
X175260D01*
Y251460D01*
X205740D01*
Y255170D01*
X233760D01*
Y249810D01*
X248840D01*
Y270890D01*
D02*
G37*
G36*
X464820Y270309D02*
Y261620D01*
X473509D01*
X473332Y262971D01*
X472320Y265413D01*
X470711Y267511D01*
X468613Y269120D01*
X466171Y270132D01*
X464820Y270309D01*
D02*
G37*
G36*
X462280D02*
X460929Y270132D01*
X458487Y269120D01*
X456389Y267511D01*
X454780Y265413D01*
X453768Y262971D01*
X453591Y261620D01*
X462280D01*
Y270309D01*
D02*
G37*
G36*
X38100Y346677D02*
X35479Y346332D01*
X33037Y345320D01*
X30939Y343711D01*
X29330Y341613D01*
X28318Y339171D01*
X27973Y336550D01*
X28318Y333929D01*
X29330Y331487D01*
X30939Y329389D01*
X33037Y327780D01*
X35479Y326768D01*
X38100Y326423D01*
X40721Y326768D01*
X43163Y327780D01*
X45261Y329389D01*
X46781Y331371D01*
X48655D01*
X58320Y321705D01*
Y273050D01*
X58715Y271068D01*
X59837Y269387D01*
X72537Y256688D01*
X74218Y255565D01*
X76200Y255170D01*
X100719D01*
X101610Y254010D01*
X103467Y252585D01*
X105629Y251689D01*
X107950Y251383D01*
X120650D01*
X122971Y251689D01*
X125133Y252585D01*
X126990Y254010D01*
X128415Y255867D01*
X129311Y258029D01*
X129617Y260350D01*
X129311Y262671D01*
X128415Y264833D01*
X126990Y266690D01*
X125133Y268115D01*
X122971Y269011D01*
X120650Y269317D01*
X107950D01*
X105629Y269011D01*
X103467Y268115D01*
X101610Y266690D01*
X100719Y265529D01*
X78345D01*
X68679Y275195D01*
Y323850D01*
X68285Y325832D01*
X67162Y327513D01*
X54462Y340213D01*
X52782Y341335D01*
X50800Y341730D01*
X46781D01*
X45261Y343711D01*
X43163Y345320D01*
X40721Y346332D01*
X38100Y346677D01*
D02*
G37*
G36*
X473509Y259080D02*
X464820D01*
Y250391D01*
X466171Y250568D01*
X468613Y251580D01*
X470711Y253189D01*
X472320Y255287D01*
X473332Y257729D01*
X473509Y259080D01*
D02*
G37*
G36*
X462280D02*
X453591D01*
X453768Y257729D01*
X454780Y255287D01*
X456389Y253189D01*
X458487Y251580D01*
X460929Y250568D01*
X462280Y250391D01*
Y259080D01*
D02*
G37*
G36*
X333690Y270890D02*
X318610D01*
Y249810D01*
X333690D01*
Y255170D01*
X365969D01*
X367489Y253189D01*
X369587Y251580D01*
X372029Y250568D01*
X374650Y250223D01*
X377271Y250568D01*
X379713Y251580D01*
X381811Y253189D01*
X383420Y255287D01*
X384432Y257729D01*
X384777Y260350D01*
X384432Y262971D01*
X383420Y265413D01*
X381811Y267511D01*
X379713Y269120D01*
X377271Y270132D01*
X374650Y270477D01*
X372029Y270132D01*
X369587Y269120D01*
X367489Y267511D01*
X365969Y265529D01*
X333690D01*
Y270890D01*
D02*
G37*
G36*
X38100Y270477D02*
X35479Y270132D01*
X33037Y269120D01*
X30939Y267511D01*
X29330Y265413D01*
X28318Y262971D01*
X27973Y260350D01*
X28318Y257729D01*
X29330Y255287D01*
X30939Y253189D01*
X33037Y251580D01*
X35479Y250568D01*
X38100Y250223D01*
X40721Y250568D01*
X43163Y251580D01*
X45261Y253189D01*
X46870Y255287D01*
X47882Y257729D01*
X48227Y260350D01*
X47882Y262971D01*
X46870Y265413D01*
X45261Y267511D01*
X43163Y269120D01*
X40721Y270132D01*
X38100Y270477D01*
D02*
G37*
G36*
X520700Y266280D02*
X517066Y265922D01*
X513571Y264862D01*
X510350Y263140D01*
X507527Y260823D01*
X505210Y258000D01*
X503488Y254779D01*
X502428Y251285D01*
X502070Y247650D01*
X502428Y244016D01*
X503488Y240521D01*
X505210Y237300D01*
X507527Y234477D01*
X510350Y232160D01*
X513571Y230438D01*
X517066Y229378D01*
X520700Y229020D01*
X524334Y229378D01*
X527829Y230438D01*
X531050Y232160D01*
X533873Y234477D01*
X536190Y237300D01*
X537912Y240521D01*
X538972Y244016D01*
X539330Y247650D01*
X538972Y251285D01*
X537912Y254779D01*
X536190Y258000D01*
X533873Y260823D01*
X531050Y263140D01*
X527829Y264862D01*
X524334Y265922D01*
X520700Y266280D01*
D02*
G37*
G36*
X90170Y219509D02*
Y210820D01*
X98859D01*
X98682Y212171D01*
X97670Y214613D01*
X96061Y216711D01*
X93963Y218320D01*
X91521Y219332D01*
X90170Y219509D01*
D02*
G37*
G36*
X87630D02*
X86279Y219332D01*
X83837Y218320D01*
X81739Y216711D01*
X80130Y214613D01*
X79118Y212171D01*
X78941Y210820D01*
X87630D01*
Y219509D01*
D02*
G37*
G36*
X98859Y208280D02*
X90170D01*
Y199591D01*
X91521Y199768D01*
X93963Y200780D01*
X96061Y202389D01*
X97670Y204487D01*
X98682Y206929D01*
X98859Y208280D01*
D02*
G37*
G36*
X87630D02*
X78941D01*
X79118Y206929D01*
X80130Y204487D01*
X81739Y202389D01*
X83837Y200780D01*
X86279Y199768D01*
X87630Y199591D01*
Y208280D01*
D02*
G37*
G36*
X469900Y219677D02*
X467279Y219332D01*
X464837Y218320D01*
X462739Y216711D01*
X461130Y214613D01*
X460118Y212171D01*
X459773Y209550D01*
X460118Y206929D01*
X461130Y204487D01*
X462739Y202389D01*
X464837Y200780D01*
X467279Y199768D01*
X469900Y199423D01*
X472521Y199768D01*
X474963Y200780D01*
X477061Y202389D01*
X478670Y204487D01*
X479682Y206929D01*
X480027Y209550D01*
X479682Y212171D01*
X478670Y214613D01*
X477061Y216711D01*
X474963Y218320D01*
X472521Y219332D01*
X469900Y219677D01*
D02*
G37*
G36*
X444500D02*
X441879Y219332D01*
X439437Y218320D01*
X437339Y216711D01*
X435730Y214613D01*
X434718Y212171D01*
X434373Y209550D01*
X434718Y206929D01*
X435730Y204487D01*
X437339Y202389D01*
X439437Y200780D01*
X441879Y199768D01*
X444500Y199423D01*
X447121Y199768D01*
X449563Y200780D01*
X451661Y202389D01*
X453270Y204487D01*
X454282Y206929D01*
X454627Y209550D01*
X454282Y212171D01*
X453270Y214613D01*
X451661Y216711D01*
X449563Y218320D01*
X447121Y219332D01*
X444500Y219677D01*
D02*
G37*
G36*
X419100D02*
X416479Y219332D01*
X414037Y218320D01*
X411939Y216711D01*
X410330Y214613D01*
X409318Y212171D01*
X408973Y209550D01*
X409318Y206929D01*
X410330Y204487D01*
X411939Y202389D01*
X414037Y200780D01*
X416479Y199768D01*
X419100Y199423D01*
X421721Y199768D01*
X424163Y200780D01*
X426261Y202389D01*
X427870Y204487D01*
X428882Y206929D01*
X429227Y209550D01*
X428882Y212171D01*
X427870Y214613D01*
X426261Y216711D01*
X424163Y218320D01*
X421721Y219332D01*
X419100Y219677D01*
D02*
G37*
G36*
X393700D02*
X391079Y219332D01*
X388637Y218320D01*
X386539Y216711D01*
X384930Y214613D01*
X383918Y212171D01*
X383573Y209550D01*
X383918Y206929D01*
X384930Y204487D01*
X386539Y202389D01*
X388637Y200780D01*
X391079Y199768D01*
X393700Y199423D01*
X396321Y199768D01*
X398763Y200780D01*
X400861Y202389D01*
X402470Y204487D01*
X403482Y206929D01*
X403827Y209550D01*
X403482Y212171D01*
X402470Y214613D01*
X400861Y216711D01*
X398763Y218320D01*
X396321Y219332D01*
X393700Y219677D01*
D02*
G37*
G36*
X368300D02*
X365679Y219332D01*
X363237Y218320D01*
X361139Y216711D01*
X359530Y214613D01*
X358518Y212171D01*
X358173Y209550D01*
X358518Y206929D01*
X359530Y204487D01*
X361139Y202389D01*
X363237Y200780D01*
X365679Y199768D01*
X368300Y199423D01*
X370921Y199768D01*
X373363Y200780D01*
X375461Y202389D01*
X377070Y204487D01*
X378082Y206929D01*
X378427Y209550D01*
X378082Y212171D01*
X377070Y214613D01*
X375461Y216711D01*
X373363Y218320D01*
X370921Y219332D01*
X368300Y219677D01*
D02*
G37*
G36*
X342900D02*
X340279Y219332D01*
X337837Y218320D01*
X335739Y216711D01*
X334130Y214613D01*
X333118Y212171D01*
X332773Y209550D01*
X333118Y206929D01*
X334130Y204487D01*
X335739Y202389D01*
X337837Y200780D01*
X340279Y199768D01*
X342900Y199423D01*
X345521Y199768D01*
X347963Y200780D01*
X350061Y202389D01*
X351670Y204487D01*
X352682Y206929D01*
X353027Y209550D01*
X352682Y212171D01*
X351670Y214613D01*
X350061Y216711D01*
X347963Y218320D01*
X345521Y219332D01*
X342900Y219677D01*
D02*
G37*
G36*
X317500D02*
X314879Y219332D01*
X312437Y218320D01*
X310339Y216711D01*
X308730Y214613D01*
X307718Y212171D01*
X307373Y209550D01*
X307718Y206929D01*
X308730Y204487D01*
X310339Y202389D01*
X312437Y200780D01*
X314879Y199768D01*
X317500Y199423D01*
X320121Y199768D01*
X322563Y200780D01*
X324661Y202389D01*
X326270Y204487D01*
X327282Y206929D01*
X327627Y209550D01*
X327282Y212171D01*
X326270Y214613D01*
X324661Y216711D01*
X322563Y218320D01*
X320121Y219332D01*
X317500Y219677D01*
D02*
G37*
G36*
X292100D02*
X289479Y219332D01*
X287037Y218320D01*
X284939Y216711D01*
X283330Y214613D01*
X282318Y212171D01*
X281973Y209550D01*
X282318Y206929D01*
X283330Y204487D01*
X284939Y202389D01*
X287037Y200780D01*
X289479Y199768D01*
X292100Y199423D01*
X294721Y199768D01*
X297163Y200780D01*
X299261Y202389D01*
X300870Y204487D01*
X301882Y206929D01*
X302227Y209550D01*
X301882Y212171D01*
X300870Y214613D01*
X299261Y216711D01*
X297163Y218320D01*
X294721Y219332D01*
X292100Y219677D01*
D02*
G37*
G36*
X266700D02*
X264079Y219332D01*
X261637Y218320D01*
X259539Y216711D01*
X257930Y214613D01*
X256918Y212171D01*
X256573Y209550D01*
X256918Y206929D01*
X257930Y204487D01*
X259539Y202389D01*
X261637Y200780D01*
X264079Y199768D01*
X266700Y199423D01*
X269321Y199768D01*
X271763Y200780D01*
X273861Y202389D01*
X275470Y204487D01*
X276482Y206929D01*
X276827Y209550D01*
X276482Y212171D01*
X275470Y214613D01*
X273861Y216711D01*
X271763Y218320D01*
X269321Y219332D01*
X266700Y219677D01*
D02*
G37*
G36*
X241300D02*
X238679Y219332D01*
X236237Y218320D01*
X234139Y216711D01*
X232530Y214613D01*
X231518Y212171D01*
X231173Y209550D01*
X231518Y206929D01*
X232530Y204487D01*
X234139Y202389D01*
X236237Y200780D01*
X238679Y199768D01*
X241300Y199423D01*
X243921Y199768D01*
X246363Y200780D01*
X248461Y202389D01*
X250070Y204487D01*
X251082Y206929D01*
X251427Y209550D01*
X251082Y212171D01*
X250070Y214613D01*
X248461Y216711D01*
X246363Y218320D01*
X243921Y219332D01*
X241300Y219677D01*
D02*
G37*
G36*
X215900D02*
X213279Y219332D01*
X210837Y218320D01*
X208739Y216711D01*
X207130Y214613D01*
X206118Y212171D01*
X205773Y209550D01*
X206118Y206929D01*
X207130Y204487D01*
X208739Y202389D01*
X210837Y200780D01*
X213279Y199768D01*
X215900Y199423D01*
X218521Y199768D01*
X220963Y200780D01*
X223061Y202389D01*
X224670Y204487D01*
X225682Y206929D01*
X226027Y209550D01*
X225682Y212171D01*
X224670Y214613D01*
X223061Y216711D01*
X220963Y218320D01*
X218521Y219332D01*
X215900Y219677D01*
D02*
G37*
G36*
X190500D02*
X187879Y219332D01*
X185437Y218320D01*
X183339Y216711D01*
X181730Y214613D01*
X180718Y212171D01*
X180373Y209550D01*
X180718Y206929D01*
X181730Y204487D01*
X183339Y202389D01*
X185437Y200780D01*
X187879Y199768D01*
X190500Y199423D01*
X193121Y199768D01*
X195563Y200780D01*
X197661Y202389D01*
X199270Y204487D01*
X200282Y206929D01*
X200627Y209550D01*
X200282Y212171D01*
X199270Y214613D01*
X197661Y216711D01*
X195563Y218320D01*
X193121Y219332D01*
X190500Y219677D01*
D02*
G37*
G36*
X165100D02*
X162479Y219332D01*
X160037Y218320D01*
X157939Y216711D01*
X156330Y214613D01*
X155318Y212171D01*
X154973Y209550D01*
X155318Y206929D01*
X156330Y204487D01*
X157939Y202389D01*
X160037Y200780D01*
X162479Y199768D01*
X165100Y199423D01*
X167721Y199768D01*
X170163Y200780D01*
X172261Y202389D01*
X173870Y204487D01*
X174882Y206929D01*
X175227Y209550D01*
X174882Y212171D01*
X173870Y214613D01*
X172261Y216711D01*
X170163Y218320D01*
X167721Y219332D01*
X165100Y219677D01*
D02*
G37*
G36*
X139700D02*
X137079Y219332D01*
X134637Y218320D01*
X132539Y216711D01*
X130930Y214613D01*
X129918Y212171D01*
X129573Y209550D01*
X129918Y206929D01*
X130930Y204487D01*
X132539Y202389D01*
X134637Y200780D01*
X137079Y199768D01*
X139700Y199423D01*
X142321Y199768D01*
X144763Y200780D01*
X146861Y202389D01*
X148470Y204487D01*
X149482Y206929D01*
X149827Y209550D01*
X149482Y212171D01*
X148470Y214613D01*
X146861Y216711D01*
X144763Y218320D01*
X142321Y219332D01*
X139700Y219677D01*
D02*
G37*
G36*
X114300D02*
X111679Y219332D01*
X109237Y218320D01*
X107139Y216711D01*
X105530Y214613D01*
X104518Y212171D01*
X104173Y209550D01*
X104518Y206929D01*
X105530Y204487D01*
X107139Y202389D01*
X109237Y200780D01*
X111679Y199768D01*
X114300Y199423D01*
X116921Y199768D01*
X119363Y200780D01*
X121461Y202389D01*
X123070Y204487D01*
X124082Y206929D01*
X124427Y209550D01*
X124082Y212171D01*
X123070Y214613D01*
X121461Y216711D01*
X119363Y218320D01*
X116921Y219332D01*
X114300Y219677D01*
D02*
G37*
G36*
X90170Y194109D02*
Y185420D01*
X98859D01*
X98682Y186771D01*
X97670Y189213D01*
X96061Y191311D01*
X93963Y192920D01*
X91521Y193932D01*
X90170Y194109D01*
D02*
G37*
G36*
X87630D02*
X86279Y193932D01*
X83837Y192920D01*
X81739Y191311D01*
X80130Y189213D01*
X79118Y186771D01*
X78941Y185420D01*
X87630D01*
Y194109D01*
D02*
G37*
G36*
X98859Y182880D02*
X90170D01*
Y174191D01*
X91521Y174368D01*
X93963Y175380D01*
X96061Y176989D01*
X97670Y179087D01*
X98682Y181529D01*
X98859Y182880D01*
D02*
G37*
G36*
X87630D02*
X78941D01*
X79118Y181529D01*
X80130Y179087D01*
X81739Y176989D01*
X83837Y175380D01*
X86279Y174368D01*
X87630Y174191D01*
Y182880D01*
D02*
G37*
G36*
X444500Y194277D02*
X441879Y193932D01*
X439437Y192920D01*
X437339Y191311D01*
X435730Y189213D01*
X434718Y186771D01*
X434373Y184150D01*
X434718Y181529D01*
X435730Y179087D01*
X437339Y176989D01*
X439437Y175380D01*
X441879Y174368D01*
X444500Y174023D01*
X447121Y174368D01*
X449563Y175380D01*
X451661Y176989D01*
X453270Y179087D01*
X454282Y181529D01*
X454627Y184150D01*
X454282Y186771D01*
X453270Y189213D01*
X451661Y191311D01*
X449563Y192920D01*
X447121Y193932D01*
X444500Y194277D01*
D02*
G37*
G36*
X419100D02*
X416479Y193932D01*
X414037Y192920D01*
X411939Y191311D01*
X410330Y189213D01*
X409318Y186771D01*
X408973Y184150D01*
X409318Y181529D01*
X410330Y179087D01*
X411939Y176989D01*
X414037Y175380D01*
X416479Y174368D01*
X419100Y174023D01*
X421721Y174368D01*
X424163Y175380D01*
X426261Y176989D01*
X427870Y179087D01*
X428882Y181529D01*
X429227Y184150D01*
X428882Y186771D01*
X427870Y189213D01*
X426261Y191311D01*
X424163Y192920D01*
X421721Y193932D01*
X419100Y194277D01*
D02*
G37*
G36*
X393700D02*
X391079Y193932D01*
X388637Y192920D01*
X386539Y191311D01*
X384930Y189213D01*
X383918Y186771D01*
X383573Y184150D01*
X383918Y181529D01*
X384930Y179087D01*
X386539Y176989D01*
X388637Y175380D01*
X391079Y174368D01*
X393700Y174023D01*
X396321Y174368D01*
X398763Y175380D01*
X400861Y176989D01*
X402470Y179087D01*
X403482Y181529D01*
X403827Y184150D01*
X403482Y186771D01*
X402470Y189213D01*
X400861Y191311D01*
X398763Y192920D01*
X396321Y193932D01*
X393700Y194277D01*
D02*
G37*
G36*
X368300D02*
X365679Y193932D01*
X363237Y192920D01*
X361139Y191311D01*
X359530Y189213D01*
X358518Y186771D01*
X358173Y184150D01*
X358518Y181529D01*
X359530Y179087D01*
X361139Y176989D01*
X363237Y175380D01*
X365679Y174368D01*
X368300Y174023D01*
X370921Y174368D01*
X373363Y175380D01*
X375461Y176989D01*
X377070Y179087D01*
X378082Y181529D01*
X378427Y184150D01*
X378082Y186771D01*
X377070Y189213D01*
X375461Y191311D01*
X373363Y192920D01*
X370921Y193932D01*
X368300Y194277D01*
D02*
G37*
G36*
X342900D02*
X340279Y193932D01*
X337837Y192920D01*
X335739Y191311D01*
X334130Y189213D01*
X333118Y186771D01*
X332773Y184150D01*
X333118Y181529D01*
X334130Y179087D01*
X335739Y176989D01*
X337837Y175380D01*
X340279Y174368D01*
X342900Y174023D01*
X345521Y174368D01*
X347963Y175380D01*
X350061Y176989D01*
X351670Y179087D01*
X352682Y181529D01*
X353027Y184150D01*
X352682Y186771D01*
X351670Y189213D01*
X350061Y191311D01*
X347963Y192920D01*
X345521Y193932D01*
X342900Y194277D01*
D02*
G37*
G36*
X317500D02*
X314879Y193932D01*
X312437Y192920D01*
X310339Y191311D01*
X308730Y189213D01*
X307718Y186771D01*
X307373Y184150D01*
X307718Y181529D01*
X308730Y179087D01*
X310339Y176989D01*
X312437Y175380D01*
X314879Y174368D01*
X317500Y174023D01*
X320121Y174368D01*
X322563Y175380D01*
X324661Y176989D01*
X326270Y179087D01*
X327282Y181529D01*
X327627Y184150D01*
X327282Y186771D01*
X326270Y189213D01*
X324661Y191311D01*
X322563Y192920D01*
X320121Y193932D01*
X317500Y194277D01*
D02*
G37*
G36*
X292100D02*
X289479Y193932D01*
X287037Y192920D01*
X284939Y191311D01*
X283330Y189213D01*
X282318Y186771D01*
X281973Y184150D01*
X282318Y181529D01*
X283330Y179087D01*
X284939Y176989D01*
X287037Y175380D01*
X289479Y174368D01*
X292100Y174023D01*
X294721Y174368D01*
X297163Y175380D01*
X299261Y176989D01*
X300870Y179087D01*
X301882Y181529D01*
X302227Y184150D01*
X301882Y186771D01*
X300870Y189213D01*
X299261Y191311D01*
X297163Y192920D01*
X294721Y193932D01*
X292100Y194277D01*
D02*
G37*
G36*
X266700D02*
X264079Y193932D01*
X261637Y192920D01*
X259539Y191311D01*
X257930Y189213D01*
X256918Y186771D01*
X256573Y184150D01*
X256918Y181529D01*
X257407Y180350D01*
X251253Y174197D01*
X250411Y172937D01*
X250115Y171450D01*
Y153140D01*
X248845Y152709D01*
X248461Y153211D01*
X246363Y154820D01*
X243921Y155832D01*
X241300Y156177D01*
X238679Y155832D01*
X236237Y154820D01*
X234139Y153211D01*
X233755Y152709D01*
X232485Y153140D01*
Y169841D01*
X237500Y174857D01*
X238679Y174368D01*
X241300Y174023D01*
X243921Y174368D01*
X246363Y175380D01*
X248461Y176989D01*
X250070Y179087D01*
X251082Y181529D01*
X251427Y184150D01*
X251082Y186771D01*
X250070Y189213D01*
X248461Y191311D01*
X246363Y192920D01*
X243921Y193932D01*
X241300Y194277D01*
X238679Y193932D01*
X236237Y192920D01*
X234139Y191311D01*
X232530Y189213D01*
X231518Y186771D01*
X231173Y184150D01*
X231518Y181529D01*
X232007Y180350D01*
X225853Y174197D01*
X225011Y172937D01*
X224715Y171450D01*
Y153140D01*
X223445Y152709D01*
X223061Y153211D01*
X220963Y154820D01*
X218521Y155832D01*
X215900Y156177D01*
X213279Y155832D01*
X210837Y154820D01*
X208739Y153211D01*
X208355Y152709D01*
X207085Y153140D01*
Y169841D01*
X212100Y174857D01*
X213279Y174368D01*
X215900Y174023D01*
X218521Y174368D01*
X220963Y175380D01*
X223061Y176989D01*
X224670Y179087D01*
X225682Y181529D01*
X226027Y184150D01*
X225682Y186771D01*
X224670Y189213D01*
X223061Y191311D01*
X220963Y192920D01*
X218521Y193932D01*
X215900Y194277D01*
X213279Y193932D01*
X210837Y192920D01*
X208739Y191311D01*
X207130Y189213D01*
X206118Y186771D01*
X205773Y184150D01*
X206118Y181529D01*
X206607Y180350D01*
X200453Y174197D01*
X199611Y172937D01*
X199315Y171450D01*
Y153140D01*
X198045Y152709D01*
X197661Y153211D01*
X195563Y154820D01*
X193121Y155832D01*
X190500Y156177D01*
X187879Y155832D01*
X185437Y154820D01*
X183339Y153211D01*
X182955Y152709D01*
X181685Y153140D01*
Y169841D01*
X186700Y174857D01*
X187879Y174368D01*
X190500Y174023D01*
X193121Y174368D01*
X195563Y175380D01*
X197661Y176989D01*
X199270Y179087D01*
X200282Y181529D01*
X200627Y184150D01*
X200282Y186771D01*
X199270Y189213D01*
X197661Y191311D01*
X195563Y192920D01*
X193121Y193932D01*
X190500Y194277D01*
X187879Y193932D01*
X185437Y192920D01*
X183339Y191311D01*
X181730Y189213D01*
X180718Y186771D01*
X180373Y184150D01*
X180718Y181529D01*
X181207Y180350D01*
X175053Y174197D01*
X174211Y172937D01*
X173915Y171450D01*
Y153140D01*
X172645Y152709D01*
X172261Y153211D01*
X170163Y154820D01*
X167721Y155832D01*
X165100Y156177D01*
X162479Y155832D01*
X160037Y154820D01*
X157939Y153211D01*
X157555Y152709D01*
X156285Y153140D01*
Y169841D01*
X161300Y174857D01*
X162479Y174368D01*
X165100Y174023D01*
X167721Y174368D01*
X170163Y175380D01*
X172261Y176989D01*
X173870Y179087D01*
X174882Y181529D01*
X175227Y184150D01*
X174882Y186771D01*
X173870Y189213D01*
X172261Y191311D01*
X170163Y192920D01*
X167721Y193932D01*
X165100Y194277D01*
X162479Y193932D01*
X160037Y192920D01*
X157939Y191311D01*
X156330Y189213D01*
X155318Y186771D01*
X154973Y184150D01*
X155318Y181529D01*
X155807Y180350D01*
X149653Y174197D01*
X148811Y172937D01*
X148515Y171450D01*
Y153140D01*
X147245Y152709D01*
X146861Y153211D01*
X144763Y154820D01*
X142321Y155832D01*
X139700Y156177D01*
X137079Y155832D01*
X134637Y154820D01*
X132539Y153211D01*
X132155Y152709D01*
X130885Y153140D01*
Y169841D01*
X135900Y174857D01*
X137079Y174368D01*
X139700Y174023D01*
X142321Y174368D01*
X144763Y175380D01*
X146861Y176989D01*
X148470Y179087D01*
X149482Y181529D01*
X149827Y184150D01*
X149482Y186771D01*
X148470Y189213D01*
X146861Y191311D01*
X144763Y192920D01*
X142321Y193932D01*
X139700Y194277D01*
X137079Y193932D01*
X134637Y192920D01*
X132539Y191311D01*
X130930Y189213D01*
X129918Y186771D01*
X129573Y184150D01*
X129918Y181529D01*
X130407Y180350D01*
X124253Y174197D01*
X123411Y172937D01*
X123115Y171450D01*
Y153140D01*
X121845Y152709D01*
X121461Y153211D01*
X119363Y154820D01*
X116921Y155832D01*
X114300Y156177D01*
X111679Y155832D01*
X109237Y154820D01*
X107139Y153211D01*
X106755Y152709D01*
X105485Y153140D01*
Y169841D01*
X110500Y174857D01*
X111679Y174368D01*
X114300Y174023D01*
X116921Y174368D01*
X119363Y175380D01*
X121461Y176989D01*
X123070Y179087D01*
X124082Y181529D01*
X124427Y184150D01*
X124082Y186771D01*
X123070Y189213D01*
X121461Y191311D01*
X119363Y192920D01*
X116921Y193932D01*
X114300Y194277D01*
X111679Y193932D01*
X109237Y192920D01*
X107139Y191311D01*
X105530Y189213D01*
X104518Y186771D01*
X104173Y184150D01*
X104518Y181529D01*
X105007Y180350D01*
X98853Y174197D01*
X98011Y172937D01*
X97715Y171450D01*
Y153140D01*
X96445Y152709D01*
X96061Y153211D01*
X93963Y154820D01*
X91521Y155832D01*
X90170Y156009D01*
Y146050D01*
Y136091D01*
X91521Y136268D01*
X93963Y137280D01*
X96061Y138889D01*
X96445Y139391D01*
X97715Y138960D01*
Y133350D01*
X97992Y131960D01*
X97970Y131666D01*
X97448Y130690D01*
X90170D01*
Y121920D01*
X98940D01*
Y128857D01*
X100113Y129343D01*
X105007Y124450D01*
X104518Y123271D01*
X104173Y120650D01*
X104518Y118029D01*
X105530Y115587D01*
X107139Y113489D01*
X109237Y111880D01*
X111679Y110868D01*
X114300Y110523D01*
X116921Y110868D01*
X119363Y111880D01*
X121461Y113489D01*
X123070Y115587D01*
X124082Y118029D01*
X124427Y120650D01*
X124082Y123271D01*
X123070Y125713D01*
X121461Y127811D01*
X119363Y129420D01*
X116921Y130432D01*
X114300Y130777D01*
X111679Y130432D01*
X110500Y129943D01*
X105485Y134959D01*
Y138960D01*
X106755Y139391D01*
X107139Y138889D01*
X109237Y137280D01*
X111679Y136268D01*
X114300Y135923D01*
X116921Y136268D01*
X119363Y137280D01*
X121461Y138889D01*
X121845Y139391D01*
X123115Y138960D01*
Y133350D01*
X123411Y131863D01*
X124253Y130603D01*
X130407Y124450D01*
X129918Y123271D01*
X129573Y120650D01*
X129918Y118029D01*
X130930Y115587D01*
X132539Y113489D01*
X134637Y111880D01*
X137079Y110868D01*
X139700Y110523D01*
X142321Y110868D01*
X144763Y111880D01*
X146861Y113489D01*
X148470Y115587D01*
X149482Y118029D01*
X149827Y120650D01*
X149482Y123271D01*
X148470Y125713D01*
X146861Y127811D01*
X144763Y129420D01*
X142321Y130432D01*
X139700Y130777D01*
X137079Y130432D01*
X135900Y129943D01*
X130885Y134959D01*
Y138960D01*
X132155Y139391D01*
X132539Y138889D01*
X134637Y137280D01*
X137079Y136268D01*
X139700Y135923D01*
X142321Y136268D01*
X144763Y137280D01*
X146861Y138889D01*
X147245Y139391D01*
X148515Y138960D01*
Y133350D01*
X148811Y131863D01*
X149653Y130603D01*
X155807Y124450D01*
X155318Y123271D01*
X154973Y120650D01*
X155318Y118029D01*
X156330Y115587D01*
X157939Y113489D01*
X160037Y111880D01*
X162479Y110868D01*
X165100Y110523D01*
X167721Y110868D01*
X170163Y111880D01*
X172261Y113489D01*
X173870Y115587D01*
X174882Y118029D01*
X175227Y120650D01*
X174882Y123271D01*
X173870Y125713D01*
X172261Y127811D01*
X170163Y129420D01*
X167721Y130432D01*
X165100Y130777D01*
X162479Y130432D01*
X161300Y129943D01*
X156285Y134959D01*
Y138960D01*
X157555Y139391D01*
X157939Y138889D01*
X160037Y137280D01*
X162479Y136268D01*
X165100Y135923D01*
X167721Y136268D01*
X170163Y137280D01*
X172261Y138889D01*
X172645Y139391D01*
X173915Y138960D01*
Y133350D01*
X174211Y131863D01*
X175053Y130603D01*
X181207Y124450D01*
X180718Y123271D01*
X180373Y120650D01*
X180718Y118029D01*
X181730Y115587D01*
X183339Y113489D01*
X185437Y111880D01*
X187879Y110868D01*
X190500Y110523D01*
X193121Y110868D01*
X195563Y111880D01*
X197661Y113489D01*
X199270Y115587D01*
X200282Y118029D01*
X200627Y120650D01*
X200282Y123271D01*
X199270Y125713D01*
X197661Y127811D01*
X195563Y129420D01*
X193121Y130432D01*
X190500Y130777D01*
X187879Y130432D01*
X186700Y129943D01*
X181685Y134959D01*
Y138960D01*
X182955Y139391D01*
X183339Y138889D01*
X185437Y137280D01*
X187879Y136268D01*
X190500Y135923D01*
X193121Y136268D01*
X195563Y137280D01*
X197661Y138889D01*
X198045Y139391D01*
X199315Y138960D01*
Y133350D01*
X199611Y131863D01*
X200453Y130603D01*
X206607Y124450D01*
X206118Y123271D01*
X205773Y120650D01*
X206118Y118029D01*
X207130Y115587D01*
X208739Y113489D01*
X210837Y111880D01*
X213279Y110868D01*
X215900Y110523D01*
X218521Y110868D01*
X220963Y111880D01*
X223061Y113489D01*
X224670Y115587D01*
X225682Y118029D01*
X226027Y120650D01*
X225682Y123271D01*
X224670Y125713D01*
X223061Y127811D01*
X220963Y129420D01*
X218521Y130432D01*
X215900Y130777D01*
X213279Y130432D01*
X212100Y129943D01*
X207085Y134959D01*
Y138960D01*
X208355Y139391D01*
X208739Y138889D01*
X210837Y137280D01*
X213279Y136268D01*
X215900Y135923D01*
X218521Y136268D01*
X220963Y137280D01*
X223061Y138889D01*
X223445Y139391D01*
X224715Y138960D01*
Y133350D01*
X225011Y131863D01*
X225853Y130603D01*
X232007Y124450D01*
X231518Y123271D01*
X231173Y120650D01*
X231518Y118029D01*
X232530Y115587D01*
X234139Y113489D01*
X236237Y111880D01*
X238679Y110868D01*
X241300Y110523D01*
X243921Y110868D01*
X246363Y111880D01*
X248461Y113489D01*
X250070Y115587D01*
X251082Y118029D01*
X251427Y120650D01*
X251082Y123271D01*
X250070Y125713D01*
X248461Y127811D01*
X246363Y129420D01*
X243921Y130432D01*
X241300Y130777D01*
X238679Y130432D01*
X237500Y129943D01*
X232485Y134959D01*
Y138960D01*
X233755Y139391D01*
X234139Y138889D01*
X236237Y137280D01*
X238679Y136268D01*
X241300Y135923D01*
X243921Y136268D01*
X246363Y137280D01*
X248461Y138889D01*
X248845Y139391D01*
X250115Y138960D01*
Y133350D01*
X250411Y131863D01*
X251253Y130603D01*
X257407Y124450D01*
X256918Y123271D01*
X256573Y120650D01*
X256918Y118029D01*
X257930Y115587D01*
X259539Y113489D01*
X261637Y111880D01*
X264079Y110868D01*
X266700Y110523D01*
X269321Y110868D01*
X271763Y111880D01*
X273861Y113489D01*
X275470Y115587D01*
X276482Y118029D01*
X276827Y120650D01*
X276482Y123271D01*
X275470Y125713D01*
X273861Y127811D01*
X271763Y129420D01*
X269321Y130432D01*
X266700Y130777D01*
X264079Y130432D01*
X262900Y129943D01*
X257885Y134959D01*
Y138960D01*
X259155Y139391D01*
X259539Y138889D01*
X261637Y137280D01*
X264079Y136268D01*
X266700Y135923D01*
X269321Y136268D01*
X271763Y137280D01*
X273861Y138889D01*
X275470Y140987D01*
X276482Y143429D01*
X276827Y146050D01*
X276482Y148671D01*
X275470Y151113D01*
X273861Y153211D01*
X271763Y154820D01*
X269321Y155832D01*
X266700Y156177D01*
X264079Y155832D01*
X261637Y154820D01*
X259539Y153211D01*
X259155Y152709D01*
X257885Y153140D01*
Y169841D01*
X262900Y174857D01*
X264079Y174368D01*
X266700Y174023D01*
X269321Y174368D01*
X271763Y175380D01*
X273861Y176989D01*
X275470Y179087D01*
X276482Y181529D01*
X276827Y184150D01*
X276482Y186771D01*
X275470Y189213D01*
X273861Y191311D01*
X271763Y192920D01*
X269321Y193932D01*
X266700Y194277D01*
D02*
G37*
G36*
X38100Y202780D02*
X34465Y202422D01*
X30971Y201362D01*
X27750Y199640D01*
X24927Y197323D01*
X22610Y194500D01*
X20888Y191279D01*
X19828Y187785D01*
X19470Y184150D01*
X19828Y180515D01*
X20888Y177021D01*
X22610Y173800D01*
X24927Y170977D01*
X27750Y168660D01*
X30971Y166938D01*
X34465Y165878D01*
X38100Y165520D01*
X41734Y165878D01*
X45229Y166938D01*
X48450Y168660D01*
X51273Y170977D01*
X53590Y173800D01*
X55312Y177021D01*
X56372Y180515D01*
X56730Y184150D01*
X56372Y187785D01*
X55312Y191279D01*
X53590Y194500D01*
X51273Y197323D01*
X48450Y199640D01*
X45229Y201362D01*
X41734Y202422D01*
X38100Y202780D01*
D02*
G37*
G36*
X87630Y156009D02*
X86279Y155832D01*
X83837Y154820D01*
X81739Y153211D01*
X80130Y151113D01*
X79118Y148671D01*
X78941Y147320D01*
X87630D01*
Y156009D01*
D02*
G37*
G36*
Y144780D02*
X78941D01*
X79118Y143429D01*
X80130Y140987D01*
X81739Y138889D01*
X83837Y137280D01*
X86279Y136268D01*
X87630Y136091D01*
Y144780D01*
D02*
G37*
G36*
X400050Y142317D02*
X394970D01*
Y134620D01*
X408849D01*
X408711Y135671D01*
X407815Y137833D01*
X406390Y139690D01*
X404533Y141115D01*
X402371Y142011D01*
X400050Y142317D01*
D02*
G37*
G36*
X392430D02*
X387350D01*
X385029Y142011D01*
X382867Y141115D01*
X381010Y139690D01*
X379585Y137833D01*
X378689Y135671D01*
X378550Y134620D01*
X392430D01*
Y142317D01*
D02*
G37*
G36*
X408849Y132080D02*
X394970D01*
Y124383D01*
X400050D01*
X402371Y124689D01*
X404533Y125585D01*
X406390Y127010D01*
X407815Y128867D01*
X408711Y131029D01*
X408849Y132080D01*
D02*
G37*
G36*
X392430D02*
X378550D01*
X378689Y131029D01*
X379585Y128867D01*
X381010Y127010D01*
X382867Y125585D01*
X385029Y124689D01*
X387350Y124383D01*
X392430D01*
Y132080D01*
D02*
G37*
G36*
X87630Y130690D02*
X78860D01*
Y121920D01*
X87630D01*
Y130690D01*
D02*
G37*
G36*
X476250Y142317D02*
X463550D01*
X461229Y142011D01*
X459067Y141115D01*
X457210Y139690D01*
X455785Y137833D01*
X454889Y135671D01*
X454583Y133350D01*
X454889Y131029D01*
X455785Y128867D01*
X457210Y127010D01*
X459067Y125585D01*
X461229Y124689D01*
X463550Y124383D01*
X476250D01*
X478571Y124689D01*
X480733Y125585D01*
X482590Y127010D01*
X483481Y128170D01*
X493155D01*
X497988Y123337D01*
X499668Y122215D01*
X501650Y121820D01*
X510860D01*
Y116460D01*
X525940D01*
Y137540D01*
X510860D01*
Y132179D01*
X503795D01*
X498963Y137013D01*
X497282Y138135D01*
X495300Y138530D01*
X483481D01*
X482590Y139690D01*
X480733Y141115D01*
X478571Y142011D01*
X476250Y142317D01*
D02*
G37*
G36*
X725900Y149375D02*
X722462Y149036D01*
X719155Y148033D01*
X716108Y146404D01*
X713437Y144213D01*
X711245Y141542D01*
X709617Y138495D01*
X708614Y135188D01*
X708275Y131750D01*
X708614Y128312D01*
X709617Y125005D01*
X711245Y121958D01*
X713437Y119287D01*
X716108Y117095D01*
X719155Y115467D01*
X722462Y114464D01*
X725900Y114125D01*
X729338Y114464D01*
X732645Y115467D01*
X735692Y117095D01*
X738363Y119287D01*
X740555Y121958D01*
X742183Y125005D01*
X743186Y128312D01*
X743525Y131750D01*
X743186Y135188D01*
X742183Y138495D01*
X740555Y141542D01*
X738363Y144213D01*
X735692Y146404D01*
X732645Y148033D01*
X729338Y149036D01*
X725900Y149375D01*
D02*
G37*
G36*
X98940Y119380D02*
X90170D01*
Y110610D01*
X98940D01*
Y119380D01*
D02*
G37*
G36*
X87630D02*
X78860D01*
Y110610D01*
X87630D01*
Y119380D01*
D02*
G37*
G36*
X400050Y116917D02*
X387350D01*
X385029Y116611D01*
X382867Y115715D01*
X381010Y114290D01*
X380119Y113130D01*
X368300D01*
X366318Y112735D01*
X364637Y111613D01*
X359805Y106779D01*
X352740D01*
Y112140D01*
X337660D01*
Y105745D01*
X336937Y105262D01*
X336937Y105262D01*
X323913Y92239D01*
X322740Y92725D01*
Y100330D01*
X316470D01*
Y91060D01*
X321076D01*
X321562Y89887D01*
X318415Y86740D01*
X307660D01*
Y81379D01*
X300595D01*
X297279Y84695D01*
Y95250D01*
X296885Y97232D01*
X295763Y98912D01*
X289412Y105262D01*
X287732Y106385D01*
X285750Y106779D01*
X222250D01*
X220268Y106385D01*
X218587Y105262D01*
X212237Y98912D01*
X211115Y97232D01*
X210721Y95250D01*
Y91231D01*
X208739Y89711D01*
X207130Y87613D01*
X206118Y85171D01*
X205773Y82550D01*
X206118Y79929D01*
X207130Y77487D01*
X208739Y75389D01*
X210837Y73780D01*
X213279Y72768D01*
X215900Y72423D01*
X218521Y72768D01*
X220963Y73780D01*
X223061Y75389D01*
X224670Y77487D01*
X225682Y79929D01*
X226027Y82550D01*
X225682Y85171D01*
X224670Y87613D01*
X223061Y89711D01*
X221080Y91231D01*
Y93105D01*
X224395Y96420D01*
X283605D01*
X286921Y93105D01*
Y82550D01*
X287315Y80568D01*
X288438Y78888D01*
X294788Y72537D01*
X296468Y71415D01*
X298450Y71020D01*
X307660D01*
Y65660D01*
X321076D01*
X321562Y64487D01*
X318415Y61340D01*
X307660D01*
Y55979D01*
X256145D01*
X246479Y65645D01*
Y73869D01*
X248461Y75389D01*
X250070Y77487D01*
X251082Y79929D01*
X251427Y82550D01*
X251082Y85171D01*
X250070Y87613D01*
X248461Y89711D01*
X246363Y91320D01*
X243921Y92332D01*
X241300Y92677D01*
X238679Y92332D01*
X236237Y91320D01*
X234139Y89711D01*
X232530Y87613D01*
X231518Y85171D01*
X231173Y82550D01*
X231518Y79929D01*
X232530Y77487D01*
X234139Y75389D01*
X236120Y73869D01*
Y63500D01*
X236515Y61518D01*
X237638Y59837D01*
X250338Y47137D01*
X252018Y46015D01*
X254000Y45620D01*
X307660D01*
Y40260D01*
X322740D01*
Y51015D01*
X336704Y64979D01*
X337660Y65660D01*
Y65660D01*
X337660Y65660D01*
X352740D01*
Y71020D01*
X361950D01*
X363932Y71415D01*
X365612Y72537D01*
X370445Y77371D01*
X380119D01*
X381010Y76210D01*
X382867Y74785D01*
X385029Y73889D01*
X387350Y73583D01*
X400050D01*
X402371Y73889D01*
X404533Y74785D01*
X406390Y76210D01*
X407815Y78067D01*
X408711Y80229D01*
X409017Y82550D01*
X408711Y84871D01*
X407815Y87033D01*
X406390Y88890D01*
X404533Y90315D01*
X402371Y91211D01*
X400050Y91517D01*
X387350D01*
X385029Y91211D01*
X382867Y90315D01*
X381010Y88890D01*
X380119Y87730D01*
X368300D01*
X366318Y87335D01*
X364637Y86213D01*
X359805Y81379D01*
X352740D01*
Y86740D01*
X337660D01*
Y80345D01*
X336937Y79862D01*
X336937Y79862D01*
X323913Y66838D01*
X322740Y67325D01*
Y76415D01*
X336704Y90379D01*
X337660Y91060D01*
Y91060D01*
X337660Y91060D01*
X352740D01*
Y96420D01*
X361950D01*
X363932Y96815D01*
X365612Y97937D01*
X370445Y102771D01*
X380119D01*
X381010Y101610D01*
X382867Y100185D01*
X385029Y99289D01*
X387350Y98983D01*
X400050D01*
X402371Y99289D01*
X404533Y100185D01*
X406390Y101610D01*
X407815Y103467D01*
X408711Y105629D01*
X409017Y107950D01*
X408711Y110271D01*
X407815Y112433D01*
X406390Y114290D01*
X404533Y115715D01*
X402371Y116611D01*
X400050Y116917D01*
D02*
G37*
G36*
X322740Y112140D02*
X316470D01*
Y102870D01*
X322740D01*
Y112140D01*
D02*
G37*
G36*
X313930D02*
X307660D01*
Y102870D01*
X313930D01*
Y112140D01*
D02*
G37*
G36*
Y100330D02*
X307660D01*
Y91060D01*
X313930D01*
Y100330D01*
D02*
G37*
G36*
X191770Y92509D02*
Y83820D01*
X200459D01*
X200282Y85171D01*
X199270Y87613D01*
X197661Y89711D01*
X195563Y91320D01*
X193121Y92332D01*
X191770Y92509D01*
D02*
G37*
G36*
X115570D02*
Y83820D01*
X124259D01*
X124082Y85171D01*
X123070Y87613D01*
X121461Y89711D01*
X119363Y91320D01*
X116921Y92332D01*
X115570Y92509D01*
D02*
G37*
G36*
X113030D02*
X111679Y92332D01*
X109237Y91320D01*
X107139Y89711D01*
X105530Y87613D01*
X104518Y85171D01*
X104341Y83820D01*
X113030D01*
Y92509D01*
D02*
G37*
G36*
X189230D02*
X187879Y92332D01*
X185437Y91320D01*
X183339Y89711D01*
X181730Y87613D01*
X180718Y85171D01*
X180541Y83820D01*
X189230D01*
Y92509D01*
D02*
G37*
G36*
X476250Y116917D02*
X463550D01*
X461229Y116611D01*
X459067Y115715D01*
X457210Y114290D01*
X455785Y112433D01*
X454889Y110271D01*
X454583Y107950D01*
X454889Y105629D01*
X455785Y103467D01*
X457210Y101610D01*
X459067Y100185D01*
X461229Y99289D01*
X463550Y98983D01*
X464720D01*
Y91517D01*
X463550D01*
X461229Y91211D01*
X459067Y90315D01*
X457210Y88890D01*
X455785Y87033D01*
X454889Y84871D01*
X454583Y82550D01*
X454889Y80229D01*
X455785Y78067D01*
X457210Y76210D01*
X459067Y74785D01*
X461229Y73889D01*
X463550Y73583D01*
X476250D01*
X478571Y73889D01*
X480733Y74785D01*
X482590Y76210D01*
X483481Y77371D01*
X495300D01*
X497282Y77765D01*
X498963Y78888D01*
X503795Y83721D01*
X510860D01*
Y78360D01*
X525940D01*
Y99440D01*
X510860D01*
Y94080D01*
X501650D01*
X499668Y93685D01*
X497988Y92563D01*
X493155Y87730D01*
X483481D01*
X482590Y88890D01*
X480733Y90315D01*
X478571Y91211D01*
X476250Y91517D01*
X475079D01*
Y98983D01*
X476250D01*
X478571Y99289D01*
X480733Y100185D01*
X482590Y101610D01*
X484015Y103467D01*
X484911Y105629D01*
X485217Y107950D01*
X484911Y110271D01*
X484015Y112433D01*
X482590Y114290D01*
X480733Y115715D01*
X478571Y116611D01*
X476250Y116917D01*
D02*
G37*
G36*
X200459Y81280D02*
X191770D01*
Y72591D01*
X193121Y72768D01*
X195563Y73780D01*
X197661Y75389D01*
X199270Y77487D01*
X200282Y79929D01*
X200459Y81280D01*
D02*
G37*
G36*
X124259D02*
X115570D01*
Y72591D01*
X116921Y72768D01*
X119363Y73780D01*
X121461Y75389D01*
X123070Y77487D01*
X124082Y79929D01*
X124259Y81280D01*
D02*
G37*
G36*
X113030D02*
X104341D01*
X104518Y79929D01*
X105530Y77487D01*
X107139Y75389D01*
X109237Y73780D01*
X111679Y72768D01*
X113030Y72591D01*
Y81280D01*
D02*
G37*
G36*
X189230D02*
X180541D01*
X180718Y79929D01*
X181730Y77487D01*
X183339Y75389D01*
X185437Y73780D01*
X187879Y72768D01*
X189230Y72591D01*
Y81280D01*
D02*
G37*
G36*
X276740Y92590D02*
X256660D01*
Y72510D01*
X276740D01*
Y92590D01*
D02*
G37*
G36*
X38100Y245077D02*
X35479Y244732D01*
X33037Y243720D01*
X30939Y242111D01*
X29330Y240013D01*
X28318Y237571D01*
X27973Y234950D01*
X28318Y232329D01*
X29330Y229887D01*
X30939Y227789D01*
X33037Y226180D01*
X35479Y225168D01*
X38100Y224823D01*
X40721Y225168D01*
X43163Y226180D01*
X45261Y227789D01*
X46064Y227842D01*
X59615Y214291D01*
Y95250D01*
X59911Y93763D01*
X60753Y92503D01*
X73453Y79803D01*
X74713Y78961D01*
X76200Y78665D01*
X78860D01*
Y72510D01*
X98940D01*
Y92590D01*
X78860D01*
Y86964D01*
X77590Y86654D01*
X67385Y96859D01*
Y215900D01*
X67089Y217387D01*
X66247Y218647D01*
X47966Y236927D01*
X47882Y237571D01*
X46870Y240013D01*
X45261Y242111D01*
X43163Y243720D01*
X40721Y244732D01*
X38100Y245077D01*
D02*
G37*
G36*
X485140Y66040D02*
X454660D01*
Y48260D01*
X485140D01*
Y51971D01*
X493155D01*
X497988Y47137D01*
X499668Y46015D01*
X501650Y45620D01*
X510860D01*
Y40260D01*
X525940D01*
Y61340D01*
X510860D01*
Y55979D01*
X503795D01*
X498963Y60813D01*
X497282Y61935D01*
X495300Y62330D01*
X485140D01*
Y66040D01*
D02*
G37*
G36*
X745000Y53630D02*
X741366Y53272D01*
X737871Y52212D01*
X734650Y50490D01*
X731827Y48173D01*
X729510Y45350D01*
X727788Y42129D01*
X726728Y38635D01*
X726370Y35000D01*
X726728Y31365D01*
X727788Y27871D01*
X729510Y24650D01*
X731827Y21827D01*
X734650Y19510D01*
X737871Y17788D01*
X741366Y16728D01*
X745000Y16370D01*
X748634Y16728D01*
X752129Y17788D01*
X755350Y19510D01*
X758173Y21827D01*
X760490Y24650D01*
X762212Y27871D01*
X763272Y31365D01*
X763630Y35000D01*
X763272Y38635D01*
X762212Y42129D01*
X760490Y45350D01*
X758173Y48173D01*
X755350Y50490D01*
X752129Y52212D01*
X748634Y53272D01*
X745000Y53630D01*
D02*
G37*
G36*
X35000D02*
X31365Y53272D01*
X27871Y52212D01*
X24650Y50490D01*
X21827Y48173D01*
X19510Y45350D01*
X17788Y42129D01*
X16728Y38635D01*
X16370Y35000D01*
X16728Y31365D01*
X17788Y27871D01*
X19510Y24650D01*
X21827Y21827D01*
X24650Y19510D01*
X27871Y17788D01*
X31365Y16728D01*
X35000Y16370D01*
X38635Y16728D01*
X42129Y17788D01*
X45350Y19510D01*
X48173Y21827D01*
X50490Y24650D01*
X52212Y27871D01*
X53272Y31365D01*
X53630Y35000D01*
X53272Y38635D01*
X52212Y42129D01*
X50490Y45350D01*
X48173Y48173D01*
X45350Y50490D01*
X42129Y52212D01*
X38635Y53272D01*
X35000Y53630D01*
D02*
G37*
%LPD*%
G36*
X673798Y621911D02*
X675014Y620327D01*
Y603773D01*
X673798Y602189D01*
X672772Y599710D01*
X672421Y597050D01*
X672772Y594390D01*
X673798Y591911D01*
X675014Y590327D01*
Y503038D01*
X674116Y502140D01*
X672509Y502140D01*
X672232Y503296D01*
Y581750D01*
X672232Y581750D01*
X671887Y583484D01*
X670905Y584955D01*
X662289Y593571D01*
X662628Y594390D01*
X662978Y597050D01*
X662628Y599710D01*
X662376Y600317D01*
X670905Y608845D01*
X671887Y610316D01*
X672232Y612050D01*
X672232Y612050D01*
Y622373D01*
X673502Y622626D01*
X673798Y621911D01*
D02*
G37*
G36*
Y456811D02*
X675014Y455227D01*
Y438674D01*
X673798Y437089D01*
X672772Y434610D01*
X672421Y431950D01*
X672772Y429290D01*
X673798Y426811D01*
X675014Y425227D01*
Y337938D01*
X674116Y337040D01*
X672509Y337040D01*
X672232Y338196D01*
Y416950D01*
X672232Y416950D01*
X671887Y418684D01*
X670905Y420154D01*
X662376Y428683D01*
X662628Y429290D01*
X662978Y431950D01*
X662628Y434610D01*
X662376Y435217D01*
X670905Y443746D01*
X671887Y445216D01*
X672232Y446951D01*
Y457273D01*
X673502Y457526D01*
X673798Y456811D01*
D02*
G37*
G36*
Y291711D02*
X675014Y290127D01*
Y273573D01*
X673798Y271989D01*
X672772Y269510D01*
X672421Y266850D01*
X672772Y264190D01*
X673798Y261711D01*
X675014Y260127D01*
Y172838D01*
X674116Y171940D01*
X672509Y171940D01*
X672232Y173096D01*
Y251849D01*
X672232Y251850D01*
X671887Y253584D01*
X670905Y255054D01*
X662376Y263583D01*
X662628Y264190D01*
X662978Y266850D01*
X662628Y269510D01*
X662376Y270117D01*
X670905Y278646D01*
X671887Y280116D01*
X672232Y281851D01*
Y292173D01*
X673502Y292426D01*
X673798Y291711D01*
D02*
G37*
G36*
X196860Y647710D02*
X198717Y646285D01*
X199315Y646037D01*
Y612508D01*
X198137Y612020D01*
X196039Y610411D01*
X195655Y609909D01*
X194385Y610340D01*
Y648952D01*
X195655Y649280D01*
X196860Y647710D01*
D02*
G37*
D10*
X190500Y707150D02*
D03*
Y677150D02*
D03*
X139700Y707150D02*
D03*
Y677150D02*
D03*
X292100Y707150D02*
D03*
Y677150D02*
D03*
X241300Y707150D02*
D03*
Y677150D02*
D03*
X355600Y707150D02*
D03*
Y677150D02*
D03*
X419100Y707150D02*
D03*
Y677150D02*
D03*
X558800Y783350D02*
D03*
Y753350D02*
D03*
X190500Y770650D02*
D03*
Y740650D02*
D03*
X139700Y770650D02*
D03*
Y740650D02*
D03*
X292100Y770650D02*
D03*
Y740650D02*
D03*
X241300Y770650D02*
D03*
Y740650D02*
D03*
X355600Y770650D02*
D03*
Y740650D02*
D03*
X419100Y770650D02*
D03*
Y740650D02*
D03*
X558800Y840500D02*
D03*
Y810500D02*
D03*
X584200Y783350D02*
D03*
Y753350D02*
D03*
D11*
X296150Y285750D02*
D03*
X326150D02*
D03*
X296150Y311150D02*
D03*
X326150D02*
D03*
X586500Y730250D02*
D03*
X556500D02*
D03*
X296150Y260350D02*
D03*
X326150D02*
D03*
X296150Y336550D02*
D03*
X326150D02*
D03*
X345200Y76200D02*
D03*
X315200D02*
D03*
X345200Y50800D02*
D03*
X315200D02*
D03*
X345200Y101600D02*
D03*
X315200D02*
D03*
X296150Y381000D02*
D03*
X326150D02*
D03*
Y419100D02*
D03*
X296150D02*
D03*
Y457200D02*
D03*
X326150D02*
D03*
X592850Y463550D02*
D03*
X562850D02*
D03*
X592850Y412750D02*
D03*
X562850D02*
D03*
X592850Y438150D02*
D03*
X562850D02*
D03*
X548400Y127000D02*
D03*
X518400D02*
D03*
X548400Y88900D02*
D03*
X518400D02*
D03*
X548400Y50800D02*
D03*
X518400D02*
D03*
X241300Y285750D02*
D03*
X271300D02*
D03*
X241300Y311150D02*
D03*
X271300D02*
D03*
X241300Y260350D02*
D03*
X271300D02*
D03*
X241300Y336550D02*
D03*
X271300D02*
D03*
D12*
X682700Y326850D02*
Y431950D01*
X88900Y120650D02*
Y146050D01*
Y184150D01*
X152400Y387350D02*
Y438150D01*
X114300D02*
X152400D01*
X190500D01*
X114300Y387350D02*
X152400D01*
X190500D01*
X152400Y285750D02*
Y336550D01*
Y387350D01*
X114300Y336550D02*
X152400D01*
X190500D01*
X114300Y285750D02*
X152400D01*
X190500D01*
X165100Y844550D02*
X215900D01*
X266700D01*
X317500D01*
X381091D01*
X444591D01*
X215900Y806450D02*
Y844550D01*
Y882650D01*
X317500Y806450D02*
Y844550D01*
Y882650D01*
X381091Y806450D02*
Y844550D01*
Y882650D01*
X165100Y806450D02*
Y844550D01*
Y882650D01*
X266700Y806450D02*
Y844550D01*
Y882650D01*
X444591Y806450D02*
Y844550D01*
Y882650D01*
X88900Y209550D02*
Y222250D01*
X101600Y234950D01*
X139700D01*
X152400Y247650D01*
Y285750D01*
X88900Y184150D02*
Y209550D01*
X177800Y577850D02*
Y603250D01*
X165100Y615950D02*
Y806450D01*
Y615950D02*
X177800Y603250D01*
Y463550D02*
Y577850D01*
X152400Y438150D02*
X177800Y463550D01*
X279400Y996950D02*
Y1022350D01*
Y946150D02*
Y996950D01*
X266700Y933450D02*
X279400Y946150D01*
X266700Y882650D02*
Y933450D01*
X279400Y946150D02*
X425450D01*
X457200Y1022350D02*
X469900Y1035050D01*
X582650D01*
X584200Y1036600D01*
X585750Y1035050D02*
X660400D01*
X584200Y1036600D02*
X585750Y1035050D01*
X38100Y717550D02*
Y742950D01*
X50800D01*
X63500Y755650D01*
Y831850D01*
X76200Y844550D01*
X165100D01*
X425450Y946150D02*
X457200Y977900D01*
Y1022350D01*
X400050Y336550D02*
Y355600D01*
X406400Y361950D01*
Y381000D01*
X400050Y336550D02*
X463550D01*
X682700Y381000D02*
X704850D01*
X682700Y101750D02*
Y131750D01*
Y161750D01*
Y266850D01*
Y296850D01*
Y326850D01*
Y431950D02*
Y461950D01*
Y491950D01*
Y597050D01*
Y660650D02*
X695150Y673100D01*
X682700Y657050D02*
Y660650D01*
Y627050D02*
Y657050D01*
Y597050D02*
Y627050D01*
X254000Y577850D02*
Y603250D01*
X330200Y577850D02*
Y603250D01*
X355600Y996950D02*
Y1022350D01*
X400050Y311150D02*
Y336550D01*
Y285750D02*
Y311150D01*
Y260350D02*
Y285750D01*
X228600Y577850D02*
Y603250D01*
X381000Y577850D02*
Y603250D01*
X695150Y673100D02*
X736600D01*
X749300Y685800D01*
Y1047750D01*
X736600Y1060450D02*
X749300Y1047750D01*
X660400Y1060450D02*
X736600D01*
X381000Y996950D02*
Y1022350D01*
X304800Y996950D02*
Y1022350D01*
X330200Y996950D02*
Y1022350D01*
X406400Y996950D02*
Y1022350D01*
X177800Y996950D02*
Y1022350D01*
X254000Y996950D02*
Y1022350D01*
X228600Y996950D02*
Y1022350D01*
X203200Y996950D02*
Y1022350D01*
X152400Y996950D02*
Y1022350D01*
X304800Y577850D02*
Y603250D01*
X393700Y1047750D02*
Y1085850D01*
X406400Y1098550D01*
X628650D01*
X641350Y1085850D01*
X660400D01*
X406400Y1022350D02*
Y1035050D01*
X393700Y1047750D02*
X406400Y1035050D01*
X342900Y1047750D02*
X393700D01*
X330200Y1035050D02*
X342900Y1047750D01*
X330200Y1022350D02*
Y1035050D01*
X584200Y1071600D02*
X585750Y1073150D01*
X615950D01*
X582650D02*
X584200Y1071600D01*
X444500Y1073150D02*
X582650D01*
X431800Y1060450D02*
X444500Y1073150D01*
X431800Y984250D02*
Y1060450D01*
X419100Y971550D02*
X431800Y984250D01*
X393700Y971550D02*
X419100D01*
X381000Y984250D02*
X393700Y971550D01*
X381000Y984250D02*
Y996950D01*
X615950Y1073150D02*
X628650Y1060450D01*
X660400D01*
X368300Y971550D02*
X381000Y984250D01*
X317500Y971550D02*
X368300D01*
X304800Y984250D02*
X317500Y971550D01*
X304800Y984250D02*
Y996950D01*
X317500Y1047750D02*
X330200Y1035050D01*
X88900Y1047750D02*
X317500D01*
X76200Y1035050D02*
X88900Y1047750D01*
X76200Y1009650D02*
Y1035050D01*
D13*
X190500Y882650D02*
Y971550D01*
X326150Y381000D02*
Y383300D01*
Y378000D02*
Y381000D01*
X630936Y418846D02*
Y440186D01*
X652700Y461950D01*
X469900Y184150D02*
X482600Y196850D01*
X566420D01*
X600456Y230886D01*
Y274606D01*
X652700Y326850D01*
X556500Y753872D02*
Y755650D01*
Y753872D02*
X558278D01*
X558800Y753350D01*
X342900Y654050D02*
X355600Y666750D01*
X342900Y590550D02*
Y654050D01*
X108712Y917194D02*
X148844D01*
X165100Y900938D01*
Y882650D02*
Y900938D01*
X43688Y917194D02*
X108712D01*
X482600Y381000D02*
X488950Y374650D01*
X571500D01*
X577850Y381000D01*
Y431800D01*
X571500Y438150D02*
X577850Y431800D01*
X562850Y438150D02*
X571500D01*
X520700Y755650D02*
X556500D01*
X520700Y857250D02*
X527050D01*
X584200Y783350D02*
X596900Y796050D01*
Y952500D01*
X584200Y965200D02*
X596900Y952500D01*
X552450Y965200D02*
X584200D01*
X558800Y840500D02*
X561100D01*
X584200Y863600D01*
Y901700D01*
Y730250D02*
Y753350D01*
X558800Y783350D02*
Y810500D01*
X520700Y730250D02*
X556500D01*
X76200Y82550D02*
X88900D01*
X63500Y95250D02*
X76200Y82550D01*
X63500Y95250D02*
Y215900D01*
X44450Y234950D02*
X63500Y215900D01*
X38100Y234950D02*
X44450D01*
X254000Y133350D02*
X266700Y120650D01*
X254000Y133350D02*
Y171450D01*
X266700Y184150D01*
X228600Y133350D02*
X241300Y120650D01*
X228600Y133350D02*
Y171450D01*
X241300Y184150D01*
X203200Y133350D02*
X215900Y120650D01*
X203200Y133350D02*
Y171450D01*
X215900Y184150D01*
X177800Y133350D02*
X190500Y120650D01*
X177800Y133350D02*
Y171450D01*
X190500Y184150D01*
X152400Y133350D02*
X165100Y120650D01*
X152400Y133350D02*
Y171450D01*
X165100Y184150D01*
X127000Y133350D02*
X139700Y120650D01*
X127000Y133350D02*
Y171450D01*
X139700Y184150D01*
X101600Y133350D02*
X114300Y120650D01*
X101600Y133350D02*
Y171450D01*
X114300Y184150D01*
X203200Y984250D02*
Y996950D01*
X190500Y971550D02*
X203200Y984250D01*
X228600D02*
Y996950D01*
Y984250D02*
X241300Y971550D01*
Y882650D02*
Y971550D01*
X279400Y577850D02*
X292100Y590550D01*
Y677150D01*
X342900Y590550D02*
X355600Y577850D01*
Y666750D02*
Y677150D01*
X419100Y666750D02*
Y677150D01*
X406400Y654050D02*
X419100Y666750D01*
X368300Y654050D02*
X406400D01*
X355600Y641350D02*
X368300Y654050D01*
X355600Y603250D02*
Y641350D01*
X241300Y666750D02*
Y677150D01*
Y666750D02*
X254000Y654050D01*
X266700D01*
X279400Y641350D01*
Y603250D02*
Y641350D01*
X190500Y590550D02*
Y677150D01*
Y590550D02*
X203200Y577850D01*
Y603250D02*
Y654050D01*
X139700D02*
Y677150D01*
X558800Y914309D02*
X571591D01*
X584200Y901700D01*
X43688Y962406D02*
X108712D01*
X25400Y819150D02*
X38100D01*
X19050Y825500D02*
X25400Y819150D01*
X19050Y825500D02*
Y958850D01*
X22606Y962406D01*
X43688D01*
X495300Y781050D02*
X520700D01*
X482600Y806450D02*
X520700D01*
X469900Y831850D02*
X520700D01*
X495300Y539750D02*
X520700D01*
X482600Y552450D02*
X495300Y539750D01*
X482600Y552450D02*
Y711200D01*
X139700Y939800D02*
X190500D01*
D14*
X431800Y260350D02*
X463550D01*
X406400Y234950D02*
X431800Y260350D01*
X368300Y234950D02*
X406400D01*
X215900Y82550D02*
Y95250D01*
X222250Y101600D01*
X285750D01*
X292100Y95250D01*
Y82550D02*
Y95250D01*
Y82550D02*
X298450Y76200D01*
X315200D01*
X241300Y63500D02*
Y82550D01*
Y63500D02*
X254000Y50800D01*
X315200D01*
Y101600D02*
X317500Y103900D01*
Y120650D01*
X323850Y127000D01*
X361950D01*
X368300Y133350D01*
X393700D01*
X315200Y76200D02*
X340600Y101600D01*
X345200D01*
X315200Y50800D02*
X340600Y76200D01*
X345200D01*
X368300Y57150D02*
X393700D01*
X361950Y50800D02*
X368300Y57150D01*
X345200Y50800D02*
X361950D01*
X368300Y82550D02*
X393700D01*
X361950Y76200D02*
X368300Y82550D01*
X345200Y76200D02*
X361950D01*
X368300Y107950D02*
X393700D01*
X361950Y101600D02*
X368300Y107950D01*
X345200Y101600D02*
X361950D01*
X381000Y146050D02*
X393700Y133350D01*
X381000Y146050D02*
Y222250D01*
X368300Y234950D02*
X381000Y222250D01*
X165100Y234950D02*
X368300D01*
X152400Y247650D02*
X165100Y234950D01*
X114300Y82550D02*
X190500D01*
X88900Y107950D02*
Y120650D01*
Y107950D02*
X95250Y101600D01*
X107950D01*
X114300Y95250D01*
Y82550D02*
Y95250D01*
X592850Y364250D02*
Y412750D01*
X577850Y349250D02*
X592850Y364250D01*
X501650Y349250D02*
X577850D01*
X488950Y336550D02*
X501650Y349250D01*
X463550Y336550D02*
X488950D01*
X635000Y381000D02*
X652700D01*
X603250Y412750D02*
X635000Y381000D01*
X482600Y406400D02*
Y431800D01*
Y457200D02*
X488950Y463550D01*
X520700D01*
X562850D01*
X520700Y438150D02*
X562850D01*
X482600Y406400D02*
X488950Y400050D01*
X550150D01*
X562850Y412750D01*
X326150Y400050D02*
X387350D01*
X393700Y406400D01*
X406400D01*
X296150Y438150D02*
Y457200D01*
Y419100D02*
Y438150D01*
X387350D01*
X393700Y431800D01*
X406400D01*
X260350Y457200D02*
X279400Y476250D01*
X317500D01*
X323850Y469900D01*
Y457200D02*
Y469900D01*
Y457200D02*
X406400D01*
X283450Y431800D02*
X296150Y419100D01*
X260350Y431800D02*
X283450D01*
X326150Y400050D02*
Y419100D01*
Y383300D02*
Y400050D01*
X266700D02*
X326150D01*
X260350Y406400D02*
X266700Y400050D01*
X296150Y364250D02*
Y381000D01*
Y364250D02*
X298450Y361950D01*
X406400D01*
X260350Y381000D02*
X296150D01*
X463550Y285750D02*
X520700D01*
X463550Y311150D02*
X520700D01*
X592850Y412750D02*
X603250D01*
X592850D02*
Y438150D01*
Y463550D01*
X469900Y82550D02*
Y107950D01*
X393700Y44450D02*
Y57150D01*
Y44450D02*
X406400Y31750D01*
X567450D01*
X469900Y57150D02*
X495300D01*
X501650Y50800D01*
X518400D01*
X501650Y88900D02*
X518400D01*
X495300Y82550D02*
X501650Y88900D01*
X469900Y82550D02*
X495300D01*
X501650Y127000D02*
X518400D01*
X495300Y133350D02*
X501650Y127000D01*
X469900Y133350D02*
X495300D01*
X548400Y88900D02*
Y127000D01*
Y50800D02*
Y88900D01*
Y50800D02*
X567450Y31750D01*
X673100D01*
X682700Y41350D01*
Y101750D01*
X326150Y336550D02*
X374650D01*
X326150Y311150D02*
X374650D01*
X326150Y285750D02*
X374650D01*
X326150Y260350D02*
X374650D01*
X271300D02*
X296150D01*
X271300Y285750D02*
X296150D01*
X271300Y311150D02*
X296150D01*
X271300Y336550D02*
X296150D01*
X228600Y349250D02*
X241300Y336550D01*
X228600Y349250D02*
Y387350D01*
X203200Y412750D02*
X228600Y387350D01*
X190500Y412750D02*
X203200D01*
X228600Y311150D02*
X241300D01*
X215900Y323850D02*
X228600Y311150D01*
X215900Y323850D02*
Y349250D01*
X203200Y361950D02*
X215900Y349250D01*
X190500Y361950D02*
X203200D01*
X190500Y260350D02*
X241300D01*
X228600Y285750D02*
X241300D01*
X203200Y311150D02*
X228600Y285750D01*
X190500Y311150D02*
X203200D01*
X139700Y707150D02*
Y740650D01*
Y770650D02*
Y806450D01*
X190500Y707150D02*
Y740650D01*
X241300Y707150D02*
Y740650D01*
X292100Y707150D02*
Y740650D01*
X419100Y707150D02*
Y740650D01*
X355600Y707150D02*
Y740650D01*
Y770650D02*
Y806359D01*
X419100Y770650D02*
Y806359D01*
X292100Y770650D02*
Y806450D01*
X241300Y770650D02*
Y806450D01*
X190500Y770650D02*
Y806450D01*
X38100Y412750D02*
X114300D01*
X38100Y336550D02*
X50800D01*
X63500Y323850D01*
Y273050D02*
Y323850D01*
Y273050D02*
X76200Y260350D01*
X114300D01*
X38100Y361950D02*
X63500D01*
X76200Y349250D01*
Y323850D02*
Y349250D01*
Y323850D02*
X88900Y311150D01*
X114300D01*
X38100Y387350D02*
X76200D01*
X101600Y361950D01*
X114300D01*
D15*
X667700Y281851D02*
Y416950D01*
X652700Y431950D02*
X667700Y416950D01*
X664351Y812800D02*
X682700Y794451D01*
X622300Y812800D02*
X664351D01*
X609600Y800100D02*
X622300Y812800D01*
X539750Y711200D02*
X653250D01*
X667700Y696750D01*
Y612050D02*
Y696750D01*
X652700Y597050D02*
X667700Y612050D01*
X652700Y596750D02*
Y597050D01*
Y596750D02*
X667700Y581750D01*
Y446951D02*
Y581750D01*
X652700Y431950D02*
X667700Y446951D01*
X652700Y266850D02*
X667700Y281851D01*
X652700Y266850D02*
X667700Y251850D01*
Y116751D02*
Y251850D01*
X652700Y101750D02*
X667700Y116751D01*
D16*
X381000Y577850D02*
D03*
X355600Y603250D02*
D03*
Y577850D02*
D03*
X330200Y603250D02*
D03*
Y577850D02*
D03*
X304800Y603250D02*
D03*
Y577850D02*
D03*
X279400Y603250D02*
D03*
Y577850D02*
D03*
X254000Y603250D02*
D03*
Y577850D02*
D03*
X228600Y603250D02*
D03*
Y577850D02*
D03*
X203200Y603250D02*
D03*
Y577850D02*
D03*
X177800Y603250D02*
D03*
Y577850D02*
D03*
X266700Y146050D02*
D03*
Y120650D02*
D03*
X241300Y146050D02*
D03*
Y120650D02*
D03*
X215900Y146050D02*
D03*
Y120650D02*
D03*
X190500Y146050D02*
D03*
Y120650D02*
D03*
X165100Y146050D02*
D03*
Y120650D02*
D03*
X139700Y146050D02*
D03*
Y120650D02*
D03*
X114300Y146050D02*
D03*
Y120650D02*
D03*
X88900Y146050D02*
D03*
Y184150D02*
D03*
Y209550D02*
D03*
X114300Y184150D02*
D03*
Y209550D02*
D03*
X139700Y184150D02*
D03*
Y209550D02*
D03*
X165100Y184150D02*
D03*
Y209550D02*
D03*
X190500Y184150D02*
D03*
Y209550D02*
D03*
X215900Y184150D02*
D03*
Y209550D02*
D03*
X241300Y184150D02*
D03*
Y209550D02*
D03*
X266700Y184150D02*
D03*
Y209550D02*
D03*
X292100Y184150D02*
D03*
Y209550D02*
D03*
X317500Y184150D02*
D03*
Y209550D02*
D03*
X342900Y184150D02*
D03*
Y209550D02*
D03*
X368300Y184150D02*
D03*
Y209550D02*
D03*
X393700Y184150D02*
D03*
Y209550D02*
D03*
X419100Y184150D02*
D03*
Y209550D02*
D03*
X444500Y184150D02*
D03*
Y209550D02*
D03*
X469900Y184150D02*
D03*
Y209550D02*
D03*
X495300Y184150D02*
D03*
Y209550D02*
D03*
X520700Y184150D02*
D03*
X152400Y996950D02*
D03*
Y1022350D02*
D03*
X177800Y996950D02*
D03*
Y1022350D02*
D03*
X203200Y996950D02*
D03*
Y1022350D02*
D03*
X228600Y996950D02*
D03*
Y1022350D02*
D03*
X254000Y996950D02*
D03*
Y1022350D02*
D03*
X279400Y996950D02*
D03*
Y1022350D02*
D03*
X304800Y996950D02*
D03*
Y1022350D02*
D03*
X330200Y996950D02*
D03*
Y1022350D02*
D03*
X355600Y996950D02*
D03*
Y1022350D02*
D03*
X381000Y996950D02*
D03*
Y1022350D02*
D03*
X406400Y996950D02*
D03*
X374650Y336550D02*
D03*
X400050D02*
D03*
X374650Y311150D02*
D03*
X400050D02*
D03*
X374650Y285750D02*
D03*
X400050D02*
D03*
X374650Y260350D02*
D03*
X520700Y933450D02*
D03*
Y882650D02*
D03*
Y857250D02*
D03*
Y831850D02*
D03*
Y806450D02*
D03*
Y781050D02*
D03*
Y755650D02*
D03*
Y730250D02*
D03*
Y908050D02*
D03*
Y666750D02*
D03*
Y615950D02*
D03*
Y590550D02*
D03*
Y565150D02*
D03*
Y539750D02*
D03*
Y514350D02*
D03*
Y641350D02*
D03*
X38100Y844550D02*
D03*
Y793750D02*
D03*
Y768350D02*
D03*
Y742950D02*
D03*
Y717550D02*
D03*
Y692150D02*
D03*
Y819150D02*
D03*
X520700Y438150D02*
D03*
Y387350D02*
D03*
Y361950D02*
D03*
Y336550D02*
D03*
Y311150D02*
D03*
Y285750D02*
D03*
Y412750D02*
D03*
X38100Y615950D02*
D03*
Y565150D02*
D03*
Y539750D02*
D03*
Y514350D02*
D03*
Y488950D02*
D03*
Y463550D02*
D03*
Y590550D02*
D03*
Y387350D02*
D03*
Y336550D02*
D03*
Y311150D02*
D03*
Y285750D02*
D03*
Y260350D02*
D03*
Y234950D02*
D03*
Y361950D02*
D03*
X241300Y82550D02*
D03*
X215900D02*
D03*
X190500D02*
D03*
X260350Y406400D02*
D03*
Y431800D02*
D03*
Y457200D02*
D03*
X463550Y311150D02*
D03*
Y285750D02*
D03*
Y260350D02*
D03*
X660400Y1060450D02*
D03*
Y1085850D02*
D03*
Y914400D02*
D03*
Y939800D02*
D03*
Y965200D02*
D03*
X114300Y82550D02*
D03*
D17*
X381000Y603250D02*
D03*
X88900Y120650D02*
D03*
X520700Y209550D02*
D03*
X406400Y1022350D02*
D03*
X266700Y82550D02*
D03*
X88900D02*
D03*
D18*
X400050Y260350D02*
D03*
X520700Y958850D02*
D03*
Y692150D02*
D03*
X38100Y869950D02*
D03*
X520700Y463550D02*
D03*
X38100Y641350D02*
D03*
Y412750D02*
D03*
X260350Y381000D02*
D03*
X463550Y336550D02*
D03*
X660400Y1035050D02*
D03*
Y889000D02*
D03*
D19*
X584200Y1036600D02*
D03*
D20*
Y1071600D02*
D03*
D21*
X725900Y131750D02*
D03*
Y296850D02*
D03*
Y461950D02*
D03*
Y627050D02*
D03*
Y779450D02*
D03*
D22*
X652700Y101750D02*
D03*
Y131750D02*
D03*
X682700Y101750D02*
D03*
Y131750D02*
D03*
X652700Y161750D02*
D03*
Y266850D02*
D03*
Y296850D02*
D03*
X682700Y266850D02*
D03*
Y296850D02*
D03*
X652700Y326850D02*
D03*
Y431950D02*
D03*
Y461950D02*
D03*
X682700Y431950D02*
D03*
Y461950D02*
D03*
X652700Y491950D02*
D03*
Y597050D02*
D03*
Y627050D02*
D03*
X682700Y597050D02*
D03*
Y627050D02*
D03*
X652700Y657050D02*
D03*
Y764449D02*
D03*
X682700D02*
D03*
X652700Y794451D02*
D03*
D23*
X682700Y161750D02*
D03*
Y326850D02*
D03*
Y491950D02*
D03*
Y657050D02*
D03*
Y794451D02*
D03*
D24*
X43688Y962406D02*
D03*
Y917194D02*
D03*
X108712Y962406D02*
D03*
Y917194D02*
D03*
D25*
X406400Y457200D02*
D03*
Y431800D02*
D03*
Y406400D02*
D03*
Y381000D02*
D03*
X482600Y457200D02*
D03*
Y431800D02*
D03*
Y406400D02*
D03*
X393700Y133350D02*
D03*
Y107950D02*
D03*
Y82550D02*
D03*
Y57150D02*
D03*
X469900Y133350D02*
D03*
Y107950D02*
D03*
Y82550D02*
D03*
X628650Y889000D02*
D03*
Y914400D02*
D03*
Y939800D02*
D03*
Y965200D02*
D03*
X552450Y889000D02*
D03*
Y914400D02*
D03*
Y939800D02*
D03*
X114300Y438150D02*
D03*
Y412750D02*
D03*
Y387350D02*
D03*
Y361950D02*
D03*
Y336550D02*
D03*
Y311150D02*
D03*
Y285750D02*
D03*
Y260350D02*
D03*
X190500Y438150D02*
D03*
Y412750D02*
D03*
Y387350D02*
D03*
Y361950D02*
D03*
Y336550D02*
D03*
Y311150D02*
D03*
Y285750D02*
D03*
D26*
X482600Y381000D02*
D03*
X469900Y57150D02*
D03*
X552450Y965200D02*
D03*
X190500Y260350D02*
D03*
D27*
X381091Y882650D02*
D03*
X355691D02*
D03*
X381091Y806450D02*
D03*
X444591Y882650D02*
D03*
X419191D02*
D03*
X444591Y806450D02*
D03*
X317500Y882650D02*
D03*
X292100D02*
D03*
X266700D02*
D03*
X241300D02*
D03*
X215900D02*
D03*
X190500D02*
D03*
X165100D02*
D03*
X139700D02*
D03*
X317500Y806450D02*
D03*
X292100D02*
D03*
X266700D02*
D03*
X241300D02*
D03*
X215900D02*
D03*
X190500D02*
D03*
X165100D02*
D03*
D28*
X355691D02*
D03*
X419191D02*
D03*
X139700D02*
D03*
D29*
X520700Y996950D02*
D03*
X38100Y1009650D02*
D03*
X368300Y488950D02*
D03*
X88900D02*
D03*
X520700Y247650D02*
D03*
X38100Y184150D02*
D03*
X745000Y1185000D02*
D03*
X35000Y35000D02*
D03*
X745000D02*
D03*
X35000Y1185000D02*
D03*
D30*
X630936Y418846D02*
D03*
X652700Y381000D02*
D03*
X704850D02*
D03*
X609600Y800100D02*
D03*
X539750Y711200D02*
D03*
X139700Y654050D02*
D03*
X203200D02*
D03*
X495300Y781050D02*
D03*
X482600Y806450D02*
D03*
X469900Y831850D02*
D03*
X76200Y1009650D02*
D03*
X482600Y711200D02*
D03*
X139700Y939800D02*
D03*
M02*
