G04 Layer_Color=8388736*
%FSLAX44Y44*%
%MOMM*%
G71*
G01*
G75*
%ADD33R,1.8032X1.2032*%
%ADD34R,1.2032X1.8032*%
%ADD35C,1.7032*%
%ADD36R,1.7032X1.7032*%
%ADD37R,1.7032X1.7032*%
%ADD38P,1.9520X8X292.5*%
%ADD39C,1.8034*%
%ADD40C,3.2032*%
%ADD41C,1.7333*%
%ADD42R,1.7333X1.7333*%
%ADD43O,3.2512X1.7272*%
%ADD44O,2.7432X1.4732*%
%ADD45R,2.7432X1.4732*%
%ADD46O,1.4732X2.7432*%
%ADD47R,1.4732X2.7432*%
%ADD48C,3.4032*%
%ADD49C,1.4732*%
D33*
X190500Y707150D02*
D03*
Y677150D02*
D03*
X139700Y707150D02*
D03*
Y677150D02*
D03*
X292100Y707150D02*
D03*
Y677150D02*
D03*
X241300Y707150D02*
D03*
Y677150D02*
D03*
X355600Y707150D02*
D03*
Y677150D02*
D03*
X419100Y707150D02*
D03*
Y677150D02*
D03*
X558800Y783350D02*
D03*
Y753350D02*
D03*
X190500Y770650D02*
D03*
Y740650D02*
D03*
X139700Y770650D02*
D03*
Y740650D02*
D03*
X292100Y770650D02*
D03*
Y740650D02*
D03*
X241300Y770650D02*
D03*
Y740650D02*
D03*
X355600Y770650D02*
D03*
Y740650D02*
D03*
X419100Y770650D02*
D03*
Y740650D02*
D03*
X558800Y840500D02*
D03*
Y810500D02*
D03*
X584200Y783350D02*
D03*
Y753350D02*
D03*
D34*
X296150Y285750D02*
D03*
X326150D02*
D03*
X296150Y311150D02*
D03*
X326150D02*
D03*
X586500Y730250D02*
D03*
X556500D02*
D03*
X296150Y260350D02*
D03*
X326150D02*
D03*
X296150Y336550D02*
D03*
X326150D02*
D03*
X345200Y76200D02*
D03*
X315200D02*
D03*
X345200Y50800D02*
D03*
X315200D02*
D03*
X345200Y101600D02*
D03*
X315200D02*
D03*
X296150Y381000D02*
D03*
X326150D02*
D03*
Y419100D02*
D03*
X296150D02*
D03*
Y457200D02*
D03*
X326150D02*
D03*
X592850Y463550D02*
D03*
X562850D02*
D03*
X592850Y412750D02*
D03*
X562850D02*
D03*
X592850Y438150D02*
D03*
X562850D02*
D03*
X548400Y127000D02*
D03*
X518400D02*
D03*
X548400Y88900D02*
D03*
X518400D02*
D03*
X548400Y50800D02*
D03*
X518400D02*
D03*
X241300Y285750D02*
D03*
X271300D02*
D03*
X241300Y311150D02*
D03*
X271300D02*
D03*
X241300Y260350D02*
D03*
X271300D02*
D03*
X241300Y336550D02*
D03*
X271300D02*
D03*
D35*
X381000Y577850D02*
D03*
X355600Y603250D02*
D03*
Y577850D02*
D03*
X330200Y603250D02*
D03*
Y577850D02*
D03*
X304800Y603250D02*
D03*
Y577850D02*
D03*
X279400Y603250D02*
D03*
Y577850D02*
D03*
X254000Y603250D02*
D03*
Y577850D02*
D03*
X228600Y603250D02*
D03*
Y577850D02*
D03*
X203200Y603250D02*
D03*
Y577850D02*
D03*
X177800Y603250D02*
D03*
Y577850D02*
D03*
X266700Y146050D02*
D03*
Y120650D02*
D03*
X241300Y146050D02*
D03*
Y120650D02*
D03*
X215900Y146050D02*
D03*
Y120650D02*
D03*
X190500Y146050D02*
D03*
Y120650D02*
D03*
X165100Y146050D02*
D03*
Y120650D02*
D03*
X139700Y146050D02*
D03*
Y120650D02*
D03*
X114300Y146050D02*
D03*
Y120650D02*
D03*
X88900Y146050D02*
D03*
Y184150D02*
D03*
Y209550D02*
D03*
X114300Y184150D02*
D03*
Y209550D02*
D03*
X139700Y184150D02*
D03*
Y209550D02*
D03*
X165100Y184150D02*
D03*
Y209550D02*
D03*
X190500Y184150D02*
D03*
Y209550D02*
D03*
X215900Y184150D02*
D03*
Y209550D02*
D03*
X241300Y184150D02*
D03*
Y209550D02*
D03*
X266700Y184150D02*
D03*
Y209550D02*
D03*
X292100Y184150D02*
D03*
Y209550D02*
D03*
X317500Y184150D02*
D03*
Y209550D02*
D03*
X342900Y184150D02*
D03*
Y209550D02*
D03*
X368300Y184150D02*
D03*
Y209550D02*
D03*
X393700Y184150D02*
D03*
Y209550D02*
D03*
X419100Y184150D02*
D03*
Y209550D02*
D03*
X444500Y184150D02*
D03*
Y209550D02*
D03*
X469900Y184150D02*
D03*
Y209550D02*
D03*
X495300Y184150D02*
D03*
Y209550D02*
D03*
X520700Y184150D02*
D03*
X152400Y996950D02*
D03*
Y1022350D02*
D03*
X177800Y996950D02*
D03*
Y1022350D02*
D03*
X203200Y996950D02*
D03*
Y1022350D02*
D03*
X228600Y996950D02*
D03*
Y1022350D02*
D03*
X254000Y996950D02*
D03*
Y1022350D02*
D03*
X279400Y996950D02*
D03*
Y1022350D02*
D03*
X304800Y996950D02*
D03*
Y1022350D02*
D03*
X330200Y996950D02*
D03*
Y1022350D02*
D03*
X355600Y996950D02*
D03*
Y1022350D02*
D03*
X381000Y996950D02*
D03*
Y1022350D02*
D03*
X406400Y996950D02*
D03*
X374650Y336550D02*
D03*
X400050D02*
D03*
X374650Y311150D02*
D03*
X400050D02*
D03*
X374650Y285750D02*
D03*
X400050D02*
D03*
X374650Y260350D02*
D03*
X520700Y933450D02*
D03*
Y882650D02*
D03*
Y857250D02*
D03*
Y831850D02*
D03*
Y806450D02*
D03*
Y781050D02*
D03*
Y755650D02*
D03*
Y730250D02*
D03*
Y908050D02*
D03*
Y666750D02*
D03*
Y615950D02*
D03*
Y590550D02*
D03*
Y565150D02*
D03*
Y539750D02*
D03*
Y514350D02*
D03*
Y641350D02*
D03*
X38100Y844550D02*
D03*
Y793750D02*
D03*
Y768350D02*
D03*
Y742950D02*
D03*
Y717550D02*
D03*
Y692150D02*
D03*
Y819150D02*
D03*
X520700Y438150D02*
D03*
Y387350D02*
D03*
Y361950D02*
D03*
Y336550D02*
D03*
Y311150D02*
D03*
Y285750D02*
D03*
Y412750D02*
D03*
X38100Y615950D02*
D03*
Y565150D02*
D03*
Y539750D02*
D03*
Y514350D02*
D03*
Y488950D02*
D03*
Y463550D02*
D03*
Y590550D02*
D03*
Y387350D02*
D03*
Y336550D02*
D03*
Y311150D02*
D03*
Y285750D02*
D03*
Y260350D02*
D03*
Y234950D02*
D03*
Y361950D02*
D03*
X241300Y82550D02*
D03*
X215900D02*
D03*
X190500D02*
D03*
X260350Y406400D02*
D03*
Y431800D02*
D03*
Y457200D02*
D03*
X463550Y311150D02*
D03*
Y285750D02*
D03*
Y260350D02*
D03*
X660400Y1060450D02*
D03*
Y1085850D02*
D03*
Y914400D02*
D03*
Y939800D02*
D03*
Y965200D02*
D03*
X114300Y82550D02*
D03*
D36*
X381000Y603250D02*
D03*
X88900Y120650D02*
D03*
X520700Y209550D02*
D03*
X406400Y1022350D02*
D03*
X266700Y82550D02*
D03*
X88900D02*
D03*
D37*
X400050Y260350D02*
D03*
X520700Y958850D02*
D03*
Y692150D02*
D03*
X38100Y869950D02*
D03*
X520700Y463550D02*
D03*
X38100Y641350D02*
D03*
Y412750D02*
D03*
X260350Y381000D02*
D03*
X463550Y336550D02*
D03*
X660400Y1035050D02*
D03*
Y889000D02*
D03*
D38*
X584200Y1036600D02*
D03*
D39*
Y1071600D02*
D03*
D40*
X725900Y131750D02*
D03*
Y296850D02*
D03*
Y461950D02*
D03*
Y627050D02*
D03*
Y779450D02*
D03*
D41*
X652700Y101750D02*
D03*
Y131750D02*
D03*
X682700Y101750D02*
D03*
Y131750D02*
D03*
X652700Y161750D02*
D03*
Y266850D02*
D03*
Y296850D02*
D03*
X682700Y266850D02*
D03*
Y296850D02*
D03*
X652700Y326850D02*
D03*
Y431950D02*
D03*
Y461950D02*
D03*
X682700Y431950D02*
D03*
Y461950D02*
D03*
X652700Y491950D02*
D03*
Y597050D02*
D03*
Y627050D02*
D03*
X682700Y597050D02*
D03*
Y627050D02*
D03*
X652700Y657050D02*
D03*
Y764449D02*
D03*
X682700D02*
D03*
X652700Y794451D02*
D03*
D42*
X682700Y161750D02*
D03*
Y326850D02*
D03*
Y491950D02*
D03*
Y657050D02*
D03*
Y794451D02*
D03*
D43*
X43688Y962406D02*
D03*
Y917194D02*
D03*
X108712Y962406D02*
D03*
Y917194D02*
D03*
D44*
X406400Y457200D02*
D03*
Y431800D02*
D03*
Y406400D02*
D03*
Y381000D02*
D03*
X482600Y457200D02*
D03*
Y431800D02*
D03*
Y406400D02*
D03*
X393700Y133350D02*
D03*
Y107950D02*
D03*
Y82550D02*
D03*
Y57150D02*
D03*
X469900Y133350D02*
D03*
Y107950D02*
D03*
Y82550D02*
D03*
X628650Y889000D02*
D03*
Y914400D02*
D03*
Y939800D02*
D03*
Y965200D02*
D03*
X552450Y889000D02*
D03*
Y914400D02*
D03*
Y939800D02*
D03*
X114300Y438150D02*
D03*
Y412750D02*
D03*
Y387350D02*
D03*
Y361950D02*
D03*
Y336550D02*
D03*
Y311150D02*
D03*
Y285750D02*
D03*
Y260350D02*
D03*
X190500Y438150D02*
D03*
Y412750D02*
D03*
Y387350D02*
D03*
Y361950D02*
D03*
Y336550D02*
D03*
Y311150D02*
D03*
Y285750D02*
D03*
D45*
X482600Y381000D02*
D03*
X469900Y57150D02*
D03*
X552450Y965200D02*
D03*
X190500Y260350D02*
D03*
D46*
X381091Y882650D02*
D03*
X355691D02*
D03*
X381091Y806450D02*
D03*
X444591Y882650D02*
D03*
X419191D02*
D03*
X444591Y806450D02*
D03*
X317500Y882650D02*
D03*
X292100D02*
D03*
X266700D02*
D03*
X241300D02*
D03*
X215900D02*
D03*
X190500D02*
D03*
X165100D02*
D03*
X139700D02*
D03*
X317500Y806450D02*
D03*
X292100D02*
D03*
X266700D02*
D03*
X241300D02*
D03*
X215900D02*
D03*
X190500D02*
D03*
X165100D02*
D03*
D47*
X355691D02*
D03*
X419191D02*
D03*
X139700D02*
D03*
D48*
X520700Y996950D02*
D03*
X38100Y1009650D02*
D03*
X368300Y488950D02*
D03*
X88900D02*
D03*
X520700Y247650D02*
D03*
X38100Y184150D02*
D03*
X745000Y1185000D02*
D03*
X35000Y35000D02*
D03*
X745000D02*
D03*
X35000Y1185000D02*
D03*
D49*
X630936Y418846D02*
D03*
X652700Y381000D02*
D03*
X704850D02*
D03*
X609600Y800100D02*
D03*
X539750Y711200D02*
D03*
X139700Y654050D02*
D03*
X203200D02*
D03*
X495300Y781050D02*
D03*
X482600Y806450D02*
D03*
X469900Y831850D02*
D03*
X76200Y1009650D02*
D03*
X482600Y711200D02*
D03*
X139700Y939800D02*
D03*
M02*
